<svg xmlns="http://www.w3.org/2000/svg" width="40" height="40" viewBox="0 0 40 40">
  <g id="Group_7171" data-name="Group 7171" transform="translate(-1359 -236)">
    <g id="Group_12208" data-name="Group 12208">
      <circle id="Ellipse_2580" data-name="Ellipse 2580" cx="20" cy="20" r="20" transform="translate(1359 236)" fill="#ffae28"/>
      <g id="Group_7170" data-name="Group 7170" transform="translate(-4148 10143)">
        <path id="Path_3281" data-name="Path 3281" d="M-602.838,146.662a4.57,4.57,0,0,0-.482-1.13q-5.053-8.754-10.108-17.507a3.669,3.669,0,0,0-1.294-1.4c-.222-.13-.475-.17-.7-.287h-.669a4.9,4.9,0,0,0-.9.453,4.118,4.118,0,0,0-1.048,1.252L-628.1,145.468a4.232,4.232,0,0,0-.577,1.5c-.008.053.009.126-.066.153v.411c.039.011.049.041.054.076a2.161,2.161,0,0,0,1.921,1.827,5.4,5.4,0,0,0,1.024.087q10.02,0,20.041,0a3.881,3.881,0,0,0,1.8-.344A2.059,2.059,0,0,0-602.838,146.662Z" transform="translate(6142.747 -10026.339)" fill="#fff" opacity="0.301"/>
        <g id="Group_7166" data-name="Group 7166">
          <path id="Path_3279" data-name="Path 3279" d="M-611.446,139.91a3.057,3.057,0,0,0-.322-.754q-3.375-5.846-6.75-11.691a2.452,2.452,0,0,0-.864-.935c-.148-.087-.317-.114-.467-.192h-.447a3.275,3.275,0,0,0-.6.3,2.747,2.747,0,0,0-.7.836l-6.72,11.636a2.83,2.83,0,0,0-.385,1c-.005.036.006.084-.044.1v.275c.026.007.033.027.036.051a1.443,1.443,0,0,0,1.283,1.22,3.609,3.609,0,0,0,.684.058q6.691,0,13.383,0a2.592,2.592,0,0,0,1.2-.23A1.375,1.375,0,0,0-611.446,139.91Z" transform="translate(6146.988 -10021.56)" fill="#fff"/>
          <g id="Group_2200" data-name="Group 2200" transform="translate(5526.467 -9890.047)">
            <path id="Path_3280" data-name="Path 3280" d="M-390.154,283.459c0,.624.006,1.248,0,1.872,0,.359-.112.664-.544.674-.462.011-.579-.3-.581-.685q-.008-1.9,0-3.793c0-.38.112-.706.568-.7s.556.336.558.713C-390.151,282.178-390.154,282.818-390.154,283.459Z" transform="translate(391.285 -280.825)" fill="#ffae28"/>
            <circle id="Ellipse_1372" data-name="Ellipse 1372" cx="0.529" cy="0.529" r="0.529" transform="translate(0.029 6.108)" fill="#ffae28"/>
          </g>
        </g>
      </g>
    </g>
  </g>
</svg>
