<svg width="40" height="40" viewBox="0 0 40 40" fill="none" xmlns="http://www.w3.org/2000/svg">
<path d="M38.2437 38.0964V37.5673C38.2437 30.0278 38.2437 22.4882 38.2437 14.9487C38.2437 14.7961 38.2539 14.6435 38.2335 14.4908C38.1826 14.033 37.8875 13.7481 37.4295 13.7379C35.8011 13.7277 34.1829 13.7277 32.5545 13.7379C32.0965 13.7379 31.8014 14.033 31.7505 14.4908C31.7301 14.6435 31.7403 14.7961 31.7403 14.9487C31.7403 22.4984 31.7403 30.0583 31.7403 37.608C31.7403 37.7708 31.7403 37.9234 31.7403 38.0862H28.5039V37.5673C28.5039 33.2125 28.5039 28.8577 28.5039 24.5028C28.5039 23.7601 28.2291 23.4854 27.4963 23.4854C26.0409 23.4854 24.5754 23.4854 23.12 23.4854C22.2346 23.4854 22.0005 23.7296 22.0005 24.6249C22.0005 28.9492 22.0005 33.2837 22.0005 37.608C22.0005 37.7708 21.9903 37.9234 21.9801 38.0862H18.7641V37.5673C18.7641 32.1441 18.7641 26.7311 18.7641 21.308C18.7641 20.5042 18.4893 20.2294 17.6954 20.2294C16.2706 20.2294 14.8559 20.2294 13.4311 20.2294C12.4948 20.2294 12.2505 20.4635 12.2505 21.3894C12.2505 26.782 12.2505 32.1746 12.2505 37.5775V38.076H8.99371V37.5876C8.99371 34.871 8.99371 32.1543 8.99371 29.4376C8.99371 28.6033 8.73927 28.3489 7.89454 28.3489C6.45952 28.3489 5.0245 28.3489 3.58948 28.3489C2.7244 28.3489 2.48014 28.5931 2.48014 29.458C2.48014 32.1746 2.48014 34.8913 2.48014 37.608V38.1066C2.16464 38.1066 1.88984 38.0862 1.61505 38.1066C1.16724 38.1371 0.841566 38.5135 0.872099 38.9511C0.902631 39.3479 1.15707 39.5514 1.47257 39.7142H39.2614C39.465 39.5107 39.6685 39.3072 39.8721 39.1037V38.6458C39.5261 37.9641 38.8544 38.1269 38.2437 38.0964ZM7.3246 38.0557H4.13906V29.9972H7.3246V38.0557ZM17.0746 38.0557H13.8891V21.8676H17.0746V38.0557ZM26.8246 38.0659H23.6492V25.1235H26.8246V38.0659ZM36.5848 38.0557H33.3992V15.3761H36.5848V38.0557ZM3.7625 21.1757C4.90237 22.0405 6.47988 22.0711 7.62993 21.2266C8.80033 20.3719 9.29903 18.8558 8.7698 17.5026C8.60696 17.0956 8.68838 16.9023 9.01406 16.6479C10.5305 15.4778 12.0164 14.267 13.5125 13.0766C15.3953 14.1449 16.7184 13.9007 18.1941 12.2524C18.2552 12.1913 18.3977 12.1405 18.4791 12.1608C19.6495 12.4864 20.8199 12.8222 22.0107 13.1681C22.0107 13.2597 22.0107 13.3106 22.0005 13.3614C21.8682 14.7656 22.5806 16.0476 23.8223 16.6377C25.0741 17.2279 26.5396 16.9837 27.5167 16.0171C28.4937 15.0403 28.7481 13.5955 28.1477 12.3338C28.0357 12.0896 28.107 11.9777 28.2596 11.8251C29.8677 10.248 31.4655 8.66069 33.043 7.06324C33.2568 6.84957 33.3992 6.81905 33.6842 6.94115C35.852 7.89758 38.3149 6.24926 38.2335 3.91923C38.1928 2.55581 37.3684 1.40606 36.1166 0.927842C34.875 0.459801 33.5112 0.79557 32.5952 1.77235C31.6996 2.72878 31.4757 4.1329 32.0456 5.3437C32.1576 5.56755 32.1169 5.68965 31.9439 5.85244C30.3256 7.44989 28.7278 9.0575 27.1197 10.6651C27.0383 10.7465 26.9569 10.8177 26.8755 10.889C25.2573 10.1564 24.097 10.3497 22.8147 11.5198C22.7333 11.6012 22.5399 11.6216 22.4178 11.591C21.3797 11.3061 20.3517 10.9805 19.3035 10.7262C18.8658 10.6142 18.7132 10.4311 18.6623 9.98341C18.4893 8.42667 17.0746 7.22604 15.4767 7.21587C13.8891 7.20569 12.4439 8.41649 12.281 9.96306C12.22 10.5736 12.3421 11.2044 12.3828 11.8963C10.8664 13.1071 9.2685 14.3789 7.67064 15.6508C7.5078 15.783 7.39585 15.783 7.20247 15.7118C6.80555 15.5592 6.38828 15.3964 5.971 15.3557C4.53598 15.2234 3.18238 16.0985 2.68369 17.4415C2.19517 18.7948 2.62262 20.3108 3.7625 21.1757ZM34.9666 2.34214C35.852 2.33196 36.595 3.05437 36.6051 3.94976C36.6153 4.85531 35.9029 5.5879 35.0073 5.5879C34.1117 5.59807 33.3789 4.87566 33.3687 3.98028C33.3687 3.0849 34.0709 2.36249 34.9666 2.34214ZM25.2471 12.0998C26.1427 12.1099 26.8551 12.8425 26.8551 13.7379C26.8551 14.6333 26.1224 15.3557 25.2267 15.3557C24.3311 15.3557 23.6187 14.6231 23.6187 13.7277C23.6289 12.8222 24.3617 12.0896 25.2471 12.0998ZM15.4767 8.85401C16.3825 8.85401 17.1051 9.55607 17.1051 10.4616C17.1051 11.3672 16.4029 12.0794 15.4971 12.0896C14.5913 12.0998 13.8687 11.3875 13.8687 10.482C13.8687 9.57642 14.571 8.86418 15.4767 8.85401ZM5.7471 16.9735C6.64271 16.9837 7.35514 17.7163 7.35514 18.6116C7.35514 19.507 6.62236 20.2294 5.72674 20.2294C4.83113 20.2294 4.11871 19.4968 4.11871 18.6015C4.11871 17.6959 4.85148 16.9633 5.7471 16.9735Z" fill="#121212"/>
</svg>
