<svg width="42" height="38" viewBox="0 0 42 38" fill="none" xmlns="http://www.w3.org/2000/svg">
<path d="M14.6724 37.7246C14.16 37.7246 13.7524 37.3148 13.7524 36.7996C13.7524 36.2961 14.16 35.8746 14.6724 35.8746C14.8703 35.8746 15.0333 35.8746 15.1847 35.8629C15.208 35.8629 15.2779 35.8278 15.3012 35.7926C15.6039 34.3407 15.8834 32.9123 16.1861 31.4018L16.3259 30.711H9.24605C7.41788 30.711 5.5897 30.711 3.76153 30.711C1.70047 30.711 0.442871 29.4347 0.442871 27.3857C0.442871 19.5993 0.442871 11.8129 0.442871 4.0148C0.442871 2.19993 1.91007 0.724609 3.7266 0.724609H20.9487H38.1708C39.1955 0.724609 40.0572 1.06417 40.6278 1.69644C41.2333 2.35214 41.5011 3.28885 41.4079 4.40119L41.3963 26.8939C41.5244 28.0531 41.2682 29.0249 40.6511 29.7157C40.0688 30.3714 39.2071 30.7227 38.1591 30.7227C36.4474 30.7227 25.8394 30.7227 25.8394 30.7227H25.5482L25.6763 31.3784C25.9791 32.9006 26.2702 34.3525 26.5613 35.8161C26.5846 35.8395 26.6312 35.8629 26.6545 35.8746C26.8058 35.8863 26.9689 35.8863 27.1901 35.8863C27.6908 35.8863 28.11 36.2961 28.11 36.8113C28.11 37.3265 27.7025 37.7363 27.1901 37.7363H14.6724V37.7246ZM24.6866 35.8512L24.5585 35.1838C24.2557 33.6733 23.9762 32.2449 23.6735 30.7813C23.6502 30.7578 23.592 30.7227 23.5687 30.711C22.6954 30.6993 21.8337 30.6993 21.0069 30.6993C20.087 30.6993 19.1904 30.6993 18.3171 30.711C18.2821 30.7344 18.2123 30.793 18.2006 30.8281C18.1307 31.074 18.0842 31.3316 18.0259 31.6009C18.0143 31.6945 17.991 31.7882 17.9794 31.8702C17.7814 32.8888 17.5718 33.9192 17.3739 34.9496L17.1992 35.8278H24.6866V35.8512ZM38.2872 28.8376C38.3455 28.8376 38.4153 28.8376 38.4735 28.8376C38.9743 28.8025 39.5099 28.4395 39.5448 27.8892C39.5798 27.1983 39.5798 26.5075 39.5681 25.7816C39.5681 25.4771 39.5565 25.1727 39.5565 24.8683L39.5681 23.4281L39.5798 23.2993C39.5798 23.2407 39.5798 23.2056 39.5798 23.1588V19.5525C39.5798 14.3303 39.5798 9.10815 39.5798 3.886C39.5798 3.06638 39.1023 2.60974 38.229 2.60974H20.5761H3.69166C2.76011 2.60974 2.31762 3.05467 2.31762 4.00309C2.31762 8.80372 2.31762 13.6044 2.31762 18.405V27.3271C2.31762 28.4512 2.71353 28.8493 3.8314 28.8493H38.066L38.2872 28.8376ZM27.9703 25.1376C27.1086 25.1376 26.3401 24.6575 25.9442 23.8847C25.8277 23.6623 25.7578 23.6388 25.5482 23.6388C21.2747 23.6388 17.0129 23.6388 12.751 23.6388H6.76579C6.38153 23.6388 6.06713 23.3227 6.06713 22.9363V22.468C6.06713 22.0816 6.38153 21.7654 6.76579 21.7654H12.9606C17.1526 21.7654 21.333 21.7654 25.525 21.7654C25.7462 21.7654 25.8161 21.742 25.9325 21.543C26.3401 20.7936 27.0853 20.3487 27.9237 20.3487C28.7621 20.3487 29.519 20.7936 29.9382 21.5547C30.043 21.7303 30.1129 21.7654 30.2992 21.7654C31.0677 21.7654 31.8828 21.7537 32.9424 21.7537H35.1316C35.5159 21.7537 35.8303 22.0699 35.8303 22.4563V22.9246C35.8303 23.311 35.5159 23.6271 35.1316 23.6271H32.7212C31.7314 23.6271 30.9862 23.6271 30.2875 23.6154C30.1012 23.6154 30.0313 23.6271 29.9149 23.8847C29.5423 24.6692 28.8203 25.1376 27.9703 25.1376ZM27.9237 22.2338C27.7956 22.2338 27.6792 22.2923 27.586 22.386C27.4929 22.4797 27.4579 22.5968 27.4579 22.7256C27.4696 22.9714 27.6792 23.1705 27.9237 23.1705H27.9353C28.1799 23.1588 28.3895 22.948 28.3778 22.6904C28.3895 22.4445 28.1799 22.2338 27.9237 22.2338V21.9996V22.2338ZM18.2123 18.5104C17.6883 18.5104 17.2458 18.0537 17.2458 17.5151V7.83189C17.2458 7.29328 17.6999 6.82493 18.2123 6.82493C18.3753 6.82493 18.5383 6.87176 18.678 6.96543C18.7945 7.04739 20.5644 8.18315 22.2762 9.2955C24.2208 10.5601 26.0606 11.7426 26.177 11.8129C26.4798 12.0237 26.6428 12.3398 26.6312 12.6911C26.6195 13.0306 26.4449 13.3468 26.1654 13.5341L26.014 13.6395C23.6386 15.1851 19.5281 17.8547 18.678 18.3816C18.5383 18.4635 18.3753 18.5104 18.2123 18.5104ZM19.0972 16.0398C20.1452 15.3841 23.3591 13.3116 24.2557 12.6911C23.3242 12.0822 20.1685 10.0214 19.0972 9.33062V16.0398Z" fill="#121212"/>
</svg>
