<svg xmlns="http://www.w3.org/2000/svg" width="1312.605" height="810" viewBox="0 0 1312.605 810">
  <path id="Intersection_4" data-name="Intersection 4" d="M1385.22,805c.4-21.981,12.643-40.4,32.2-47.567,14.308-5.18,28.88-9.607,43.188-14.841,16.42-6.045,31.256-15.058,43.663-28.119,8.711-9.229,15.628-19.968,22.967-30.493,5.386-7.771,9.873-16.353,16.42-23.26v75.827c-1.478,2.537-2.006,5.613-4.277,7.556-7.6,6.745-15.152,13.438-23.865,18.565-15.522,9.5-32.417,14.41-49.048,20.724-9.346,3.508-18.743,7.286-26.452,14.572-2.852,2.755-5.7,5.407-9.2,7.035Zm148.729-127.442c-1.636,2.59-3.326,5.181-5.016,7.718l-3.537,5.019c-6.019,8.8-12.2,17.81-19.589,25.69-11.879,12.467-26.821,22.127-44.455,28.658-7.444,2.7-14.836,5.181-22.386,7.664-6.917,2.321-13.939,4.642-20.856,7.178-17.95,6.584-29.567,23.153-30.728,43.446H1430.1c3.115-1.457,5.649-3.832,8.5-6.584,7.708-7.286,16.843-11.118,27.191-14.95,3.854-1.457,7.708-2.914,11.615-4.263,12.407-4.479,25.29-9.121,37.064-16.3,8.817-5.289,16.631-12.251,23.6-18.349a12.345,12.345,0,0,0,2.376-3.994c.317-.863.739-1.673,1.109-2.536V666.44C1538.807,669.948,1536.378,673.834,1533.949,677.558ZM1118.5,805a6.114,6.114,0,0,1-2.183-4.5c0-4.479-1.162-8.959-1.056-13.6.158-18.35.95-36.807,4.012-54.941,2.059-12.035-.317-22.883-5.861-33.245a368.391,368.391,0,0,1-17.792-39.829c-8.29-21.264-15.681-43.014-25.66-63.522-5.966-12.252-12.777-24.016-21.911-33.786-8.87-9.768-19.535-15.165-31.891-15.165-.686,0-1.319,0-2.058.054-11.035.7-21.331,4.641-30.887,11.01-17.793,11.82-34.266,25.42-51.161,38.7a216.293,216.293,0,0,0-35.9,35.728c-12.2,15.435-20.116,33.515-27.3,51.864-11.669,29.684-28.247,55.427-48.469,78.634-9.239,10.741-17.265,22.289-20.7,36.915A9.219,9.219,0,0,1,796.022,805H731.077c-1.5-1.58-3.046-2.921-3.875-5.092-5.226-14.14-14.15-24.88-25.29-33.731-13.041-10.417-26.187-20.4-38.066-32.382a364.7,364.7,0,0,1-42.556-53.7c-10.982-16.947-23.758-31.627-39.492-43.554a172.61,172.61,0,0,1-21.911-20.508c-17-18.08-31.942-38.048-47.57-57.424-9.4-11.712-18-24.286-24.5-38.373-13.516-28.658-17.423-59.96-18.8-91.64-1.109-21.588,2.112-42.691,7.075-63.523,3.7-15.813,6.97-31.68,6.389-48.249-.74-25.1-6.864-48.41-19.43-69.512-12.566-20.94-30.833-29.576-52.428-29.576-1.109,0-2.271,0-3.432.108-15.892.594-31.151,5.559-45.354,13.331-13.093,7.016-25.079,15.975-36.852,25.2-27.771,21.965-58.869,35.08-92.449,41.611-.16.028-.321.06-.482.094V295.9l.113-.013c35.216-6.854,65.1-20.347,91.551-41.234,13.2-10.362,24.6-18.673,37.117-25.42,15.311-8.366,30.886-12.953,46.251-13.6,1.214,0,2.375-.054,3.537-.054,23.811,0,42.027,10.254,54.223,30.6C477.205,266.9,483.8,290.65,484.6,316.77c.581,17.109-2.9,33.57-6.441,48.843-5.755,24.017-7.972,44.04-7.022,62.875,1.214,28.01,4.382,60.77,18.585,90.831,5.755,12.413,13.463,24.5,24.234,37.94,3.8,4.7,7.5,9.337,11.192,14.033,11.51,14.572,23.442,29.575,36.273,43.284a174.3,174.3,0,0,0,21.594,20.238c15.1,11.442,28.141,25.852,40.02,44.093,13.464,20.4,27.3,37.941,42.344,53.376,10.19,10.255,21.594,19.321,32.682,28.064l5.121,4.1c12.566,9.985,21.066,21.318,25.977,34.648a11.116,11.116,0,0,0,2.64,3.562l.211.27h63.251a7.244,7.244,0,0,0,2.376-4.156c3.8-16.083,12.83-28.118,21.172-37.778,21.436-24.61,37.17-50.192,48.1-77.986,6.97-17.864,15.1-36.645,27.561-52.458A218.6,218.6,0,0,1,930.79,594.5l8.87-7.069c13.622-10.795,27.719-21.966,42.4-31.789,10.3-6.853,21.013-10.632,31.942-11.334.74-.054,1.426-.054,2.164-.054,12.566,0,23.812,5.343,33.368,15.814,8.078,8.635,14.995,19.267,22.333,34.324,7.392,15.166,13.463,31.3,19.324,46.9,2.112,5.612,4.224,11.226,6.388,16.839a353.409,353.409,0,0,0,17.688,39.505c6.125,11.549,8.131,22.883,6.071,34.7-3.22,18.889-3.8,38.21-4.012,54.617a61.909,61.909,0,0,0,.527,6.854,46.316,46.316,0,0,1,.634,6.692,3.433,3.433,0,0,0,1,2.429h55.49a8.709,8.709,0,0,0,3.643-4.749,131.119,131.119,0,0,1,11.826-22.721c12.144-18.134,29.408-28.712,52.586-32.112a90.325,90.325,0,0,1,15.153-.917c3.22,0,6.388-.054,9.609-.27,5.649-.378,11.457-.648,17.106-.864,12.46-.485,25.343-1.025,37.8-3.885,22.65-5.127,37.7-23.045,40.338-47.925,1.689-14.95,1.636-26.985-.211-38.048-4.91-29.63-23.918-50.678-50.685-56.291a85.1,85.1,0,0,0-18.268-1.943,90.583,90.583,0,0,0-41.5,10.416c-9.239,4.7-18.215,10.417-26.874,15.975-3.432,2.267-6.969,4.534-10.507,6.692a148.1,148.1,0,0,1-18.162,9.445,50.857,50.857,0,0,1-19.852,4.21c-10.19,0-20.38-3.238-31.151-9.823-12.091-7.394-22.544-18.3-32.787-34.325-9.239-14.518-16.631-30.493-23.759-45.982-2.059-4.533-4.171-9.067-6.336-13.654a98.523,98.523,0,0,0-13.675-22.074c-7.814-9.283-18.215-14.032-32.734-14.949-1.689-.108-3.38-.162-4.964-.162-21.172,0-40.865,8.689-60.136,26.445l-28.616,26.176c-17,15.543-33.9,31.033-50.791,46.684-17,15.867-31.467,35.835-43.03,59.421l-.634,1.241c-7.867,16.137-16,32.813-28.985,45.443-16.948,16.784-33.157,24.88-51.214,25.636H766.8c-12.46,0-23.336-5.775-33.209-17.7a150.546,150.546,0,0,1-14.52-21.534A573.431,573.431,0,0,0,668.7,618.029c-9.715-12.143-15.945-25.42-18.373-39.56-2.641-15.813-.95-31.9,5.438-50.623,9.609-28.5,29.2-48.141,59.926-60.123,9.451-3.67,19.112-6.638,28.563-9.445,6.758-2.051,13.78-4.209,20.538-6.53,21.542-7.609,38.384-23.315,51.583-47.979,3.485-6.638,6.7-13.6,9.82-20.346,2.271-5.073,4.594-10.147,7.075-15.058,8.29-16.622,20.486-31.194,38.437-45.766,20.643-17.055,35.427-31.195,47.834-45.875a480.968,480.968,0,0,0,39.388-53.591c8.131-12.791,15.469-18.188,24.392-18.188,6.653-.054,13.886,3.076,22.545,7.61,16.843,8.851,30.306,23.746,41.287,45.55,11.615,22.883,19.958,42.043,26.24,60.285a214.29,214.29,0,0,1,11.246,56.884c.527,9.175.792,18.457,1.056,27.417.158,8.1.422,16.137.845,24.178.474,8.15,1.267,17.81,3.854,26.931,4.541,15.867,15.1,25.15,31.151,27.687a139.235,139.235,0,0,0,22.28,1.888c17.74,0,33-4.155,46.62-12.737,15.575-9.822,28.775-24.125,39.228-42.582,13.886-24.341,22.123-51.541,24.5-80.793l.581-7.016c1.161-15.382,2.481-31.3,7.655-46.306,4.435-12.791,10.771-26.877,24.815-35.026a43.559,43.559,0,0,1,13.2-5.451,21.651,21.651,0,0,1,5.227-.648c8.553,0,15.364,5.181,19.06,14.464,4.118,10.2,5.86,21.156,7.6,31.789l.423,2.752c3.484,20.616,8.025,44.363,18.8,66,8.342,16.623,17.581,30.494,28.141,42.367,10.4,11.6,21.805,22.505,32.84,32.975l9.134,8.69c12.618,12.2,24.762,26.176,39.387,45.281,16.684,22.019,31.151,39.992,47.412,56.4,8.29,8.365,17.635,17.162,29.408,27.686.423.378.845.864,1.32,1.242.844.863,1.689,1.727,2.376,1.835V483.16c-4.435-8.2-11.246-13.979-17.951-19-14.467-11.011-30.1-19.537-44.72-27.094-3.854-2-7.761-3.885-11.562-5.828-15.892-7.988-32.206-16.191-47.254-26.607-28.247-19.537-45.67-43.446-53.484-73.292a116.868,116.868,0,0,1-4.329-30.061v-5.343c0-9.714,0-19.752,1.848-29.737,3.8-20.67,14.889-35.3,32.893-43.446,10.137-4.7,20.908-7.771,31.256-10.74,3.062-.864,6.125-1.727,9.186-2.644,16.051-4.8,37.17-11.712,56.969-22.883,23.864-13.493,37.539-34.7,41.71-65.034,2.8-20.292-.527-39.4-9.82-56.884-5.439-10.255-13.991-17.594-27.561-23.963-9.292-4.317-19.271-7.07-28.985-9.661L1462.461,29l-.475-.162a172,172,0,0,1-22.809-7.718c-7.972-3.562-14.73-9.607-20.96-18.781a26.21,26.21,0,0,0-3.8-4.479H1373.6c-1.425,1.673-1.689,3.939-1.848,6.476l-.264,1.888a127.017,127.017,0,0,1-5.6,25.42c-2.746,7.88-7.867,12.792-15.628,15-8.87,2.537-17.951,3.508-26.979,4.533-13.939,1.565-27.877,2.753-40.865,3.886-4.752.378-9.4.594-13.622.594-25.66,0-45.459-6.8-62.355-21.48-8.764-7.609-16.05-17.594-22.914-31.357-1.109-2.266-2.059-3.993-3.643-4.964h-43.082c-.475.755-.317,1.673.527,3.831,5.069,13.925,10.718,24.287,17.846,32.6,22.174,25.852,46.515,42.043,74.444,49.544a91.927,91.927,0,0,0,21.964,2.968h4.91c3.062,0,6.019,0,9.029-.054,2.956-.054,5.966-.108,9.028-.108a157.249,157.249,0,0,1,20.75,1.187c9.345,1.4,19.9,3.67,27.56,13.6,2.641,3.508,5.227,7.394,6.336,12.251,3.643,17.432,8.342,60.77-27.508,86.351l-5.755,4.1c-8.448,5.99-17.159,12.089-25.29,18.943-21.172,18.026-34.371,42.043-39.176,71.456-2.271,13.709-2.745,27.309-3.168,40.1-.369,16.731-1.267,36.16-7.339,54.509-7.128,21.7-17.37,37.563-31.468,48.519-9.978,7.879-20.7,11.874-31.784,11.874a47.484,47.484,0,0,1-10.56-1.134c-13.621-3.13-23.654-12.359-29.514-27.686-4.647-11.874-5.861-24.448-6.494-34.055a818.27,818.27,0,0,0-11.985-100.977c-2.534-14.086-3.8-28.712-5.016-42.852l-.527-5.829c-2.429-27.525-10.507-49.328-24.763-66.922-4.752-5.828-9.978-11.172-15.152-16.461-3.168-3.238-6.389-6.584-9.557-9.984-11.246-12.36-18.8-26.878-23.019-44.418-1.426-5.666-2.8-11.495-4.118-17.27-1.9-8.312-3.854-16.946-6.178-25.42-3.854-14.3-8.975-28.442-13.938-42.151-1.531-4.317-3.115-8.635-4.646-13.007a6.811,6.811,0,0,0-2.8-3.507H897.58c-4.8,1.619-8.394,5.234-12.2,9.121-1.742,1.727-3.485,3.454-5.28,4.965-6.6,5.828-13.463,12.251-18.69,20.346-9.028,13.817-10.665,29.522-5.069,49.382,3.908,13.763,9.451,26.931,14.731,39.775,1.531,3.67,3.115,7.34,4.594,11.064,8.078,20.185,17.265,43.123,20.908,67.678,3.009,20.67-2.641,41.341-15.523,56.723-11.826,14.032-27.93,21.8-45.406,21.911h-6.335a69.147,69.147,0,0,0-13.041.918c-9.979,1.726-16.157,7.88-18.743,18.511a59.132,59.132,0,0,0-1.9,16.623,279.843,279.843,0,0,1-2.746,44.9c-4.541,31.248-20.8,52.62-49.63,65.465-6.071,2.644-12.2,5.127-18.32,7.609-10.3,4.155-20.855,8.42-30.939,13.547A142.172,142.172,0,0,0,634.859,500.7c-2.111,3.4-4.065,6.854-6.071,10.2-5.333,9.229-10.877,18.781-17.318,27.525-9.239,12.845-19.377,19.105-30.992,19.105-7.5,0-15.628-2.59-24.762-8.1-34.424-20.67-54.751-53.106-60.348-96.551-2.64-21.048-1.479-42.475,3.537-65.466.792-3.561,1.637-7.07,2.429-10.632,2.218-9.715,4.541-19.7,5.913-29.737,1.954-14.518,1.214-30.062-2.218-47.44-5.7-28.712-13.093-50.677-23.548-69.135-12.407-22.127-30.359-34.918-53.325-38.048a155.421,155.421,0,0,0-22.333-1.565c-26.4,0-52.851,6.422-80.939,19.7-3.96,1.835-7.867,3.777-11.827,5.666-12.249,6.044-24.815,12.252-38.173,16.029a140.461,140.461,0,0,1-32.84,5.505c-2.006.108-3.96.324-5.966.54-1.294.168-2.616.352-4.02.489V236.6c3.306-.3,6.579-.879,9.881-1a138.189,138.189,0,0,0,32.365-5.45c17.423-4.857,33.315-13.925,49.735-21.588,26.4-12.467,53.536-19.915,81.784-19.915a153.247,153.247,0,0,1,22.6,1.673c24.076,3.238,42.343,16.731,54.909,39.074,12.144,21.534,18.955,45.335,23.759,69.782,3.115,15.814,4.435,31.951,2.271,48.141-1.9,13.763-5.439,27.147-8.4,40.532-4.646,21.372-6.283,42.8-3.485,64.764,5.439,42.474,25.185,74.478,59.345,94.986,8.394,5.019,16.261,7.772,23.653,7.772,10.56,0,20.222-5.559,29.3-18.188,8.711-11.928,15.681-24.988,23.231-37.617a143.356,143.356,0,0,1,60.031-55.1c16.156-8.2,33.051-14.032,49.418-21.21,26.61-11.874,43.717-32.166,48.31-63.738a274.632,274.632,0,0,0,2.745-44.633,64.855,64.855,0,0,1,1.9-17.163c2.851-11.495,9.556-18.187,20.486-20.13a74.761,74.761,0,0,1,13.411-.918h6.335c36.853-.161,64.678-36.267,58.817-76.151-3.485-23.639-12.037-45.389-20.75-67.192-6.811-16.784-14.308-33.3-19.377-51.055-5.068-17.918-5.174-35.134,5.28-51.163,5.332-8.2,12.091-14.626,19.112-20.778C884.523,5.4,889.142-1.336,896.4-4h94.127A8.9,8.9,0,0,1,994.2.617c6.494,18.4,13.569,36.429,18.69,55.373,3.8,14.14,6.706,28.5,10.243,42.745,4.065,16.73,11.352,31.14,22.6,43.392,8.184,8.959,17.054,17.216,24.763,26.553,15.892,19.645,23.019,42.744,25.29,68.109,1.372,16.3,2.587,32.6,5.438,48.573a824.063,824.063,0,0,1,12.091,101.193c.687,11.388,2.165,22.721,6.283,33.461,5.28,13.6,14.308,23.152,28.036,26.283a46.435,46.435,0,0,0,10.084,1.08c10.982,0,21.225-4.1,30.569-11.388,15.153-11.874,24.446-28.6,30.622-47.493,5.755-17.432,6.917-35.674,7.339-53.916.37-13.438.9-26.931,3.116-40.315,4.909-29.738,18-54.186,39.967-72.805,9.979-8.474,20.644-15.651,31.151-23.153,28.669-20.508,32.84-54.779,26.663-84.192-1-4.317-3.379-7.934-5.913-11.334-6.917-9.013-16.262-11.334-26.24-12.845a151.653,151.653,0,0,0-20.433-1.133c-6.071,0-12.037.216-18.057.216-1.637,0-3.273-.054-4.91-.108a96.052,96.052,0,0,1-22.492-2.968c-29.989-8.1-54.645-25.906-75.553-50.246-8.237-9.607-13.78-21.1-18.215-33.245-.854-2.311-1.564-4.523.277-6.452h45.327c2.148,1.341,3.321,3.553,4.448,5.858,5.914,11.658,12.777,22.343,22.44,30.709,18.32,15.867,39.07,20.94,60.981,20.94,4.434,0,8.923-.216,13.41-.594,13.622-1.187,27.244-2.374,40.865-3.831,8.976-1.08,17.846-2.051,26.61-4.48,6.863-2,11.615-6.314,14.2-13.654a128.016,128.016,0,0,0,5.491-24.988c.458-3.591.377-7.282,2.973-9.96h43.167a30.43,30.43,0,0,1,4.6,5.372c5.226,7.718,11.509,14.087,19.9,17.756,7.444,3.346,15.311,5.559,23.019,7.771,12.355,3.508,24.816,6.261,36.536,11.766,11.615,5.4,21.964,12.521,28.563,24.826,9.662,18.133,12.936,37.616,10.085,58.287-4.172,29.9-17.688,52.513-42.819,66.653-18.267,10.308-37.7,17.162-57.39,22.991-13.464,4.1-27.191,7.34-40.18,13.277-17.317,7.88-27.93,21.7-31.678,41.935-2.165,11.55-1.742,23.1-1.848,34.648a113.305,113.305,0,0,0,4.329,29.522c8.342,31.95,27.455,54.671,52.586,72.049,18.585,12.845,38.754,22.073,58.553,32.274,15.628,8.041,30.939,16.568,45.089,27.309,7.339,5.45,14.2,11.549,18.8,20.184V585.864a3.721,3.721,0,0,1-2.006.593c-2.164,0-3.59-2.266-5.121-3.562-10.084-9.013-20.011-18.241-29.567-27.794-17.213-17.432-32.63-36.915-47.57-56.615-12.25-15.975-24.974-31.248-39.176-45.011-14.255-13.708-28.775-26.931-42.08-41.827-11.456-12.845-20.643-27.255-28.457-42.906-10.454-20.832-15.205-43.608-19.007-66.6-1.9-11.6-3.538-23.207-7.92-34.109-3.432-8.419-9.451-13.007-17.106-13.007a20.694,20.694,0,0,0-4.752.54,39.73,39.73,0,0,0-12.619,5.234c-12.671,7.286-19.059,19.969-23.864,33.839-5.913,17-6.652,35.026-8.184,52.782-2.376,29.468-10.507,56.723-24.762,81.764-10.084,17.81-23.072,32.706-39.915,43.284-15.152,9.553-31.2,13.061-47.729,13.061a140.831,140.831,0,0,1-22.6-1.943c-15.787-2.482-27.824-11.657-32.84-29.2-2.588-8.905-3.432-18.242-3.96-27.417-.792-17.217-.9-34.379-1.9-51.6a211.124,211.124,0,0,0-11.14-56.29c-7.18-20.832-16.261-40.531-26.135-59.961-9.556-19.051-22.017-34.972-40.337-44.633-8.659-4.587-15.469-7.448-21.595-7.448-7.919,0-14.677,4.857-22.649,17.324a491.333,491.333,0,0,1-39.493,53.754c-14.52,17.162-31.045,32-48.152,46.144-15.259,12.413-28.722,26.553-37.908,45.011-5.808,11.711-10.771,23.962-16.9,35.458-12.3,23.1-28.827,40.585-52.745,49.058-16.156,5.612-32.893,9.661-49.049,15.975-27.086,10.578-48.362,28.172-58.658,58.719-5.438,16.083-8.236,32.544-5.333,49.6,2.481,14.734,8.923,27.417,17.9,38.534A576.986,576.986,0,0,1,720.867,689.7a148.038,148.038,0,0,0,14.308,21.209c8.447,10.2,18.69,16.947,31.625,16.947h1.32c19.694-.81,35.691-11.01,49.788-24.988,13.041-12.737,21.119-29.575,29.2-46.144,11.246-22.829,25.5-43.176,43.505-60.014,26.347-24.449,52.956-48.573,79.355-72.914,17.846-16.407,38.067-26.985,61.615-26.985,1.69,0,3.379.054,5.122.162,12.988.809,24.867,4.533,34.107,15.651a99.374,99.374,0,0,1,14.044,22.613c9.556,20.077,18.163,40.747,29.99,59.421,8.658,13.546,18.69,25.474,32.1,33.623,9.715,5.99,19.746,9.5,30.042,9.5a47.983,47.983,0,0,0,19.007-4.048,141.807,141.807,0,0,0,17.951-9.283c12.407-7.718,24.445-16.136,37.433-22.775,13.728-6.962,27.931-10.633,42.5-10.633a85.233,85.233,0,0,1,18.638,2c27.877,5.828,47.359,27.525,52.428,58.018,2.111,12.845,1.636,25.8.211,38.7-2.8,26.391-19.218,44.579-41.974,49.814-18.32,4.155-36.852,3.345-55.226,4.749-8.237.593-16.474-.216-24.6,1.133-20.8,3.13-38.489,12.2-51.161,31.194a132.1,132.1,0,0,0-11.668,22.4,10.5,10.5,0,0,1-4.8,5.956Zm-254,0a12.011,12.011,0,0,0,.6-1.962c5.068-30.709,13.093-60.716,20.591-90.778,7.761-30.87,18.162-60.122,41.921-81.008,19.482-17.216,41.287-28.6,66.261-31.41A30.079,30.079,0,0,1,997,599.68a22.866,22.866,0,0,1,16.474,6.8c10.665,10.363,10.665,23.693,10.137,37.239-.687,13.007-2.059,25.906-2.588,38.8-.422,13.978,1,27.9,2.957,41.827,2.693,20.832,8.289,40.639,18.954,58.5,4.314,7.1,9.415,13.824,11.853,22.147ZM994.094,602c-23.284,2.645-44.614,12.737-65.047,30.871-23.971,21.1-34,50.839-41.235,79.875l-3.537,13.924c-6.283,24.88-12.777,50.57-17,76.26h184.58c-1.953-5.127-4.963-9.823-7.814-14.356-1-1.565-2.006-3.022-2.9-4.587-9.873-16.461-16.208-35.836-19.271-59.313-1.8-13.385-3.432-27.741-2.9-42.259.264-7.07.844-14.194,1.319-21.156.422-5.828.9-11.711,1.162-17.648.581-13.87.317-26.067-9.4-35.565A21.047,21.047,0,0,0,997,601.838,25.463,25.463,0,0,0,994.094,602ZM614.027,805c-3.08-1.461-5.568-3.734-8.207-5.956a36.288,36.288,0,0,0-14.783-8.419,16.546,16.546,0,0,0-5.227-.864c-5.913,0-11.087,3.4-14.044,9.823A11.786,11.786,0,0,1,567,805H521.343a11.81,11.81,0,0,1-3.641-6.442,76.318,76.318,0,0,0-20.749-35.35c-9.029-8.959-19.694-15-30.042-21.8-10.138-6.638-20.011-13.546-28.036-22.883-12.2-14.033-18.9-31.249-23.283-49.706-4.7-19.861-6.548-40.424-10.349-60.447-3.748-19.645-10.4-37.832-22.175-53.7-10.929-14.842-23.389-27.849-36.324-40.531-15.417-15.111-33-26.877-51.637-36.537-21.293-11.067-42.487-22.338-63.048-35.05v-2.522c21.5,13.376,44.353,25.375,64,35.628,20.538,10.633,37.539,22.721,52.111,36.861,11.669,11.442,25.026,25.2,36.59,40.8,10.982,14.9,18.374,32.705,22.544,54.617,1.584,8.257,2.851,16.73,4.065,24.88,1.742,11.766,3.59,23.854,6.283,35.458,5.016,21.21,12.3,36.7,22.809,48.842,7.92,9.176,18,16.137,27.561,22.505,1.953,1.242,4.012,2.483,5.966,3.778,8.342,5.289,17,10.848,24.445,18.3,10.718,10.578,17.688,22.451,21.278,36.321a10.8,10.8,0,0,0,2.534,4.911h44.033a9.777,9.777,0,0,0,3.59-4.263c3.273-7.07,9.028-11.064,15.944-11.064a18.441,18.441,0,0,1,5.808.971,38,38,0,0,1,15.522,8.8l.792.7a33.434,33.434,0,0,0,6.758,4.857h54.382c.37-.972-.105-1.889-1.161-3.562l-.74-1.3a122.653,122.653,0,0,0-15.786-22.559c-21.595-25.744-41.974-43.014-64.043-54.455l-3.485-1.781c-4.594-2.321-9.292-4.7-14.044-6.8-23.495-10.524-39.81-29.629-49.946-58.557l-1.214-3.508c-4.647-13.169-9.4-26.769-15.048-39.721-7.339-17.378-16.948-33.03-26.24-47.332-12.776-19.752-20.485-43.176-23.495-71.564-1.9-18.4-4.065-40.1-5.386-61.957-1.584-28.064.581-54.941,6.494-79.929,2.9-12.252,5.491-25.474,4.8-39.02-1.161-22.829-6.863-39.181-17.845-51.649-8.976-10.146-19.694-15.381-31.89-15.381a52.71,52.71,0,0,0-15.1,2.428c-15.259,4.642-29.937,13.925-44.772,28.335-25.977,25.2-55.86,45.766-91.34,62.713-8.249,3.958-16.975,8.7-26.776,14.6V349.51A293.638,293.638,0,0,1,257.99,335.39c33.157-15.867,63.621-36,90.76-62.335,13.252-12.845,28.141-23.585,45.564-28.874a56.625,56.625,0,0,1,15.734-2.429c12.46,0,23.811,5.073,33.474,16.083,12.988,14.626,17.37,33.353,18.374,52.944.686,13.493-1.8,26.661-4.857,39.668-6.178,26.013-7.973,52.566-6.441,79.281,1.267,20.67,3.22,41.125,5.385,61.849,2.746,25.474,9.4,49.274,23.126,70.538,9.873,15.22,19.272,30.709,26.452,47.709,6.124,14.141,11.14,28.712,16.314,43.338,9.187,26.23,24.393,46.414,48.785,57.263,5.966,2.7,11.721,5.72,17.634,8.689,25.238,13.061,45.934,32.6,64.678,54.941a128.468,128.468,0,0,1,16.051,22.937c1.2,2.3,3.65,4.811,1.281,8.006ZM434.3,805c-5.049-1.817-10.348-2.363-15.492-3.8a39.693,39.693,0,0,0-10.771-1.565A36.534,36.534,0,0,0,389.181,805H232.059v-2.021c52.072-.049,104.334-.049,156.447-.049a38.634,38.634,0,0,1,19.535-5.451,41.515,41.515,0,0,1,11.3,1.673c2.112.594,4.225,1.026,6.336,1.4a71.987,71.987,0,0,1,9.187,2.375h49.682c.37-1.026-.158-2.051-1.689-4.1a114.839,114.839,0,0,0-27.666-27.2c-3.273-2.266-6.7-4.533-10.031-6.745-8.923-5.883-18.11-11.982-26.609-19.051-11.722-9.769-19.694-23.423-25.185-42.961-4.752-16.838-6.231-34.324-7.708-51.271l-.158-1.565c-2.323-26.337-6.283-54.293-19.641-79.983a167.982,167.982,0,0,0-15.892-24.5c-22.6-29.2-52.481-47.656-88.911-54.887-8.4-1.616-17.673-3.09-28.994-4.643v-2.2c9.823,1.377,19.643,2.866,29.416,4.733,36.008,7.124,66.42,24.988,90.126,55.643a166.694,166.694,0,0,1,16.1,24.826c13.041,25.1,17.423,52.62,19.9,80.792,1.532,17.7,3.01,35.35,7.762,52.459,4.594,16.352,11.615,31.086,24.5,41.827,11.562,9.66,24.287,17.378,36.536,25.744a116.575,116.575,0,0,1,28.14,27.74c1.464,1.977,3.445,4.483,1.23,7.413ZM251.548,768.82h-7.655a76.032,76.032,0,0,1-11.834-.625v-2.211a75.693,75.693,0,0,0,11.834.623c5.121,0,10.243.054,15.312.054,9.925,0,19.746-.107,29.566-1.079,14.256-1.4,28.511-3.292,42.239-8.042,11.615-4.209,18.742-12.791,21.752-25.906,3.432-15.435,4.224-31.194,4.857-46.845.74-15.49,1.373-30.817.423-46.36-1.426-22.074-5.544-43.068-15.734-62.335-12.514-23.423-29.989-40.315-54.013-49.005-11.509-4.1-23.125-5.127-34.846-5.127-6.652,0-13.411.324-20.116.594-.422.032-.848.078-1.274.127V520.5l1.169-.105,3.273-.108c5.649-.269,11.3-.485,16.948-.485,9.715,0,22.545.593,35.586,5.234,23.759,8.635,41.763,24.989,55.121,50.03,9.186,17.432,14.308,37.563,16,63.253.95,15.651.317,30.978-.422,46.576-.687,16.784-1.531,32-4.91,47.223-3.168,13.87-10.929,23.1-23.178,27.471-14.414,5.019-29.567,6.854-42.661,8.149-10.243.971-20.327,1.079-29.777,1.079Zm-19.49-39.728c18.38-.063,34.016-.686,49.743-5.121,24.286-6.692,39.493-23.26,46.462-50.677,6.389-25.474,6.917-47.547,1.584-67.516-8.184-31.518-26.082-50.084-53.168-55.049a62.857,62.857,0,0,0-11.721-1.025,123.046,123.046,0,0,0-23.97,2.86c-2.954.585-5.946,1.091-8.931,1.566v-2.192c2.845-.446,5.677-.927,8.508-1.478a120.5,120.5,0,0,1,24.393-2.915,69.846,69.846,0,0,1,12.091,1.026c29.672,5.5,46.99,26.445,54.857,56.614,6.019,22.829,4.065,45.983-1.584,68.65-6.97,27.417-22.544,45.28-47.94,52.3-16.558,4.607-33.389,5.079-50.324,5.123ZM940.4,725.106c-12.936-10.255-5.544-33.893,3.907-39.452a10.044,10.044,0,0,1,5.121-1.673c2.271,0,4.435,1.134,6.6,3.4,7.18,7.448,9.609,21.048,4.488,30.439-2.588,5.019-6.441,9.715-12.567,10.309A12.146,12.146,0,0,1,940.4,725.106Zm4.909-37.617c-4.8,2.86-9.134,11.6-9.661,19.807-.317,3.993.158,11.441,6.018,16.137a10.435,10.435,0,0,0,6.072,2.536c4.382-.432,7.867-3.346,10.929-9.175,4.541-8.311,2.693-20.778-4.171-27.957-1.637-1.781-3.326-2.7-5.069-2.7A8.912,8.912,0,0,0,945.309,687.488Zm292.974,14.194c-5.333-2.968-11.14-6.638-12.249-13.816-1.215-7.664-.212-15.382,4.012-22.127,3.168-4.857,6.494-9.607,10.084-14.087,12.724-15.759,27.719-27.2,47.254-29.629a57.339,57.339,0,0,1,6.706-.432v2.159a52.339,52.339,0,0,0-6.389.431c-17.106,2.105-31.784,11.281-45.933,28.82a166.8,166.8,0,0,0-9.926,13.925c-3.643,5.828-4.964,12.737-3.748,20.562,1,6.152,5.86,9.391,11.192,12.3,11.141,5.99,24.076,9.013,40.443,9.553,11.827-.431,24.234-2,34.952-10.416,20.327-16.191,19.535-44.31,11.034-57.586-7.444-11.82-17.792-17.594-31.625-17.594v-2.159c13.516,0,25.025,5.343,33.474,18.62,9.028,14.248,9.5,43.661-11.615,60.392-10.824,8.581-23.232,10.416-36.114,10.9C1265.526,711.019,1251.376,708.7,1238.283,701.682Zm163.355-21.587c-3.8-13.007-6.388-26.122-9.609-39.236-6.81-27.633-20.591-49.6-45.142-61.472-19.006-9.121-38.805-12.737-58.869-12.737a188.483,188.483,0,0,0-26.293,1.889c-15.787,2.105-30.465,8.744-45.037,15.382-10.348,4.8-20.96,8.9-32.47,9.283-18.8,0-38.12-16.191-43.03-36.106-2.693-10.956,1.056-21.317,9.767-27.794a79.6,79.6,0,0,1,20.8-10.956c28.141-10.2,49.736-29.63,66.736-55.535,11.563-17.81,22.123-36.159,32.206-54.94,5.649-10.471,10.823-21.264,18.743-29.954,3.38-3.723,6.495-5.45,9.979-5.45a17.561,17.561,0,0,1,7.919,2.32c9.134,4.749,14.837,13.493,21.013,21.372,12.672,16.353,25.448,32.543,39.176,47.817,21.013,22.937,42.925,44.957,61.245,70.754,18.849,26.769,39.6,51.7,57.6,79.065,9.24,13.979,16.051,29.306,13.727,47.332-3.8,30.493-21.594,57.694-51.9,65.249a46.79,46.79,0,0,1-11.51,1.511C1421.6,707.889,1407.393,699.793,1401.638,680.095Zm-53.853-102.65c23.548,11.388,38.7,31.95,46.3,62.928,1.109,4.426,2.112,8.852,3.115,13.277,1.954,8.474,3.96,17.27,6.441,25.8,6.706,22.829,23.548,26.284,33.052,26.284a42.94,42.94,0,0,0,10.982-1.458c27.032-6.745,46.356-31.032,50.369-63.414,1.848-14.842-2.271-28.982-13.411-45.82-10.507-15.921-22.175-31.3-33.421-46.252-8.025-10.633-16.315-21.642-24.181-32.76-14.52-20.508-31.679-38.912-48.2-56.777-4.329-4.587-8.553-9.175-12.829-13.816-14.15-15.759-27.191-32.274-39.281-47.871l-2.64-3.4c-5.069-6.692-10.3-13.6-17.74-17.486a15.655,15.655,0,0,0-6.917-2c-2.851,0-5.439,1.4-8.448,4.749-6.705,7.34-11.351,16.137-16.156,25.313l-2.218,4.209c-11.51,21.318-21.805,38.8-32.365,55.049-18.374,28.118-40.6,46.521-67.792,56.4a78.4,78.4,0,0,0-20.274,10.633c-8.078,6.044-11.4,15.543-8.976,25.528,4.7,19,23.072,34.486,40.971,34.486,11.352-.378,21.964-4.587,31.626-9.067,14.467-6.584,29.408-13.439,45.617-15.6a200.649,200.649,0,0,1,26.609-1.889C1310.088,564.492,1329.675,568.7,1347.785,577.445ZM232.059,684.438c1.288-.025,2.6-.025,3.914-.025h2.534a98.991,98.991,0,0,0,16.474-.971c28.669-5.181,46.778-28.874,45.775-60.447-.581-19.267-11.827-33.353-29.039-36.267a42.788,42.788,0,0,0-5.861-.432,60.916,60.916,0,0,0-7.655.594c-8.875,1.325-17.515,3.95-26.142,6.692V591.34c8.895-2.847,17.111-5.309,25.826-6.61a62.953,62.953,0,0,1,7.972-.593,37.374,37.374,0,0,1,6.178.485c18.11,3.022,30.2,18.08,30.834,38.318,1.056,32.652-17.635,57.208-47.518,62.659a102.666,102.666,0,0,1-16.843.972h-2.534c-1.3,0-2.629,0-3.914.027Zm536.273-14.759c-9.557-3.831-17.266-10.632-23.6-19.429-16.421-22.829-29.514-47.979-41.077-74.154-4.91-10.957-8.131-22.667-5.649-35.135,3.8-19.644,16.314-30.223,32.365-37.238,13.833-6.044,28.247-9.553,42.291-15a115.611,115.611,0,0,0,44.772-29.953c12.3-13.439,21.013-29.306,28.353-46.2,11.245-26.662,26.662-49.868,47.676-68.6,16.367-14.626,32.523-29.684,50.369-42.313,12.143-8.419,24.709-16.3,39.757-16.3h.95c16.261.216,29.777,8.149,40.6,20.292,24.656,27.795,35.8,60.879,27.455,99.682-3.538,16.353-10.93,30.277-24.763,39.29-5.7,3.669-11.352,7.177-17.265,10.47a200.418,200.418,0,0,0-50.685,39.884c-8.237,9.067-16.474,18.188-24.5,27.579-18.216,21.372-38.754,39.938-60.506,57.1-21.542,17-41.341,36.052-56.547,60.285-5.174,7.987-10.242,16.191-17.582,22.127-6.917,5.612-14.255,9.607-22.386,9.607A27.41,27.41,0,0,1,768.332,669.678ZM945.045,303.386c-15.417,11.01-29.936,23.962-43.875,36.537l-6.335,5.72c-19.905,17.648-35.322,39.884-47.148,67.84-8.607,19.969-17.741,34.81-28.723,46.792A116.571,116.571,0,0,1,773.4,490.715c-6.071,2.374-12.2,4.371-18.162,6.314a246.124,246.124,0,0,0-24.023,8.69c-18.321,7.987-27.931,19-31.151,35.673-2.006,10.255-.317,20.67,5.491,33.839,13.3,30.007,26.24,53.484,40.865,73.777,6.441,8.96,14.044,15.22,22.65,18.619a25.264,25.264,0,0,0,9.292,1.889c6.705,0,13.41-2.914,21.066-9.121,6.81-5.505,11.721-13.223,16.526-20.67l.633-.972c13.358-21.317,31.521-40.693,57.074-60.823,23.917-18.836,43.611-37.4,60.137-56.777,7.814-9.121,15.733-17.864,24.5-27.633a204.871,204.871,0,0,1,51.266-40.315c5.333-2.968,10.718-6.26,17.107-10.416,12.3-7.987,20.01-20.346,23.864-37.887,7.708-36.051-1.373-68.918-26.98-97.792-11.351-12.738-24.5-19.375-39.123-19.591h-.844C969.226,287.519,957.136,295.021,945.045,303.386ZM820.179,543.929c-3.96-6.1-2.007-11.928.633-17.81,2.851-6.368,5.755-12.575,9.926-17.972a285.063,285.063,0,0,0,43.453-80.307c6.811-19.105,16.051-36.807,29.884-51A183.025,183.025,0,0,1,948.74,343c7.92-4.209,16.262-7.448,25.238-7.987l1.372-.108a28.562,28.562,0,0,1,7.286,1.4c19.588,4.533,32.1,28.011,25.765,48.033a63.643,63.643,0,0,1-13.041,22.451c-8.659,9.715-18.163,18.35-27.191,27.579-19.747,20.346-38.226,42.151-56.124,64.44-12.829,15.921-26.5,30.6-43.664,40.909C858.51,545.872,848,550.3,836.546,551c-.634.054-1.319.054-1.9.054C829,551.053,823.821,549.434,820.179,543.929ZM974.137,337.172c-7.55.485-15.364,2.914-24.5,7.717A185.037,185.037,0,0,0,905.5,378.35c-12.249,12.683-21.858,29.09-29.356,50.246a289.578,289.578,0,0,1-43.716,80.9c-4.065,5.235-7.023,11.55-9.716,17.54-2.85,6.314-3.854,10.9-.792,15.652,2.8,4.263,6.811,6.206,12.725,6.206.581,0,1.161,0,1.742-.054,9.979-.594,19.8-4.1,30.992-10.956,18.057-10.957,31.89-26.608,43.083-40.478,21.172-26.338,38.965-46.846,56.229-64.548,3.168-3.292,6.389-6.422,9.662-9.607,5.808-5.774,11.826-11.712,17.423-17.918a60.155,60.155,0,0,0,12.619-21.641,36.758,36.758,0,0,0-3.326-28.712c-4.805-8.581-12.407-14.572-20.908-16.569l-.845-.216a23.984,23.984,0,0,0-5.966-1.079Zm383.2,205.57a439.743,439.743,0,0,1-47.359-5.828c-12.355-2.213-24.551-4.911-35.8-11.658-9.345-5.5-13.463-15.327-10.717-26.5,2.956-12.306,7.919-23.963,15.681-33.515,8.87-10.956,16.79-16.947,26.029-16.947v2.159c-7.919,0-15.206,4.857-24.393,16.191-6.917,8.527-12.091,19.483-15.258,32.6-2.482,10.093,1.109,19.106,9.661,24.179,11.14,6.692,23.548,9.283,35.163,11.388a460.3,460.3,0,0,0,47.148,5.775l1.531.054a57.036,57.036,0,0,0,10.032-1.242,9.724,9.724,0,0,0,6.283-4.1,11.728,11.728,0,0,0,1.531-8.743c-1.479-7.771-4.752-15.327-10.56-24.34a154.961,154.961,0,0,0-42.185-44.2c-7.233-5.127-13.464-7.556-18.955-7.556v-2.159c5.966,0,12.513,2.537,20.169,7.933a156.556,156.556,0,0,1,42.766,44.849c4.909,7.61,9.081,15.759,10.823,25.043,1.478,7.5-2.693,14.14-9.556,15.381a55.393,55.393,0,0,1-10.349,1.3C1358.556,542.8,1357.922,542.8,1357.341,542.741Zm-962.5-33.029c-8.131-2.536-15.416-6.854-22.439-11.928-21.7-15.813-43.347-31.572-64.941-47.6-7.549-5.612-15.047-11.55-21.118-19.051-13.78-17.27-17.318-34.54-3.221-54.023a72.743,72.743,0,0,1,13.253-13.6c22.6-17.81,46.3-33.731,67.951-52.944,9.451-8.311,19.482-15.7,31.15-19.7a20.508,20.508,0,0,1,7.023-1.242c6.81,0,12.829,3.67,17.053,10.417a31.906,31.906,0,0,1,4.224,12.2c2.746,15.112-.052,29.954-1.319,45.011-1.373,15-2.165,30.061-1.267,45.119,1.056,17.54,2.376,34.972,2.745,52.458.317,14.518-1,28.712-5.966,42.313-3.22,9.067-8.711,13.708-16.209,13.708A23.649,23.649,0,0,1,394.841,509.712Zm1.32-216.85c-12.354,4.21-22.756,12.576-30.411,19.375-13.833,12.144-28.67,23.207-43.031,33.947-8.236,6.152-16.789,12.575-25.025,19.051a67.838,67.838,0,0,0-12.83,13.115c-12.46,17.216-11.509,33.083,3.116,51.379,6.071,7.556,13.568,13.385,20.749,18.727,20.591,15.274,41.657,30.655,62.038,45.5l2.851,2.105c8.024,5.72,14.941,9.445,21.805,11.6a23.365,23.365,0,0,0,6.335,1.026c6.6,0,11.246-3.994,14.256-12.252,4.329-11.981,6.177-25.15,5.808-41.557-.264-14.086-1.215-28.334-2.112-42.258l-.634-10.147c-.792-13.169-.369-27.579,1.267-45.389.317-3.292.634-6.476,1-9.715,1.214-11.387,2.428-23.207.369-34.81a30.146,30.146,0,0,0-3.959-11.388c-3.749-6.1-9.24-9.445-15.259-9.445A19.176,19.176,0,0,0,396.161,292.862Zm130.3,179.881c-8.025-18.943-8.765-39.02-5.227-59.2,2.429-13.924,6.019-27.687,9.134-41.5a116.126,116.126,0,0,0,2.323-36,292.365,292.365,0,0,0-9.239-48.9c-6.97-25.8-13.411-51.757-24.868-75.774-3.8-7.988-8.289-15.651-14.414-21.587a78.616,78.616,0,0,0-32.312-18.134c-21.489-6.1-43.611-5.774-65.523-8.312-9.715-1.187-19.534-2.32-28.615-6.854-7.973-3.886-15.417-11.388-14.1-23.153a65.367,65.367,0,0,1,7.6-24.125c6.811-12.467,14.942-23.8,23.336-34.864C392.356,50.668,409.2,26.57,416.106-4H472.2c3.7,17.862,9.905,34.605,17.2,50.977,9.345,20.778,19.693,41.071,30.833,60.77,17.951,32.058,36.906,63.414,63.516,88.133a261.705,261.705,0,0,0,44.4,33.407c21.172,12.791,44.191,19.861,67.37,26.823,19.112,5.559,31.837,19.051,39.44,38.534,6.23,16.029,11.087,32.49,11.932,50.192.687,14.518-1.426,27.957-10.19,39.343A88.824,88.824,0,0,1,714.9,403.932c-12.989,8.15-26.452,15.327-39.7,22.883-17.265,9.661-33.209,21.371-46.832,36.645-8.976,10.2-17.845,20.67-27.191,30.6-7.867,8.366-16.948,14.3-28.51,14.9-.687.054-1.373.054-1.954.054C551.017,509.011,534.333,491.686,526.466,472.743ZM376.2,75.634c-7.867,10.47-16.156,21.911-23.072,34.541A63.926,63.926,0,0,0,345.74,133.6c-1.372,11.981,7.5,18.241,12.883,20.994,8.712,4.317,18.374,5.4,27.983,6.584,6.758.755,13.727,1.3,20.433,1.834,14.942,1.134,30.411,2.321,45.353,6.53a79.62,79.62,0,0,1,33.21,18.674c7.18,6.962,11.932,16.029,14.942,22.235,10.454,21.911,16.843,45.82,23.072,69.027l1.848,7.069a287.633,287.633,0,0,1,9.346,49.275,118.952,118.952,0,0,1-2.376,36.645c-.9,4.209-1.954,8.419-2.956,12.629-2.218,9.445-4.488,19.213-6.178,28.766-3.8,21.857-2.164,40.8,5.121,58.072,7.233,17.378,23.072,34.918,42.291,34.918.581,0,1.214,0,1.848-.054,9.821-.486,18.427-5.019,27.086-14.248,6.441-6.854,12.777-14.033,18.9-21.048,2.745-3.184,5.491-6.314,8.289-9.5,12.619-14.14,28.088-26.284,47.36-37.131,3.432-1.943,6.917-3.832,10.348-5.774,9.715-5.451,19.693-11.011,29.25-17a84.438,84.438,0,0,0,21.277-19.321c7.445-9.607,10.507-21.587,9.715-37.832-.739-15.112-4.329-30.331-11.774-49.49-7.655-19.537-20.433-32.112-38.12-37.293-21.542-6.53-45.986-13.762-67.845-26.931A274.325,274.325,0,0,1,582.273,197.5c-27.3-25.42-46.515-57.748-63.886-88.673-11.14-19.7-21.541-40.154-30.886-60.932-8.342-18.727-13.781-34.648-17.054-50.029H417.808C410.681,28.087,394.1,51.888,376.2,75.634ZM564.955,424.818a93.421,93.421,0,0,1,1.584-20.292c3.273-22.181,2.957-43.932-2.112-65.735-4.857-20.94-11.984-41.072-16.578-62.173-2.481-11.6-4.488-23.369-4.118-35.4.37-11.712,5.174-17.81,13.833-17.81a25.157,25.157,0,0,1,6.494,1.025c11.087,3.076,20.7,9.607,30.358,15.921,18.585,12.144,36.958,24.773,55.28,37.4,12.143,8.258,24.128,16.676,34.107,28.28,9.345,10.794,15.1,22.937,14.519,38.588.739,11.658-3.96,21.318-11.352,29.737-9.556,10.741-21.013,18.566-32.945,25.421-16.789,9.66-33.737,19-49.576,30.493a110.035,110.035,0,0,1-16.209,10.2,21.718,21.718,0,0,1-9.187,2.321C570.921,442.79,565.43,436.314,564.955,424.818Zm-19.112-183.5c-.37,12.089,1.741,23.854,4.065,34.81,2.428,11.118,5.6,22.181,8.659,32.867,2.745,9.5,5.6,19.375,7.919,29.306,4.91,21.21,5.649,42.96,2.112,66.544a91.755,91.755,0,0,0-1.532,19.915c.423,9.931,4.858,15.867,11.985,15.867a18.7,18.7,0,0,0,8.237-2.159,103.009,103.009,0,0,0,15.944-9.93c13.675-9.931,28.406-18.4,42.608-26.554l7.128-4.155c9.715-5.559,22.175-13.439,32.47-24.935,7.867-9.013,11.4-18.187,10.771-28.388.527-13.6-3.96-25.42-13.991-37.077-9.716-11.172-21.436-19.59-33.738-27.9-17.9-12.306-36.377-25.1-55.226-37.347l-2.059-1.4c-8.712-5.667-17.74-11.55-27.719-14.3a25.142,25.142,0,0,0-5.913-.864C550.067,225.616,546.16,230.9,545.843,241.322ZM357.355,432.1c-3.8-2.374-7.762-4.371-10.665-7.934a28.8,28.8,0,0,1-6.758-14.679,19.963,19.963,0,0,1,2.376-8.149c3.8-7.016,9.715-10.957,16.843-10.957v2.159c-6.336,0-11.51,3.4-14.995,9.823a19.008,19.008,0,0,0-2.111,6.8,25.737,25.737,0,0,0,6.23,13.546c2.165,2.7,5.069,4.425,8.078,6.314l2.059,1.241a13.329,13.329,0,0,0,6.653,2.159c6.388,0,9.873-7.609,9.926-14.734a34.9,34.9,0,0,0-3.59-15.219c-2.007-4.533-5.649-9.931-12.038-9.931l-.211-2.159h.264c6.441,0,11.035,4.642,13.886,11.28a37.088,37.088,0,0,1,3.8,16.137c-.052,8.366-4.382,16.785-12.038,16.785A14.757,14.757,0,0,1,357.355,432.1Zm786.578-41.934c-4.012-10.9-4.382-22.667-4.963-34.109-.9-17,.105-34-.9-51.109-1.583-24.5-1.214-49.058-1.214-73.561a256.9,256.9,0,0,0-3.537-39.29c-2.482-16.136-7.233-31.572-10.876-47.439-2.534-10.848-6.336-21.372-5.861-32.975.317-8.473,4.857-13.385,12.724-13.709a26.108,26.108,0,0,1,2.9-.108v2.213h-2.8c-8.448.378-10.56,6.53-10.718,11.711-.317,8.527,1.742,16.3,3.907,24.665.634,2.591,1.32,5.127,1.9,7.663,1.161,5.4,2.534,10.687,3.854,15.921a321.417,321.417,0,0,1,7.075,31.735,260.738,260.738,0,0,1,3.538,39.613v11.658c-.106,20.292-.106,41.233,1.214,61.741.581,8.959.528,18.026.528,26.769-.053,7.988-.053,16.3.317,24.395l.105,2.32c.58,10.471,1.162,21.264,4.752,31.141,3.907,10.471,10.717,16.407,18.637,16.407a20.3,20.3,0,0,0,11.51-4.048,41.3,41.3,0,0,0,12.883-15.381c5.808-11.766,7.075-24.395,7.6-35.188.265-5.019.212-9.931.158-16.191-.052-3.238-.052-6.746-.052-10.578-.9-22.4,1.426-42.906,7.022-60.878,6.97-22.235,18.532-43.662,35.375-65.681,6.388-8.312,12.777-16.407,19.165-24.665l1.954-2.536a46.77,46.77,0,0,0,5.755-10.417c4.171-10.2,2.587-14.895-7.075-21.1-3.485-2.212-7.867-3.238-11.721-3.993-23.971-5.451-47.148-14.464-66.684-22.559-17.371-7.124-31.943-12.521-48.2-12.521V97.87c17.318,0,33.157,6.206,49,12.737,21.7,8.96,43.558,17.27,66.367,22.451,4.224.864,8.658,1.889,12.354,4.21,10.876,7.016,12.3,13.168,7.92,23.854a48.042,48.042,0,0,1-6.019,10.848c-7.022,9.067-14.1,18.134-21.172,27.309-14.942,19.483-27.4,40.64-35.005,64.925-6.388,20.778-7.655,42.259-6.969,60.177,0,11.495.317,19.213,0,26.931-.634,12.521-2.323,24.718-7.92,36a43.027,43.027,0,0,1-13.516,16.245,22.162,22.162,0,0,1-12.724,4.426C1156.13,407.98,1148.369,402.1,1143.933,390.17Zm303.111-9.391c-28.4-8.311-55.543-36.322-58.5-69.891-2.376-26.445,8.025-51.864,29.989-63.414,19.9-10.525,40.759-14.9,62.09-14.9a178.726,178.726,0,0,1,25.554,1.889c13.041,2.051,24.92,8.2,37.486,12.143v128.5c-5.966,1.511-11.879,3.022-17.845,4.641-14.467,3.67-28.88,5.99-43.4,5.99A125.533,125.533,0,0,1,1447.044,380.779Zm-27.56-131.362c-20.222,10.632-31.256,34.054-28.88,61.255,3.062,34.271,31.678,60.608,57.021,68a122.164,122.164,0,0,0,34.793,4.857,168.843,168.843,0,0,0,42.871-5.936c5.386-1.35,10.823-2.807,16.262-4.21V248.175c-4.065-1.3-8.078-2.86-11.932-4.317-7.762-2.968-15.629-5.936-23.706-7.232a172.6,172.6,0,0,0-25.29-1.943C1458.238,234.683,1438.227,239.54,1419.484,249.417ZM1471.6,347.8c-12.671,0-24.551-3.13-34.688-12.035-9.081-7.934-14.52-18.026-13.728-30.871,1-13.978,8.554-23.639,20.063-28.5a58.711,58.711,0,0,1,23.337-4.8c19.429,0,39.018,9.283,52.692,25.906,8.606,10.524,7.55,23.747-.845,32.273-13.041,13.223-28.3,17.81-45.406,18.026Zm-27.508-69.351c-11.4,4.8-17.9,13.979-18.8,26.554-.687,11.28,3.537,20.832,12.935,29.2,8.87,7.664,19.8,11.495,33.368,11.495h1.426c18.427-.269,32.418-5.828,43.927-17.486,8.025-8.15,8.342-19.968.687-29.359-12.883-15.706-31.995-25.043-51.055-25.043A54.927,54.927,0,0,0,1444.088,278.452ZM666.062,216.387c-34.371-5.127-60.875-25.636-82.205-54.833-10.823-14.9-19.8-31.14-28.828-47.223-13.3-23.639-27.878-46.414-38.226-71.888C510.768,27.636,505.776,12.349,504.109-4h22.727c2.578,1.588,3.312,4.434,3.907,7.423,3.59,17.486,10.612,33.407,18.69,48.789,11.932,22.4,24.181,44.363,35.8,66.868,8.447,16.515,17.528,32.813,30.939,45.389,14.2,13.33,29.989,22.667,48.891,22.667a44.2,44.2,0,0,0,4.541-.215c14.783-1.026,27.3-7.664,36.694-20.455,11.458-15.489,15.892-33.839,18.638-52.89,2.27-15.759,3.01-31.626,4.065-47.6,1.372-21.533,4.487-42.852,7.445-64.116A10.2,10.2,0,0,1,739.521-4h49.456A131.959,131.959,0,0,1,778.2,29.868c-11.563,24.394-19.219,50.083-24.076,77.015-3.748,20.4-7.286,41.017-13.886,60.662-3.537,10.794-7.5,21.479-14.889,29.9-12.988,14.572-28.828,20.076-45.723,20.076A90.158,90.158,0,0,1,666.062,216.387ZM518.757,41.579C526.676,61.062,537.236,79.3,547.479,96.9c3.168,5.4,6.283,10.848,9.4,16.3l1.056,1.942c8.5,15.166,17.318,30.979,27.614,45.119,23.125,31.627,49.576,49.328,80.833,53.969a82.022,82.022,0,0,0,13.253,1.08c18.162,0,32.576-6.368,44.192-19.321,7.233-8.2,11.087-18.889,14.413-29.2,6.071-18.08,9.609-37.293,13.041-55.967l.792-4.317c5.174-28.766,13.094-54.131,24.234-77.555A133.1,133.1,0,0,0,786.547-2.136H740.666a7.586,7.586,0,0,0-2.112,4.263l-.475,3.508c-2.8,19.752-5.7,40.207-6.97,60.5l-.474,6.962c-.845,13.384-1.69,27.255-3.591,40.8-2.534,17.27-6.7,37.185-19.059,53.862-9.557,13.06-22.44,20.238-38.226,21.371-1.637.108-3.168.162-4.7.162-17.212,0-33.685-7.61-50.316-23.207-13.938-13.115-23.178-29.9-31.361-45.983-7.181-13.87-14.678-27.794-22.017-41.233-4.594-8.527-9.24-17.054-13.781-25.582-9.925-18.943-15.786-34.163-18.9-49.436-.634-3.184-1.267-4.965-2.9-5.99H506.455C508.039,11.086,511.841,24.687,518.757,41.579ZM809.672,190.751c-13.2,0-22.123-9.5-24.129-20.13-2.956-15.759-.9-30.6,8.606-43.554,3.38-4.641,8.025-7.07,12.883-7.07a15.993,15.993,0,0,1,9.926,3.616c11.457,9.013,17.106,21.7,18.373,36.645,1.584,19-7.655,30.493-23.811,30.493Zm-13.834-62.389c-8.606,11.766-11.3,25.474-8.236,41.827,1.689,8.9,9.345,18.457,22.07,18.457a11.326,11.326,0,0,0,1.848-.107c6.81,0,12.407-2.213,16.156-6.369,4.382-4.91,6.335-12.413,5.544-21.749-1.267-15.111-7.181-26.931-17.581-35.026a13.517,13.517,0,0,0-8.607-3.184A13.9,13.9,0,0,0,795.839,128.363ZM1396.2,183.25c-16.631-3.778-21.7-8.743-26.452-26.446a90.539,90.539,0,0,1-2.851-27.417c-.844-5.5.528-11.711,1-17.971a142.8,142.8,0,0,1,5.808-31.3c3.59-11.334,10.56-16.73,21.33-18.187a96.159,96.159,0,0,1,12.355-.81v2.159a97.584,97.584,0,0,0-12.038.755c-10.348,1.4-16.42,6.53-19.588,16.731a142.783,142.783,0,0,0-5.808,30.817c-.105,1.834-.317,3.669-.475,5.45-.528,4.318-1.056,8.42-.422,12.467a87.163,87.163,0,0,0,2.745,26.77c4.488,16.784,8.923,21.156,24.868,24.88a46.136,46.136,0,0,0,10.348,1.026c8.764,0,17.423-2.105,27.561-5.343,15.1-4.749,25.87-11.064,33.9-20.023,11.774-13.115,17.9-29.3,16.684-44.579-1.057-12.737-7.128-23.854-17.529-32.274A59.347,59.347,0,0,0,1445.567,69.1c-10.3-2.7-23.917-5.828-38.173-5.828V61.116c13.093,0,25.976,2.537,38.7,5.882a60.7,60.7,0,0,1,22.756,11.28c26.716,21.318,22.333,56.506,1.161,79.983-9.5,10.525-21.858,16.569-34.793,20.671-9.293,2.968-18.69,5.45-28.194,5.45A49.542,49.542,0,0,1,1396.2,183.25Zm-775.491-40.8c-9.292-10.74-16.156-23.531-22.017-36.807-9.4-21.048-19.588-41.5-30.517-61.633-7.075-12.9-13.146-26.446-16.948-41.126-.653-2.567-1.211-4.939.783-6.883h35.677a11.8,11.8,0,0,1,4.51,5.642,125.855,125.855,0,0,0,6.811,14.572c10.19,18.943,19.9,38.048,26.874,58.774A115.454,115.454,0,0,0,636.6,99.6c2.745,4.8,5.861,9.175,10.665,11.874a14.479,14.479,0,0,0,6.97,2c4.487,0,8.289-2.752,10.876-8.1a43.052,43.052,0,0,0,3.38-24.07,345.751,345.751,0,0,0-6.758-36,286.851,286.851,0,0,1-6.917-43.932c-.148-2.222.212-3.924,1.6-5.372h46.088c2.177,2.092,1.893,5.025,1.994,7.909.158,14.9-.528,29.845.211,44.741.845,15.6,2.271,31.194,1.584,46.684-.634,15.165-3.01,30.169-10.085,43.5-6.917,12.737-16.683,21.587-30.358,23.585a44.19,44.19,0,0,1-6.441.486C644.1,162.9,631.48,154.916,620.709,142.448ZM553.287,2.29c3.326,13.061,8.659,25.906,16.736,40.639,11.563,21.317,21.542,41.556,30.57,61.849,6.97,15.651,13.886,27.2,21.7,36.267,11.457,13.223,23.653,19.645,37.117,19.645a40.053,40.053,0,0,0,6.177-.432c11.932-1.727,21.647-9.283,28.722-22.451,6.019-11.28,9.134-24.772,9.874-42.582.527-12.252-.265-24.881-1.057-37.023-.158-3.13-.317-6.314-.527-9.445-.475-9.391-.37-19-.265-28.28.053-5.451.106-11.065.053-16.515V2.776c-.053-2.213-.158-3.778-1.056-4.911H657.615c-.581.7-.792,1.673-.687,3.346a280.953,280.953,0,0,0,6.864,43.607,352.259,352.259,0,0,1,6.81,36.268,45.467,45.467,0,0,1-3.59,25.2c-2.9,5.99-7.444,9.391-12.776,9.391a16.745,16.745,0,0,1-8.025-2.32c-5.333-3.077-8.659-7.88-11.4-12.63-4.171-6.8-7.6-14.787-10.929-24.988-7.023-20.94-17-40.478-26.716-58.449a141.162,141.162,0,0,1-6.917-14.788A8.9,8.9,0,0,0,586.6-2.136H553.234C552.495-1.219,552.653-.194,553.287,2.29Zm390.121,141.4c-11.668-5.775-20.168-15.49-26.873-27.04-5.756-10.092-10.032-20.778-10.613-32.813-.317-4.317.9-8.312,1.9-12.467C911.2,58.148,926.988,44.44,941.508,44.44a19.819,19.819,0,0,1,12.354,4.1c5.7,4.209,9.187,9.715,11.669,16.3,5.385,13.978,6.071,28.5,3.8,43.338-1.532,10.254-3.01,20.562-7.92,29.629-2.8,5.4-6.388,7.934-10.665,7.934A17.2,17.2,0,0,1,943.408,143.69ZM909.829,71.856l-.211,1.242c-.95,3.561-1.849,7.07-1.637,10.632.528,10.255,3.854,20.346,10.453,31.734,7.286,12.683,15.734,21.318,25.924,26.23a13.963,13.963,0,0,0,6.389,1.835c3.537,0,6.441-2.213,8.817-6.746,4.646-8.581,6.125-18.511,7.6-28.173l.106-.755c2.376-15.6,1.161-29.36-3.7-42.259-2.64-6.854-6.071-11.711-10.929-15.273a17.766,17.766,0,0,0-11.14-3.67C928.519,46.652,913.155,58.85,909.829,71.856ZM424.514,123.181c-5.808-1.727-10.3-8.042-10.3-14.14,0-6.53.95-8.474,8.237-16.407,5.332-5.72,11.351-8.473,17.106-8.473V86.32c-5.439,0-10.823,2.7-15.575,7.826-7.18,7.826-7.655,9.121-7.655,14.9,0,5.289,3.907,10.633,8.711,12.036a55.181,55.181,0,0,0,13.781,1.889,41.487,41.487,0,0,0,10.031-1.188,12.8,12.8,0,0,0,8.976-6.854c2.006-3.994,1.9-9.122-.317-14.3-3.8-9.068-10.349-14.3-17.951-14.3V84.162c8.077,0,15.575,5.4,19.9,15.6,4.7,11.172.317,21.588-10.137,24.124a44.1,44.1,0,0,1-10.507,1.3A56.447,56.447,0,0,1,424.514,123.181ZM255.35,96.089q-11.646-2.094-23.291-4.1V89.737L255.72,93.93a80.205,80.205,0,0,0,13.3,1.187c15.417,0,30.253-5.019,43.98-14.842a148.047,148.047,0,0,0,50.263-61.633c2.9-6.584,4.752-13.493,6.653-20.778h-61.4a19.576,19.576,0,0,0-4.964,3.777c-8.183,8.8-18.532,13.6-31.678,14.788-3.01.27-6.178.378-9.609.378-6.124,0-12.407-.432-18.479-.864l-5.227-.323a21.5,21.5,0,0,1-3.168-.27c-1.095-.09-2.226-.254-3.334-.307V12.932c2.21.067,4.453.436,6.607.583,7.867.432,15.734,1.133,23.6,1.133,3.115,0,6.283-.108,9.451-.378,11.51-1.025,21.911-5.126,30.306-14.14A21.5,21.5,0,0,1,307.46-4h65.181c-2.135,8.049-4.133,15.989-7.472,23.56-11.509,26.23-28.985,46.684-50.949,62.5-13.991,9.985-29.092,15.166-45.2,15.166A84.909,84.909,0,0,1,255.35,96.089ZM1270.173,23.068c-19.436-.913-36.311-7.968-47.089-27.068h106.861c-2.074,4-4.422,7.814-7.979,10.553a73.907,73.907,0,0,1-47.623,16.623C1272.918,23.176,1271.6,23.122,1270.173,23.068Zm.105-2.159c1.32.108,2.693.108,4.065.108A72.512,72.512,0,0,0,1320.7,4.88a24.152,24.152,0,0,0,5.808-7.016h-99.84C1236.065,12.382,1250.374,19.992,1270.278,20.909Z" transform="translate(-231.559 4.5)" fill="#fff" stroke="rgba(0,0,0,0)" stroke-miterlimit="10" stroke-width="1" opacity="0.1"/>
</svg>
