<?xml version="1.0" encoding="utf-8"?>
<!-- Generator: Adobe Illustrator 24.1.1, SVG Export Plug-In . SVG Version: 6.00 Build 0)  -->
<svg version="1.1" id="Layer_1" xmlns="http://www.w3.org/2000/svg" xmlns:xlink="http://www.w3.org/1999/xlink" x="0px" y="0px"
	 viewBox="0 0 265 220" style="enable-background:new 0 0 265 220;" xml:space="preserve">
<style type="text/css">
	.st0{opacity:0.1;fill:#FFFFFF;}
</style>
<path class="st0" d="M65.09,145.75c-7.99-12.25-19.92-18.43-35.52-18.43c-0.76,0-1.52,0.03-2.32,0.03
	c-9.44,0.47-18.69,2.76-27.26,6.72v1.49c8.56-4.06,17.84-6.41,27.32-6.86c0.76-0.07,1.52-0.07,2.25-0.07
	c14.14,0,26.11,5.2,34.34,17.8c8.04,12.5,12.45,26.98,12.74,41.84c0.38,9.98-1.76,19.53-4.18,29.05c-0.23,0.89-0.45,1.78-0.67,2.68
	h1.45c0.19-0.79,0.37-1.55,0.58-2.35c2.32-9.2,4.6-19.1,4.22-29.4C77.72,173.16,73.24,158.45,65.09,145.75z M77.19,135.64
	c-8.23-13.45-20.2-21.57-35.96-23.52c-4.9-0.67-9.85-1.01-14.8-1.01c-8.97,0-17.77,1.06-26.43,3v1.34
	c8.91-2.02,17.67-3.01,26.42-3.01c4.89-0.01,9.78,0.3,14.63,0.94c15.04,1.88,26.8,9.58,34.93,22.91
	c6.85,11.11,11.69,24.34,15.42,41.62c2.25,10.46,2.73,19.82,1.45,28.56c-0.68,4.55-1.71,9.08-2.79,13.53h1.42
	c1.08-4.41,2.08-8.86,2.76-13.37c1.42-9.75,0.55-19.46-1.49-28.98C89.6,162.93,85.14,148.6,77.19,135.64z M128.3,45.02
	c4.81,8.09,9.72,16.47,14.42,24.82c5.36,9.69,11.41,19.79,20.54,27.69c10.89,9.39,21.68,13.97,32.96,13.97c1,0,2.01-0.03,3.08-0.1
	c10.34-0.68,18.78-5,25.04-12.87c8.09-10.04,10.82-22.03,12.48-32.43c1.24-8.16,1.8-16.51,2.35-24.56l0.31-4.19
	c0.83-12.22,2.73-24.53,4.57-36.42L244.18,0h-1.41c-1.87,12.35-3.8,24.74-4.67,37.25c-0.69,9.62-1.18,19.17-2.66,28.66
	c-1.8,11.47-4.7,22.52-12.21,31.84c-5.82,7.43-14.6,11.93-24.03,12.31c-1.04,0.1-2.01,0.13-2.97,0.13
	c-12.38,0-22.72-5.62-32.02-13.65c-8.78-7.56-14.73-17.38-20.27-27.32c-7.61-13.55-15.63-26.77-23.45-40.26
	c-5.22-9.14-9.76-18.6-12.14-28.97h-1.42c2.05,9.15,5.88,18.28,12.35,29.62C122.25,34.75,125.29,39.88,128.3,45.02z M253.2,61.65
	l-0.52,2.6c-2.25,11.24-4.57,22.81-8.54,33.69c-2.18,6.21-4.7,12.64-9.44,17.58c-7.61,7.8-17.05,11.63-28.94,11.63
	c-2.91,0-5.81-0.22-8.68-0.65c-20.47-2.79-37.79-13.45-52.94-32.49c-6.74-8.51-12.52-18.03-18.09-27.16l-0.69-1.17
	c-2.04-3.28-4.08-6.56-6.15-9.81c-6.71-10.59-13.62-21.57-18.81-33.3C96.57,13.98,94.21,6.82,92.94,0h-1.4
	c1.48,8.03,4.28,15.66,7.57,23.09c6.78,15.34,16.32,29.05,25.04,43.28c5.91,9.68,11.79,19.46,18.88,28.43
	c13.97,17.58,31.33,29.92,53.84,33.01c2.94,0.43,5.91,0.66,8.89,0.68c11.07,0,21.44-3.31,29.95-12.09c4.84-5.07,7.43-11.5,9.75-18
	c4.32-11.83,6.64-24.24,9.09-36.52c2.25-11.96,5.75-23.64,10.45-34.84V23.6C259.62,35.78,255.64,48.54,253.2,61.65z M0,8v0.83
	c0.96-2.21,1.84-4.46,2.62-6.74C1.01,3.56,0,5.66,0,8z M51.12,152.76c-6.33-6.63-13.76-9.68-21.92-9.68l0,0
	c-3.48,0.04-6.95,0.53-10.3,1.46c-6.85,1.91-13.11,5.02-18.89,8.86v1.6c6.36-4.32,12.75-7.36,19.31-9.19
	c3.22-0.93,6.54-1.42,9.89-1.46l0-0.01c7.99,0,15.01,3.15,20.89,9.26c7.19,7.51,10.93,17.35,11.69,31.09
	c0.45,8.16-1.25,16.12-3.15,23.49c-0.98,3.91-1.8,7.85-2.47,11.81h1.4c0.66-3.85,1.46-7.68,2.42-11.48
	c2.01-7.83,3.63-15.76,3.18-23.88C62.49,172.84,59.62,161.57,51.12,152.76z M152.75,61.13c3.84,7.99,8.33,15.69,14.42,22.16
	c7.05,7.51,15.32,12.31,25.35,12.31c1.41,0,2.82-0.1,4.22-0.29c8.95-1.2,15.35-6.53,19.88-14.2c4.63-8.03,6.19-17.06,6.6-26.19
	c0.45-9.33-0.48-18.72-1.04-28.1c-0.48-8.93-0.04-17.9-0.14-26.83h-1.38c0.03,3.26,0,6.61-0.04,9.86
	c-0.07,5.59-0.14,11.37,0.17,17.02c0.14,1.88,0.24,3.8,0.35,5.69c0.66,7.41,0.89,14.85,0.69,22.29
	c-0.48,10.72-2.52,18.84-6.47,25.64c-4.63,7.93-11,12.48-18.81,13.52c-1.34,0.18-2.69,0.27-4.05,0.26
	c-8.82,0-16.81-3.87-24.31-11.83c-5.12-5.46-9.65-12.41-14.21-21.83c-5.91-12.22-12.45-24.4-20.02-37.23
	c-5.05-8.46-8.44-15.89-10.64-23.38h-1.44c2.58,8.44,6.23,16.52,10.87,24.03C139.92,36.15,146.59,48.46,152.75,61.13z M169.24,43.13
	c1.75,5.29,4.16,10.35,7.16,15.04c1.8,2.86,3.98,5.75,7.47,7.6c1.62,0.87,3.42,1.35,5.26,1.4c3.49,0,6.47-2.05,8.37-5.65
	c2.33-4.69,3.15-9.99,2.35-15.17c-1.07-7.36-2.56-14.65-4.46-21.84c-2.1-8.04-3.54-16.24-4.33-24.52h-1.39
	c0.81,8.37,2.26,16.67,4.37,24.82c1.89,7.13,3.37,14.37,4.43,21.67c0.79,4.94,0.02,10.01-2.21,14.49c-1.69,3.22-4.18,4.87-7.12,4.87
	c-1.59-0.03-3.16-0.45-4.57-1.2c-3.15-1.63-5.19-4.26-6.98-7.15c-2.94-4.63-5.3-9.61-7.02-14.82c-4.57-12.48-10.93-23.98-17.6-35.38
	c-1.41-2.36-2.67-4.8-3.81-7.3h-1.5c1.22,2.72,2.59,5.38,4.1,7.95C158.11,18.77,164.65,30.53,169.24,43.13z M33.2,0h-1.44
	C26.62,16.13,16.56,29.33,5.95,42.29C3.89,44.71,1.92,47.2,0,49.73v2.25c2.25-3.04,4.58-6.02,7.03-8.91
	C17.93,29.77,28.08,16.44,33.2,0z M104.78,170.05l-1.21-4.26c-4.08-13.97-8.27-28.37-15.11-41.56c-1.97-3.74-5.08-9.2-9.79-13.39
	c-6.28-5.38-13.73-9.23-21.75-11.24c-9.79-2.53-19.92-3.25-29.7-3.93c-4.39-0.33-8.96-0.65-13.38-1.1C9.16,94.04,4.45,93.54,0,92.25
	v1.33c4.45,1.26,9.08,1.77,13.67,2.29c14.35,1.53,28.84,1.33,42.91,5c7.79,1.98,15.03,5.72,21.16,10.92c4.01,3.57,6.95,8.19,9.44,13
	c7.5,14.46,11.72,30.09,16.29,45.62c2.92,9.61,4.94,19.46,6.05,29.44c0.67,6.74,0.26,13.54-1.18,20.16h1.4
	c1.43-6.66,1.83-13.5,1.16-20.29C109.8,189.66,107.75,179.72,104.78,170.05z M242,174.92c-4.98-11.73-13.31-19.85-25.83-23.2
	c-15.18-4.19-30.26-8.45-44.13-16.15c-10.36-5.68-20.11-12.42-29.08-20.11c-17.43-14.88-29.84-33.76-41.6-53.06
	c-7.29-11.86-14.07-24.08-20.19-36.59C77.12,17.47,73.59,8.95,71.13,0H69.7c2.19,8.11,5.49,16.61,10.22,26.37
	c6.12,12.51,12.93,24.82,20.23,36.68c11.38,18.62,23.96,38.08,41.84,53.38c9.08,7.73,18.9,14.53,29.32,20.31
	c14.32,7.93,30.33,12.28,44.44,16.21c11.58,3.12,19.95,10.69,24.97,22.45c4.88,11.53,7.23,20.7,7.71,29.79
	c0.3,5.74-0.27,10.59-1.77,14.8h1.44c1.58-4.64,1.98-9.63,1.71-14.86C249.26,194.48,246.08,184.57,242,174.92z M208.49,181.78
	c-6.54-6.99-14.39-12.05-22.34-17.02c-12-7.6-24.03-15.21-36.21-22.52c-6.33-3.8-12.62-7.73-19.88-9.58
	c-1.39-0.38-2.82-0.58-4.25-0.62l0,0c-5.67,0-8.82,3.67-9.06,10.72c-0.24,7.25,1.07,14.33,2.7,21.31
	c3.01,12.7,7.68,24.82,10.86,37.43c1.5,6.08,2.39,12.28,2.68,18.5h1.39c-0.29-6.32-1.2-12.62-2.72-18.79
	c-1.52-5.98-3.39-11.93-5.19-17.64c-2.01-6.43-4.08-13.09-5.67-19.79c-1.52-6.6-2.9-13.68-2.66-20.96c0.21-6.27,2.77-9.46,7.68-9.46
	c1.31,0.03,2.6,0.21,3.87,0.52c6.54,1.66,12.45,5.2,18.15,8.61l1.35,0.84c12.35,7.38,24.45,15.08,36.17,22.48
	c8.06,5,15.73,10.07,22.1,16.8c6.57,7.02,9.51,14.13,9.16,22.32c0.36,5.38-1.37,10.28-5.26,15.05h1.71
	c3.36-4.36,5.32-9.28,4.93-14.99C218.39,195.59,214.62,188.28,208.49,181.78z M38.67,71.7c3.07,0.77,6.21,1.17,9.37,1.2
	c2.32,0,4.62-0.27,6.88-0.78c6.85-1.53,9.72-7.8,6.64-14.52c-2.84-6.14-7.75-9.39-13.04-9.39l0,0l0,0v1.3
	c4.98,0,9.27,3.15,11.76,8.61c1.45,3.12,1.52,6.21,0.21,8.61c-1.23,2.19-3.4,3.71-5.88,4.13c-2.16,0.48-4.36,0.72-6.57,0.71
	c-3.04-0.03-6.07-0.41-9.03-1.14c-3.25-0.96-5.54-3.86-5.71-7.25c0-3.48,0.31-4.26,5.01-8.97c3.11-3.09,6.64-4.71,10.2-4.71v-1.3
	c-3.77,0-7.71,1.66-11.2,5.1c-4.77,4.78-5.4,5.95-5.4,9.88C32.14,67.17,34.84,70.58,38.67,71.7z M35.42,178.17
	c-2.41-3.86-6.62-6.22-11.17-6.27l-0.01-0.01c-1.56,0-3.12,0.25-4.6,0.75c-7.33,2.3-13.67,6.5-19.64,11.26v1.74
	c0.06-0.05,0.12-0.09,0.17-0.14c5.01-4.09,11.83-9.13,19.92-11.66c1.34-0.44,2.74-0.67,4.15-0.68l0.01,0.01
	c4.08,0.06,7.85,2.21,9.99,5.69c1.35,2.07,2.23,4.41,2.59,6.86c1.35,6.99,0.55,14.1-0.24,20.96c-0.24,1.95-0.45,3.87-0.66,5.85
	c-0.28,2.49-0.5,4.99-0.67,7.49h1.4c0.17-2.47,0.39-4.93,0.66-7.39c0.83-9.07,2.66-18,0.86-27.1
	C37.81,182.89,36.86,180.38,35.42,178.17z"/>
</svg>
