<svg xmlns="http://www.w3.org/2000/svg" width="40.229" height="40" viewBox="0 0 40.229 40">
  <g id="Group_3879" data-name="Group 3879" transform="translate(1931 -1782)">
    <rect id="Rectangle_2745" data-name="Rectangle 2745" width="40" height="40" transform="translate(-1931 1782)" fill="none"/>
    <path id="Path_4954" data-name="Path 4954" d="M-464.9,404.413a10.35,10.35,0,0,1,7.823-4.713A10.5,10.5,0,0,1-446,407.463a13.3,13.3,0,0,1,.326,1.575.59.59,0,0,0,.4.514,8.981,8.981,0,0,1,5.327,6.238,9.118,9.118,0,0,1-7.573,11.19,12.08,12.08,0,0,1-1.473.1c-7.452,0-14.9.061-22.354-.036a8.5,8.5,0,0,1-8.245-6.087,8.164,8.164,0,0,1,1.7-7.561,7.358,7.358,0,0,1,3.324-2.35c.308-.11.314-.321.351-.545a7.771,7.771,0,0,1,1.756-3.912,6.873,6.873,0,0,1,6.6-2.37C-465.541,404.261-465.224,404.345-464.9,404.413Zm5.261,19.95h1.257c3.172,0,6.343.021,9.515-.005a6.381,6.381,0,0,0,5.925-8.935,6.2,6.2,0,0,0-4.126-3.632,1.384,1.384,0,0,1-1.192-1.457,16.01,16.01,0,0,0-.209-1.642,7.812,7.812,0,0,0-8.572-6.231,7.46,7.46,0,0,0-5.917,3.92c-.59,1.046-1.1,1.263-2.226.791a4.432,4.432,0,0,0-2.89-.241,4.837,4.837,0,0,0-3.594,4.83c-.011.974-.32,1.412-1.259,1.62a5.2,5.2,0,0,0-3.473,2.677,5.334,5.334,0,0,0,2.446,7.652,8.793,8.793,0,0,0,3.5.65C-466.85,424.371-463.244,424.363-459.639,424.363Z" transform="translate(-1451.107 1388.344)" fill="none"/>
    <path id="Path_4956" data-name="Path 4956" d="M-48.136,1064.172a10.754,10.754,0,0,0,4.189,2.627,21.546,21.546,0,0,0,7.756,1.363,29.052,29.052,0,0,0,3.841-.268,15.594,15.594,0,0,0,7.48-2.808,5.919,5.919,0,0,0,2.57-5.061c-.048-4.848-.035-9.777-.022-14.543q0-1.516.008-3.032a5.271,5.271,0,0,0-1.563-3.8,11.562,11.562,0,0,0-5.142-2.942,23.076,23.076,0,0,0-6.883-1.036,26.394,26.394,0,0,0-4.049.322,15.987,15.987,0,0,0-6.9,2.577,6.049,6.049,0,0,0-2.833,5.43c.064,1.967.049,3.969.034,5.9-.006.84-.013,1.708-.013,2.562q0,1.307,0,2.615c0,2.082,0,4.236,0,6.354A5.219,5.219,0,0,0-48.136,1064.172Zm22.975-3.278a3,3,0,0,1-1.584,2.118,13.181,13.181,0,0,1-6.057,2.141,24.768,24.768,0,0,1-3.409.247,18.31,18.31,0,0,1-6.82-1.254,13.533,13.533,0,0,1-2.837-1.727l-.174-.127a2.325,2.325,0,0,1-.864-2.047c.012-.879.009-1.774.007-2.639q0-.558,0-1.115v-.232l.208.1A24.3,24.3,0,0,0-35.984,1059a24.18,24.18,0,0,0,10.64-2.606l.208-.1v.232c0,.415.006.846.012,1.262C-25.109,1058.8-25.094,1059.852-25.161,1060.895ZM-46,1040.525a12.56,12.56,0,0,1,3.164-1.893,18.735,18.735,0,0,1,6.86-1.176h.008a18.8,18.8,0,0,1,7.823,1.593,9.07,9.07,0,0,1,2.171,1.472,2.384,2.384,0,0,1,.885,1.783,2.2,2.2,0,0,1-.9,1.609,10.646,10.646,0,0,1-3.242,1.906,21.123,21.123,0,0,1-6.849,1.188,19.654,19.654,0,0,1-7.756-1.623,7.806,7.806,0,0,1-2.179-1.468,2.382,2.382,0,0,1-.885-1.77A2.225,2.225,0,0,1-46,1040.525Zm-.907,7.92c0-.378.009-.77.009-1.153v-.231l.208.1a24.4,24.4,0,0,0,10.712,2.621,24.176,24.176,0,0,0,10.571-2.565l.208-.1v.231c0,.413.012.827.025,1.265a18.546,18.546,0,0,1-.1,3.282,3.449,3.449,0,0,1-1.551,1.927,12.3,12.3,0,0,1-5.63,2.068,24.725,24.725,0,0,1-3.7.291,19.419,19.419,0,0,1-6.963-1.249,6.878,6.878,0,0,1-3.1-2.039,2.986,2.986,0,0,1-.652-1.5C-46.926,1050.413-46.914,1049.412-46.9,1048.445Z" transform="translate(-1875.307 750.326)" fill="#1f2430"/>
  </g>
</svg>
