<svg xmlns="http://www.w3.org/2000/svg" width="40.229" height="40" viewBox="0 0 40.229 40">
  <g id="Group_3879" data-name="Group 3879" transform="translate(1902 -1706)">
    <rect id="Rectangle_2745" data-name="Rectangle 2745" width="40" height="40" transform="translate(-1902 1706)" fill="none"/>
    <path id="Path_4954" data-name="Path 4954" d="M-464.9,404.413a10.35,10.35,0,0,1,7.823-4.713A10.5,10.5,0,0,1-446,407.463a13.3,13.3,0,0,1,.326,1.575.59.59,0,0,0,.4.514,8.981,8.981,0,0,1,5.327,6.238,9.118,9.118,0,0,1-7.573,11.19,12.08,12.08,0,0,1-1.473.1c-7.452,0-14.9.061-22.354-.036a8.5,8.5,0,0,1-8.245-6.087,8.164,8.164,0,0,1,1.7-7.561,7.358,7.358,0,0,1,3.324-2.35c.308-.11.314-.321.351-.545a7.771,7.771,0,0,1,1.756-3.912,6.873,6.873,0,0,1,6.6-2.37C-465.541,404.261-465.224,404.345-464.9,404.413Zm5.261,19.95h1.257c3.172,0,6.343.021,9.515-.005a6.381,6.381,0,0,0,5.925-8.935,6.2,6.2,0,0,0-4.126-3.632,1.384,1.384,0,0,1-1.192-1.457,16.01,16.01,0,0,0-.209-1.642,7.812,7.812,0,0,0-8.572-6.231,7.46,7.46,0,0,0-5.917,3.92c-.59,1.046-1.1,1.263-2.226.791a4.432,4.432,0,0,0-2.89-.241,4.837,4.837,0,0,0-3.594,4.83c-.011.974-.32,1.412-1.259,1.62a5.2,5.2,0,0,0-3.473,2.677,5.334,5.334,0,0,0,2.446,7.652,8.793,8.793,0,0,0,3.5.65C-466.85,424.371-463.244,424.363-459.639,424.363Z" transform="translate(-1422.107 1312.344)" fill="none"/>
    <path id="Path_4958" data-name="Path 4958" d="M-2154.605-82.813c5.438,2.455,10.2,4.612,14.569,6.6a1.878,1.878,0,0,0,.787.183,1.962,1.962,0,0,0,.821-.194c4.995-2.272,9.892-4.484,14.439-6.537.769-.347,1.085-.746,1.092-1.378.006-.662-.314-1.078-1.106-1.434-1.3-.586-2.586-1.176-3.945-1.8l-1.685-.774-.573-.263.576-.257,1.749-.78,4.134-1.845a1.3,1.3,0,0,0,.83-1.523,1.5,1.5,0,0,0-1.02-1.1c-1.331-.585-2.64-1.17-4.026-1.79l-1.638-.732-.566-.252.56-.266.289-.139c.165-.08.307-.148.45-.211l.866-.382c1.315-.579,2.675-1.178,4.015-1.76.757-.329,1.083-.74,1.089-1.374.007-.66-.314-1.075-1.106-1.433-4.541-2.047-9.416-4.249-14.308-6.485a2.232,2.232,0,0,0-.936-.224,2.222,2.222,0,0,0-.933.223c-4.817,2.2-9.74,4.429-14.37,6.519-.744.336-1.058.751-1.05,1.39s.331,1.056,1.079,1.378c1.385.6,2.787,1.214,4.144,1.811l.806.355c.139.061.272.131.425.211l.257.133.534.272-.547.243-1.691.751-4.012,1.783a1.38,1.38,0,0,0-.993,1.356,1.381,1.381,0,0,0,1.013,1.334c1.341.577,2.652,1.165,4.04,1.787q.83.372,1.681.752l.576.257-.573.263-1.682.772c-1.394.64-2.711,1.245-4.048,1.855a1.4,1.4,0,0,0-1.008,1.351A1.414,1.414,0,0,0-2154.605-82.813Zm4.335-17.786-.576-.26.577-.26,1.852-.834c1.366-.615,2.68-1.207,3.993-1.8q.669-.3,1.337-.607c1.067-.485,2.171-.987,3.265-1.464a1.575,1.575,0,0,1,.607-.126,1,1,0,0,1,.408.077c3.028,1.343,6.1,2.728,9.065,4.069l1.238.559a.475.475,0,0,1,.178.154c.015.019.033.042.058.069l.248.275-.33.169-.17.089c-.119.063-.242.129-.369.186l-2.728,1.233c-2.267,1.024-4.611,2.082-6.911,3.134a1.715,1.715,0,0,1-.719.172,1.7,1.7,0,0,1-.712-.17c-2.579-1.179-5.124-2.328-7.819-3.544Zm.356,8.532a1.032,1.032,0,0,1-.177-.111c-.035-.025-.08-.057-.14-.1l-.419-.285.46-.211,1.2-.551c1.267-.583,2.463-1.133,3.685-1.664a.81.81,0,0,1,.323-.061,1.839,1.839,0,0,1,.693.167c1.443.647,2.855,1.3,4.2,1.946a1.925,1.925,0,0,0,.843.209,1.979,1.979,0,0,0,.878-.224c1.486-.728,2.84-1.353,4.141-1.911a1.721,1.721,0,0,1,.663-.126,1.549,1.549,0,0,1,.6.11c1.14.483,2.254,1,3.434,1.538q.622.286,1.265.579l.537.245-.525.269-.275.143c-.152.08-.272.143-.4.2l-1.526.691c-2.661,1.2-5.413,2.451-8.128,3.657a1.78,1.78,0,0,1-.7.147,1.115,1.115,0,0,1-.453-.085c-2.831-1.252-5.7-2.549-8.471-3.8Zm-.29,7.68,1.173-.529c1.291-.583,2.509-1.134,3.757-1.669a.757.757,0,0,1,.3-.056,1.716,1.716,0,0,1,.649.157c1.576.7,2.974,1.335,4.274,1.948a1.884,1.884,0,0,0,.811.2,1.8,1.8,0,0,0,.782-.191c1.3-.616,2.694-1.254,4.275-1.949a1.787,1.787,0,0,1,.673-.154.863.863,0,0,1,.341.064c1.223.524,2.422,1.069,3.692,1.646l1.214.551.555.251-.548.266-.279.137c-.161.08-.3.148-.442.212l-1.754.793c-2.567,1.161-5.221,2.362-7.841,3.523a1.882,1.882,0,0,1-.736.155,1.168,1.168,0,0,1-.472-.089c-2.784-1.23-5.6-2.506-8.327-3.741l-1.657-.751a2.775,2.775,0,0,1-.283-.156c-.052-.032-.112-.067-.183-.108l-.485-.278Z" transform="translate(256.601 1817.972)" fill="#1f2430"/>
  </g>
</svg>
