<svg xmlns="http://www.w3.org/2000/svg" width="40.229" height="40" viewBox="0 0 40.229 40">
  <g id="Group_3879" data-name="Group 3879" transform="translate(1953 -1732)">
    <rect id="Rectangle_2745" data-name="Rectangle 2745" width="40" height="40" transform="translate(-1953 1732)" fill="none"/>
    <path id="Path_4954" data-name="Path 4954" d="M-464.9,404.413a10.35,10.35,0,0,1,7.823-4.713A10.5,10.5,0,0,1-446,407.463a13.3,13.3,0,0,1,.326,1.575.59.59,0,0,0,.4.514,8.981,8.981,0,0,1,5.327,6.238,9.118,9.118,0,0,1-7.573,11.19,12.08,12.08,0,0,1-1.473.1c-7.452,0-14.9.061-22.354-.036a8.5,8.5,0,0,1-8.245-6.087,8.164,8.164,0,0,1,1.7-7.561,7.358,7.358,0,0,1,3.324-2.35c.308-.11.314-.321.351-.545a7.771,7.771,0,0,1,1.756-3.912,6.873,6.873,0,0,1,6.6-2.37C-465.541,404.261-465.224,404.345-464.9,404.413Zm5.261,19.95h1.257c3.172,0,6.343.021,9.515-.005a6.381,6.381,0,0,0,5.925-8.935,6.2,6.2,0,0,0-4.126-3.632,1.384,1.384,0,0,1-1.192-1.457,16.01,16.01,0,0,0-.209-1.642,7.812,7.812,0,0,0-8.572-6.231,7.46,7.46,0,0,0-5.917,3.92c-.59,1.046-1.1,1.263-2.226.791a4.432,4.432,0,0,0-2.89-.241,4.837,4.837,0,0,0-3.594,4.83c-.011.974-.32,1.412-1.259,1.62a5.2,5.2,0,0,0-3.473,2.677,5.334,5.334,0,0,0,2.446,7.652,8.793,8.793,0,0,0,3.5.65C-466.85,424.371-463.244,424.363-459.639,424.363Z" transform="translate(-1473.107 1338.344)" fill="#1f2430"/>
  </g>
</svg>
