<svg xmlns="http://www.w3.org/2000/svg" width="80" height="80" viewBox="0 0 80 80">
  <g id="Group_3880" data-name="Group 3880" transform="translate(-1167 -2819)">
    <circle id="Ellipse_1918" data-name="Ellipse 1918" cx="40" cy="40" r="40" transform="translate(1167 2819)" fill="#fff"/>
    <g id="Group_3879" data-name="Group 3879" transform="translate(694.235 2498.206)">
      <path id="Path_4954" data-name="Path 4954" d="M509.941,354.118l12.89,6.93-12.793,7.608Z" transform="translate(-0.739 -0.143)" fill="#ff7430"/>
      <path id="Path_4955" data-name="Path 4955" d="M522.637,359.317l-12.554-7.363a2.143,2.143,0,0,0-2.167,0,2.215,2.215,0,0,0-1.083,1.906v14.727a2.215,2.215,0,0,0,1.083,1.906,2.146,2.146,0,0,0,2.167,0l12.554-7.363a2.22,2.22,0,0,0,0-3.814Zm-13.085,8.3V354.833l10.9,6.391Zm3.583-26.821a19.681,19.681,0,1,0,19.371,19.679A19.548,19.548,0,0,0,513.135,340.794Zm0,36.594a16.918,16.918,0,1,1,16.651-16.915A16.8,16.8,0,0,1,513.135,377.388Z" transform="translate(0)" fill="#1f2430"/>
    </g>
  </g>
</svg>
