<svg xmlns="http://www.w3.org/2000/svg" width="16.001" height="16.001" viewBox="0 0 16.001 16.001">
  <path id="Icon_ionic-md-settings" data-name="Icon ionic-md-settings" d="M17.452,12.176a5,5,0,0,0,.041-.8c0-.28-.041-.52-.041-.8l1.718-1.32a.367.367,0,0,0,.082-.52l-1.637-2.76a.4.4,0,0,0-.491-.16l-2.046.8a5.955,5.955,0,0,0-1.391-.8L13.4,3.7a.438.438,0,0,0-.409-.32H9.718a.438.438,0,0,0-.409.32l-.327,2.12a6.929,6.929,0,0,0-1.391.8l-2.046-.8a.383.383,0,0,0-.491.16L3.417,8.736a.483.483,0,0,0,.082.52l1.759,1.32c0,.28-.041.52-.041.8s.041.52.041.8L3.54,13.5a.367.367,0,0,0-.082.52L5.1,16.776a.4.4,0,0,0,.491.16l2.046-.8a5.954,5.954,0,0,0,1.391.8l.327,2.12a.4.4,0,0,0,.409.32h3.273a.438.438,0,0,0,.409-.32l.328-2.12a6.925,6.925,0,0,0,1.391-.8l2.046.8a.383.383,0,0,0,.491-.16l1.637-2.76a.482.482,0,0,0-.082-.52Zm-6.1,2a2.8,2.8,0,1,1,2.864-2.8A2.815,2.815,0,0,1,11.355,14.176Z" transform="translate(-3.375 -3.375)" fill="#fff"/>
</svg>
