<svg xmlns="http://www.w3.org/2000/svg" width="48" height="48"><g transform="translate(-8 -1008.495)"><circle cx="32.001" cy="1032.495" r="24" fill="#ffa40b" fill-rule="evenodd"/><path fill="#ff7712" style="line-height:normal;text-indent:0;text-align:start;text-decoration-line:none;text-decoration-style:solid;text-decoration-color:#000;text-transform:none;block-progression:tb;isolation:auto;mix-blend-mode:normal" d="M24 11.043v.004l-3.404 1.088c-.679 1.693-2.247 2.887-4.096 2.886-.861 0-1.662-.349-2.383-.812L12 14.885v13.617c-.001.258.014.509.04.756.01.098.026.194.04.29.022.154.046.307.078.456.02.091.044.18.067.27a6.975 6.975 0 0 0 .392 1.124c.038.084.071.17.112.252.092.19.193.376.3.557l.03.05c.021.037.048.07.07.106.195.313.412.612.646.9.036.045.07.09.106.133.195.232.4.457.615.672L28.078 47.65h.002a24 24 0 0 0 19.752-20.933L36 14.885l-2.113-.676c-.722.463-1.523.808-2.385.809H31.5a4.2 4.2 0 0 1-.78-.08c-.084-.017-.166-.04-.25-.061a4.19 4.19 0 0 1-.466-.148l-2.594-2.594L24 11.043z" color="#000" font-family="sans-serif" font-weight="400" transform="translate(8 1008.495)"/><path fill="#fff" d="m32.001 1019.541-3.404 1.088c-.679 1.694-2.247 2.887-4.096 2.887-.862 0-1.662-.35-2.383-.813l-2.117.676v13.617c-.016 3.803 2.923 6.418 5.98 8.118 2.967 1.65 5.847 2.34 6.02 2.38.173-.04 3.045-.73 6.008-2.38 3.053-1.7 5.992-4.316 5.992-8.12v-13.615l-2.113-.676c-.722.464-1.523.808-2.385.81H39.5c-1.846 0-3.412-1.193-4.09-2.884l-3.41-1.092zm.002 8.702 1.762 3.404 3.783.627-2.693 2.728.572 3.79-3.426-1.717-3.428 1.716.574-3.79-2.691-2.73 3.783-.624 1.764-3.404z" color="#000" font-family="sans-serif" font-weight="400" overflow="visible" style="line-height:normal;text-indent:0;text-align:start;text-decoration-line:none;text-decoration-style:solid;text-decoration-color:#000;text-transform:none;block-progression:tb;isolation:auto;mix-blend-mode:normal"/></g></svg>