<svg xmlns="http://www.w3.org/2000/svg" width="34" height="34" viewBox="0 0 34 34">
  <g id="Group_3868" data-name="Group 3868" transform="translate(-327 -3178)">
    <g id="Group_3883" data-name="Group 3883">
      <circle id="Ellipse_1317" data-name="Ellipse 1317" cx="17" cy="17" r="17" transform="translate(327 3178)" fill="#00be7e"/>
      <g id="Group_1788" data-name="Group 1788" transform="translate(336.117 3189.222)">
        <path id="Path_3149" data-name="Path 3149" d="M916.68,346.02a1.154,1.154,0,0,0-1.667,0l-8.73,9-3.813-3.932a1.153,1.153,0,0,0-1.666,0h0a1.242,1.242,0,0,0,0,1.718l4.491,4.631a1.2,1.2,0,0,0,.14.175,1.19,1.19,0,0,0,1.7,0h0a1.209,1.209,0,0,0,.14-.175l9.408-9.7A1.242,1.242,0,0,0,916.68,346.02Z" transform="translate(-900.459 -345.664)" fill="#fff"/>
      </g>
    </g>
  </g>
</svg>
