<svg xmlns="http://www.w3.org/2000/svg" width="80" height="80" viewBox="0 0 80 80">
  <g id="Group_3883" data-name="Group 3883" transform="translate(-760 -2820)">
    <circle id="Ellipse_1917" data-name="Ellipse 1917" cx="40" cy="40" r="40" transform="translate(760 2820)" fill="#fff"/>
    <path id="Path_4915" data-name="Path 4915" d="M-914.837,2800.018h17.887l7.255,14.41h-31.034Z" transform="translate(1706 62)" fill="#ffc837"/>
    <g id="Group_3818" data-name="Group 3818" transform="translate(510.99 2762)">
      <g id="Group_1538" data-name="Group 1538" transform="translate(272.01 80)">
        <path id="Path_3111" data-name="Path 3111" d="M306.566,114.123l-6.906-14.677-3.635-7.736V81.334A1.334,1.334,0,0,0,294.691,80H284.016a1.334,1.334,0,0,0-1.334,1.334V91.71l-3.64,7.739-6.906,14.677a1.334,1.334,0,0,0,1.206,1.9h32.023a1.334,1.334,0,0,0,1.2-1.9ZM285.217,92.577a1.334,1.334,0,0,0,.133-.568v-9.34h8.006v9.34a1.334,1.334,0,0,0,.133.568l2.866,6.1h-14.01Zm-9.772,20.78,5.651-12.009h16.516l5.651,12.009Z" transform="translate(-272.01 -80)" fill="#1f2430"/>
      </g>
    </g>
  </g>
</svg>
