<svg xmlns="http://www.w3.org/2000/svg" width="40.229" height="40" viewBox="0 0 40.229 40">
  <g id="Group_3881" data-name="Group 3881" transform="translate(1861 -1738)">
    <rect id="Rectangle_2745" data-name="Rectangle 2745" width="40" height="40" transform="translate(-1861 1738)" fill="none"/>
    <path id="Path_4954" data-name="Path 4954" d="M-464.9,404.413a10.35,10.35,0,0,1,7.823-4.713A10.5,10.5,0,0,1-446,407.463a13.3,13.3,0,0,1,.326,1.575.59.59,0,0,0,.4.514,8.981,8.981,0,0,1,5.327,6.238,9.118,9.118,0,0,1-7.573,11.19,12.08,12.08,0,0,1-1.473.1c-7.452,0-14.9.061-22.354-.036a8.5,8.5,0,0,1-8.245-6.087,8.164,8.164,0,0,1,1.7-7.561,7.358,7.358,0,0,1,3.324-2.35c.308-.11.314-.321.351-.545a7.771,7.771,0,0,1,1.756-3.912,6.873,6.873,0,0,1,6.6-2.37C-465.541,404.261-465.224,404.345-464.9,404.413Zm5.261,19.95h1.257c3.172,0,6.343.021,9.515-.005a6.381,6.381,0,0,0,5.925-8.935,6.2,6.2,0,0,0-4.126-3.632,1.384,1.384,0,0,1-1.192-1.457,16.01,16.01,0,0,0-.209-1.642,7.812,7.812,0,0,0-8.572-6.231,7.46,7.46,0,0,0-5.917,3.92c-.59,1.046-1.1,1.263-2.226.791a4.432,4.432,0,0,0-2.89-.241,4.837,4.837,0,0,0-3.594,4.83c-.011.974-.32,1.412-1.259,1.62a5.2,5.2,0,0,0-3.473,2.677,5.334,5.334,0,0,0,2.446,7.652,8.793,8.793,0,0,0,3.5.65C-466.85,424.371-463.244,424.363-459.639,424.363Z" transform="translate(-1381.107 1344.344)" fill="none"/>
    <g id="Group_3880" data-name="Group 3880" transform="translate(-3031.67 -138)">
      <path id="Path_4205" data-name="Path 4205" d="M377.529,492.13c.468.015.943.02,1.4.025l.4,0,.314,0c.257,0,.531,0,.838-.011.247-.006.5-.008.745-.01.38,0,.774-.007,1.164-.025.221-.01.448-.016.668-.022.24-.006.488-.013.735-.025l.27-.011c.143-.005.29-.011.438-.021l.583-.038c.472-.03.961-.061,1.443-.1.542-.047.979-.092,1.376-.142.639-.08,1.211-.169,1.748-.274a17.178,17.178,0,0,0,2.673-.711,7.184,7.184,0,0,0,1.46-.716,2.316,2.316,0,0,0,.644-.586.722.722,0,0,0,.139-.638,1.258,1.258,0,0,0-.624-.754l-.479-.279-.1.545a.6.6,0,0,0,.057.373l0,.008c.035.1.016.122-.012.15a1.014,1.014,0,0,1-.189.143,3.951,3.951,0,0,1-1.056.4,21.465,21.465,0,0,1-2.964.515c-.68.079-1.414.147-2.309.214-.64.048-1.295.085-1.927.12l-.085,0c-.439.024-.9.045-1.376.061-.8.027-1.466.049-2.159.063-.359.007-.726.009-1.08.01-.268,0-.535,0-.8.006l-.27,0c-.621,0-1.281-.026-2.016-.079-.233-.017-.471-.038-.7-.059-.212-.019-.431-.039-.648-.055-.369-.028-.747-.073-1.113-.117l-.171-.02c-.561-.067-1.054-.143-1.507-.233a7.045,7.045,0,0,1-1.112-.289.983.983,0,0,1-.245-.127.68.68,0,0,1,.222-.175,4.482,4.482,0,0,1,.766-.319,12.345,12.345,0,0,1,1.558-.358l.286-.053.129-.024.3-.056.017-.3a.408.408,0,0,0-.375-.443l-.026,0-.079-.006c-.09,0-.183-.006-.277-.006v.194h0v-.194h0a8.778,8.778,0,0,0-1.205.094,13.192,13.192,0,0,0-2.311.525,4.655,4.655,0,0,0-1.5.745,1.592,1.592,0,0,0-.519.673l-.1.057v.621l.119.081a1.368,1.368,0,0,0,.615.54,4.914,4.914,0,0,0,1.1.389,20.312,20.312,0,0,0,2.958.471c.67.064,1.348.116,2.016.156C376,492.074,376.683,492.1,377.529,492.13Z" transform="translate(808.104 1420.039)" fill="#1f2430"/>
      <path id="Path_4206" data-name="Path 4206" d="M428.49,504.492h-.036a.4.4,0,0,0-.225.068l-.011.007c-.059.04-.121.081-.183.126a8.359,8.359,0,0,1-1.86,1.025,16.537,16.537,0,0,1-2.979.853c-.738.148-1.547.271-2.473.376-.679.077-1.287.133-1.858.171-.618.042-1.249.072-1.93.092-.549.017-1.11.022-1.652.027l-.412,0h-.047c-.107,0-.213,0-.327-.007l-.173-.005c-.208-.005-.417-.008-.625-.012-.264,0-.538-.008-.805-.017-.75-.024-1.514-.063-2.253-.1l-.229-.012c-.285-.014-.6-.035-.983-.066s-.771-.065-1.148-.1l-.2-.018-.486-.045-.381-.036c-.075-.007-.155-.014-.24-.015l-.022,0a.865.865,0,0,0-.163-.018.632.632,0,0,0-.143.016l-.581.137.361.475a.589.589,0,0,0,.331.215l.012,0a20.673,20.673,0,0,0,2.032.5,28.323,28.323,0,0,0,3.095.411c.642.052,1.21.085,1.73.1l.022.033h3.3l.016-.037c.7-.026,1.459-.073,2.376-.146.624-.05,1.2-.106,1.75-.172.77-.092,1.533-.206,2.27-.34a15.408,15.408,0,0,0,2.108-.514,8.819,8.819,0,0,0,2.171-1.026,3.75,3.75,0,0,0,.956-.9,1.392,1.392,0,0,0,.266-.6l.075-.451Z" transform="translate(775.448 1405.404)" fill="#1f2430"/>
      <path id="Path_4207" data-name="Path 4207" d="M435.936,264.895a13.033,13.033,0,0,0,1.388,2.061c.746.955,1.573,1.84,2.357,2.665.128.134.26.262.388.386l.173.168.676.665-.017-.948a.644.644,0,0,0-.142-.384l-.009-.013c-.045-.063-.091-.124-.137-.186-.07-.093-.135-.181-.2-.271a24.449,24.449,0,0,1-1.387-2.277,9.568,9.568,0,0,1-.76-1.867,2.239,2.239,0,0,1,.164-1.684,6.839,6.839,0,0,1,.673-1.072,17.718,17.718,0,0,1,1.552-1.718c.743-.738,1.517-1.473,2.265-2.183l.448-.425a7.964,7.964,0,0,0,.993-1.108,6.214,6.214,0,0,0,1.213-3.471,7.664,7.664,0,0,0-.266-2.222,2.234,2.234,0,0,0-.371-.8l0,0a.454.454,0,0,0-.6-.233.451.451,0,0,0-.237.576l0,.007a5.714,5.714,0,0,1,.076,1.445,5.9,5.9,0,0,1-1.16,3.037,7.844,7.844,0,0,1-1.428,1.464l-.362.3c-.941.767-1.915,1.56-2.842,2.383a15.12,15.12,0,0,0-1.859,1.891,5.106,5.106,0,0,0-.838,1.432,2.614,2.614,0,0,0-.116,1.471A3.8,3.8,0,0,0,435.936,264.895Z" transform="translate(749.804 1627.063)" fill="#1f2430"/>
      <path id="Path_4208" data-name="Path 4208" d="M475.417,309.669a5.889,5.889,0,0,0-1.541,1.924,3.911,3.911,0,0,0-.379,2.131,4.958,4.958,0,0,0,.86,2.283c.192.281.391.562.584.833l.244.344a6.189,6.189,0,0,1,.4.647,1.377,1.377,0,0,1,.007,1.393,8.572,8.572,0,0,1-.679,1.069l-.012.015a.623.623,0,0,0-.142.294l-.057.338.329.1a.482.482,0,0,0,.137.02.5.5,0,0,0,.3-.105l0,0a9.535,9.535,0,0,0,1.467-1.125,5.232,5.232,0,0,0,.984-1.207,2.553,2.553,0,0,0,.253-2.091,5.9,5.9,0,0,0-.474-1.118c-.189-.343-.4-.669-.611-.984q-.1-.152-.2-.3a5.96,5.96,0,0,1-.457-.816,1.45,1.45,0,0,1-.006-1.227,4.475,4.475,0,0,1,.927-1.3,14.347,14.347,0,0,1,1.819-1.558c.84-.626,1.729-1.193,2.642-1.767l.015-.009a.646.646,0,0,0,.243-.216l.263-.4-.449-.172a.55.55,0,0,0-.2-.037h0a.646.646,0,0,0-.226.045l-.013,0a21.442,21.442,0,0,0-3.382,1.305A12.449,12.449,0,0,0,475.417,309.669Z" transform="translate(716.753 1577.707)" fill="#1f2430"/>
      <path id="Path_4209" data-name="Path 4209" d="M424.3,467.921a.51.51,0,0,0,.077-.451l-.085-.272h-.285l-.043,0a.478.478,0,0,0-.108.012,2.855,2.855,0,0,0-1.347.679,1.049,1.049,0,0,0-.29,1.225,1.2,1.2,0,0,0,.255.374,2.624,2.624,0,0,0,.9.572,8.669,8.669,0,0,0,1.837.493,20.371,20.371,0,0,0,2.6.247c.244.01.487.015.722.015.474,0,.94-.021,1.383-.061a18.115,18.115,0,0,0,1.9-.283c.933-.186,1.842-.45,2.609-.684l.011,0a2.054,2.054,0,0,0,.479-.194l.339-.2-.209-.335a.5.5,0,0,0-.272-.209h0l-.119-.051c-.113-.049-.221-.095-.326-.144a10.409,10.409,0,0,1-1.126-.632.95.95,0,0,0-.824-.12,3.447,3.447,0,0,1-.364.083l-.034.007a15.968,15.968,0,0,1-1.687.218c-.687.058-1.406.1-2.136.113-.183,0-.375.006-.57.006-.789,0-1.563-.033-2.282-.069a3.071,3.071,0,0,1-.76-.137.831.831,0,0,1-.242-.108.044.044,0,0,1-.017-.084Z" transform="translate(761.46 1437.879)" fill="#1f2430"/>
      <path id="Path_4210" data-name="Path 4210" d="M428.795,437.669l-.631-.188a2.622,2.622,0,0,1-.86-.451c-.058-.045-.115-.092-.172-.138l-.114-.092a.81.81,0,0,0-.51-.183.853.853,0,0,0-.152.014c-.34.061-.712.121-1.139.184-.528.078-1.068.144-1.65.2-.407.041-.824.072-1.227.1l-.051,0c-.665.05-1.361.085-2.128.108-.287.008-.57.013-.839.013-.457,0-.9-.012-1.323-.036a8.05,8.05,0,0,1-1.411-.181,1.242,1.242,0,0,1-.509-.22.177.177,0,0,1-.034-.034.186.186,0,0,1,.018-.05.432.432,0,0,1,.057-.09l.129-.154.068-.082.617-.741-.958.107a3.172,3.172,0,0,0-1.63.7,1.547,1.547,0,0,0-.463.722.98.98,0,0,0,.326,1.083,1.664,1.664,0,0,0,.322.206,4.987,4.987,0,0,0,1.161.4,20.288,20.288,0,0,0,3.222.407c.551.035,1.1.05,1.556.061.269.006.622.013.975.013.422,0,.8-.01,1.144-.031.554-.033,1.05-.079,1.516-.141a21.126,21.126,0,0,0,2.381-.454l.033-.008c.486-.123.988-.25,1.479-.416l.021-.007a.71.71,0,0,0,.305-.171Z" transform="translate(768.685 1465.346)" fill="#1f2430"/>
      <path id="Path_4211" data-name="Path 4211" d="M391.9,406.919a7.756,7.756,0,0,0,1.672.392c.781.109,1.592.191,2.412.246.682.045,1.488.093,2.29.107h.074c.066,0,.128,0,.187.005.208.014.426.021.665.021.187,0,.384,0,.621-.013.678-.025,1.408-.056,2.146-.113l.251-.019c.327-.025.665-.05,1-.083.567-.056,1.135-.121,1.616-.176.521-.061,1.079-.127,1.628-.2.439-.059.882-.124,1.312-.188l.372-.055a1.225,1.225,0,0,0,.487-.162c.24-.15.481-.3.722-.445l.47-.289.014-.008a.65.65,0,0,0,.258-.243l.3-.512-.59-.07a1,1,0,0,0-.115-.007,1.238,1.238,0,0,0-.206.019h-.007l-.23.037c-.157.026-.314.051-.472.074l-.113.017c-.441.065-.9.132-1.346.192-.351.047-.711.088-1.058.127l-.077.009c-.272.031-.55.059-.819.087l-.121.012-.289.03c-.269.028-.547.058-.819.081-.231.02-.469.036-.7.052s-.476.034-.715.054c-.548.047-1.131.093-1.716.105-.562.012-1.064.018-1.533.018-.861,0-1.633-.02-2.362-.06-.694-.039-1.26-.091-1.78-.165a2.636,2.636,0,0,1-.574-.132,1.612,1.612,0,0,1,.269-.17,7.526,7.526,0,0,1,1.05-.44c.431-.15.883-.277,1.32-.4l.134-.038.012,0a.59.59,0,0,0,.369-.213l.49-.627h-.8l-.1,0-.109,0a1.464,1.464,0,0,0-.155.007c-.5.052-.943.116-1.357.2a16.76,16.76,0,0,0-2.787.788,7.02,7.02,0,0,0-1.316.64,1.337,1.337,0,0,0-.451.433.6.6,0,0,0,.086.774A1.267,1.267,0,0,0,391.9,406.919Z" transform="translate(788.372 1493.105)" fill="#1f2430"/>
      <path id="Path_4212" data-name="Path 4212" d="M529.641,401.77l.007.447.441-.07.074-.012a3.515,3.515,0,0,1,.44-.053c.093,0,.193-.006.289-.006s.163,0,.234.007a2.948,2.948,0,0,1,.742.14,1.511,1.511,0,0,1,1,1.666,2.521,2.521,0,0,1-.425,1.115,7.307,7.307,0,0,1-1.52,1.623,13.593,13.593,0,0,1-1.711,1.2c-.058.035-.116.073-.182.116l-.1.065-.872.563,1.028.147a.837.837,0,0,0,.119.009.935.935,0,0,0,.324-.063l.04-.013a12.212,12.212,0,0,0,2.823-1.186,6.655,6.655,0,0,0,2.029-1.741,3.14,3.14,0,0,0,.682-1.642,2.621,2.621,0,0,0-.388-1.67,3.366,3.366,0,0,0-1.744-1.353,3.531,3.531,0,0,0-1.221-.215h0a4.376,4.376,0,0,0-1.142.161,2.222,2.222,0,0,0-.745.353A.476.476,0,0,0,529.641,401.77Z" transform="translate(669.22 1495.66)" fill="#1f2430"/>
    </g>
  </g>
</svg>
