<svg id="Group_12208" data-name="Group 12208" xmlns="http://www.w3.org/2000/svg" width="18.986" height="18.923" viewBox="0 0 18.986 18.923">
  <g id="Group_6675" data-name="Group 6675">
    <g id="Group_6674" data-name="Group 6674">
      <path id="Path_18851" data-name="Path 18851" d="M9.461,18.2h-7.1a.789.789,0,0,1-.788-.788V3.215a.789.789,0,0,1,.788-.788h7.1a.788.788,0,0,0,0-1.577h-7.1A2.368,2.368,0,0,0,0,3.215V17.407a2.368,2.368,0,0,0,2.365,2.365h7.1a.788.788,0,1,0,0-1.577Z" transform="translate(0 -0.85)" fill="#fff"/>
    </g>
  </g>
  <g id="Group_6677" data-name="Group 6677" transform="translate(6.308 3.942)">
    <g id="Group_6676" data-name="Group 6676">
      <path id="Path_18852" data-name="Path 18852" d="M182.543,112.122l-4.794-4.731a.788.788,0,1,0-1.107,1.123l3.426,3.381h-9.18a.788.788,0,0,0,0,1.577h9.18l-3.426,3.381a.788.788,0,1,0,1.107,1.123l4.794-4.731a.788.788,0,0,0,0-1.123Z" transform="translate(-170.1 -107.165)" fill="#fff"/>
    </g>
  </g>
</svg>
