<svg xmlns="http://www.w3.org/2000/svg" width="45" height="45" viewBox="0 0 45 45">
  <g id="Group_6545" data-name="Group 6545" transform="translate(-590 -165)">
    <g id="Group_6841" data-name="Group 6841">
      <g id="Group_3131" data-name="Group 3131" transform="translate(590 165)">
        <circle id="Ellipse_1406" data-name="Ellipse 1406" cx="22.5" cy="22.5" r="22.5" fill="#e8e3ff"/>
      </g>
      <path id="Path_6189" data-name="Path 6189" d="M49.468,323.474l-.026,0,0,0a3.167,3.167,0,0,0-2.394,1.432,44.723,44.723,0,0,0-4.2,7.161c-.923,1.9-2.47,5.362-2.47,7.126a2.2,2.2,0,0,0,1.925,2.452,2.044,2.044,0,0,0,.263.016c.079,0,.16,0,.239-.012a15.288,15.288,0,0,0,5.652-2.067,2.1,2.1,0,0,1,2.014,0l.387.2c2.161,1.105,5.424,2.779,7.054,1.247a2.5,2.5,0,0,0,.643-1.832c-.329-3.956-4.578-11.515-6.667-14.287A3.174,3.174,0,0,0,49.468,323.474Z" transform="translate(563.042 -145.416)" fill="#9686e0"/>
    </g>
  </g>
</svg>
