<svg xmlns="http://www.w3.org/2000/svg" width="50" height="50" viewBox="0 0 50 50">
  <g id="Group_6389" data-name="Group 6389" transform="translate(-590 -165)">
    <g id="Group_4979" data-name="Group 4979">
      <g id="Group_3131" data-name="Group 3131" transform="translate(590 165)">
        <circle id="Ellipse_1406" data-name="Ellipse 1406" cx="25" cy="25" r="25" fill="#e5f9f2"/>
      </g>
    </g>
    <path id="Path_6229" data-name="Path 6229" d="M69.861,23.55a.8.8,0,0,1-.8-.806.793.793,0,0,1,.077-.341L76.081,7.66,76.088.8a.8.8,0,0,1,.8-.8h7.021a.8.8,0,0,1,.8.8V7.626l2.4,5.122L91.655,22.4a.8.8,0,0,1-.723,1.147ZM77.692,7.823a.813.813,0,0,1-.082.341l-1.887,4.021,9.287.1L83.188,8.164a.8.8,0,0,1-.08-.343V1.676L77.7,1.6Z" transform="translate(534.602 178.187)" fill="#1ac48b"/>
  </g>
</svg>
