<svg xmlns="http://www.w3.org/2000/svg" width="150" height="60" viewBox="0 0 150 60">
  <g id="Group_3894" data-name="Group 3894" transform="translate(-151 -3288)">
    <rect id="Rectangle_2745" data-name="Rectangle 2745" width="150" height="60" transform="translate(151 3288)" fill="none"/>
    <g id="Group_3884" data-name="Group 3884" transform="translate(191 3292)">
      <path id="Path_4059" data-name="Path 4059" d="M-4145.559-3337.093l23.47,17.057-1.424,4.3c-.132-.089-.222-.146-.307-.208q-8.846-6.411-17.692-12.82a1.045,1.045,0,0,1-.347-.41q-1.824-3.812-3.653-7.62c-.04-.083-.071-.171-.106-.256Z" transform="translate(4156.539 3343.874)" fill="#1f2430"/>
      <path id="Path_4060" data-name="Path 4060" d="M-3364.477-3337.291c-.129.271-.256.542-.387.813q-1.688,3.5-3.374,7a1.237,1.237,0,0,1-.406.484q-8.8,6.386-17.6,12.778c-.093.068-.188.132-.324.226l-1.426-4.3,23.465-17.066Z" transform="translate(3423.4 3344.125)" fill="#1f2430"/>
      <path id="Path_4061" data-name="Path 4061" d="M-3976.555-3008.42c-.1.005-.207.014-.31.014q-3.309,0-6.619,0a.9.9,0,0,1-.566-.179q-2.568-1.874-5.146-3.734a.986.986,0,0,1-.324-.389q-1.817-3.8-3.639-7.591c-.044-.092-.078-.189-.116-.284l.054-.045,16.689,12.126Z" transform="translate(4009.119 3037.633)" fill="#1f2430"/>
      <path id="Path_4062" data-name="Path 4062" d="M-3330.7-3008.471c.166-.208,16.373-12,16.753-12.2-.033.093-.05.16-.08.221q-1.86,3.863-3.728,7.723a1.018,1.018,0,0,1-.306.359q-2.577,1.887-5.162,3.763a.763.763,0,0,1-.476.157q-3.356-.006-6.713,0C-3330.5-3008.448-3330.591-3008.462-3330.7-3008.471Z" transform="translate(3367.955 3037.675)" fill="#1f2430"/>
      <path id="Path_4063" data-name="Path 4063" d="M-2933.482-3544.656l2.783,5.755-8.467,6.124c-.031-.024-.041-.029-.046-.037a.037.037,0,0,1,0-.029c.032-.079.063-.159.1-.237q2.774-5.764,5.55-11.527C-2933.559-3544.621-2933.533-3544.627-2933.482-3544.656Z" transform="translate(2989.125 3544.729)" fill="#1f2430"/>
      <path id="Path_4064" data-name="Path 4064" d="M-4121.436-3534.978l-8.441-6.117,2.819-5.828,5.692,11.881Z" transform="translate(4141.305 3546.923)" fill="#1f2430"/>
      <path id="Path_4065" data-name="Path 4065" d="M-3541.606-2421.194l-4.62-3.349,4.62-3.373,4.637,3.373Z" transform="translate(3576.516 2464.079)" fill="#1f2430"/>
      <path id="Path_4066" data-name="Path 4066" d="M-3744.793-2568.644l4.637-3.373,2.783,2-1.773,5.452Z" transform="translate(3768.666 2603.523)" fill="#1f2430"/>
      <path id="Path_4067" data-name="Path 4067" d="M-3287.04-2572.006l4.637,3.372-5.63,4.082-1.756-5.453Z" transform="translate(3328.367 2603.513)" fill="#1f2430"/>
      <path id="Path_4068" data-name="Path 4068" d="M-3582.825-2123.981v-5.1c.1-.01.19-.027.281-.028,1.162,0,2.324-.01,3.487.006a4.254,4.254,0,0,1,.955.132,1.3,1.3,0,0,1,.979,1.012,1.845,1.845,0,0,1,.022.894,1.335,1.335,0,0,1-.79.959l-.31.136,1.25,1.976a1.472,1.472,0,0,1-.241.046c-.517,0-1.033-.006-1.55.006a.378.378,0,0,1-.377-.235c-.3-.535-.609-1.063-.923-1.607h-.921v1.764A7.1,7.1,0,0,1-3582.825-2123.981Zm1.874-3.019c.475,0,.934,0,1.392,0a1.35,1.35,0,0,0,.286-.038c.267-.061.377-.2.358-.447a.378.378,0,0,0-.427-.38c-.45-.008-.9,0-1.351,0-.083,0-.165.014-.259.023Z" transform="translate(3611.932 2174.931)" fill="#1f2430"/>
      <path id="Path_4069" data-name="Path 4069" d="M-2898.067-2123.964v-5.115c.1-.01.2-.025.289-.025,1.161,0,2.322-.009,3.483.005a3.871,3.871,0,0,1,.922.125,1.422,1.422,0,0,1,1.107,1.412,1.426,1.426,0,0,1-.834,1.44c-.095.048-.192.092-.314.15l1.219,1.982a1.463,1.463,0,0,1-.239.048c-.516,0-1.032-.006-1.548.006a.373.373,0,0,1-.374-.236c-.292-.538-.595-1.07-.9-1.611h-.976v1.819Zm1.857-3.9v.823a.442.442,0,0,0,.109.036c.451,0,.9.011,1.353,0a1.043,1.043,0,0,0,.4-.1.328.328,0,0,0,.18-.4c-.054-.262-.118-.346-.342-.35C-2895.068-2127.87-2895.626-2127.863-2896.21-2127.863Z" transform="translate(2949.304 2174.927)" fill="#1f2430"/>
      <path id="Path_4070" data-name="Path 4070" d="M-3136.624-2129.118a4.477,4.477,0,0,1-1.868-.371,2.61,2.61,0,0,1-1.428-2.662,2.92,2.92,0,0,1,.342-1.1,2.7,2.7,0,0,1,1.932-1.267,5.487,5.487,0,0,1,2.588.065,2.4,2.4,0,0,1,1.878,1.837,2.7,2.7,0,0,1-.043,1.526,3.268,3.268,0,0,1-.395.729,2.982,2.982,0,0,1-2.541,1.217C-3136.3-2129.137-3136.438-2129.128-3136.624-2129.118Zm1.6-2.75c0-.1-.006-.194-.015-.29a1.376,1.376,0,0,0-1.017-1.24,1.455,1.455,0,0,0-1.642.511,1.689,1.689,0,0,0-.3,1.223,1.477,1.477,0,0,0,2.147,1.241A1.4,1.4,0,0,0-3135.027-2131.868Z" transform="translate(3183.362 2180.281)" fill="#1f2430"/>
      <path id="Path_4071" data-name="Path 4071" d="M-2466.451-2128.546h5.356v1.171c-.383,0-.765.006-1.147.007-.4,0-.8,0-1.194,0h-1.174v.8h3.214v1.179h-3.207v.766c.393,0,.787.006,1.18.008s.774,0,1.162,0h1.231a9.494,9.494,0,0,1,.01,1.157c-.268.079-5.1.09-5.424.021C-2466.513-2123.681-2466.524-2128.181-2466.451-2128.546Z" transform="translate(2531.685 2174.384)" fill="#1f2430"/>
      <path id="Path_4072" data-name="Path 4072" d="M-4483.458-2129.222h1.786c.007.127.019.24.019.354q0,1.194,0,2.389c0,.1,0,.194,0,.291a.974.974,0,0,0,.626,1.025,1.3,1.3,0,0,0,1.418-.224,1.23,1.23,0,0,0,.3-.959c.008-.828,0-1.657,0-2.486,0-.117,0-.234,0-.344a8.334,8.334,0,0,1,1.85-.034,1.954,1.954,0,0,1,.033.265c-.008.968-.015,1.936-.033,2.9a3.823,3.823,0,0,1-.085.638,1.6,1.6,0,0,1-1.082,1.221,5.044,5.044,0,0,1-1.872.278,5.506,5.506,0,0,1-1.5-.149,4.007,4.007,0,0,1-.514-.186,1.529,1.529,0,0,1-.972-1.441c-.03-1.14-.01-2.281-.01-3.421A.565.565,0,0,1-4483.458-2129.222Z" transform="translate(4483.5 2175.06)" fill="#1f2430"/>
      <path id="Path_4073" data-name="Path 4073" d="M-3482.614-2623.012a2.547,2.547,0,0,1,2.565-2.552,2.57,2.57,0,0,1,2.583,2.581,2.592,2.592,0,0,1-2.595,2.546A2.569,2.569,0,0,1-3482.614-2623.012Z" transform="translate(3514.962 2655.341)" fill="#1f2430"/>
      <path id="Path_4074" data-name="Path 4074" d="M-4193.6-2131.023l1.761-.073a1.132,1.132,0,0,0,1.3.556c.137-.027.276-.048.409-.088a.386.386,0,0,0,.3-.37.346.346,0,0,0-.285-.346c-.332-.088-.668-.16-1-.234s-.674-.135-1.008-.217a2.374,2.374,0,0,1-.481-.176,1.4,1.4,0,0,1-.067-2.451,2.764,2.764,0,0,1,.684-.274,4.293,4.293,0,0,1,1.791-.058c.254.044.511.072.767.106a1.521,1.521,0,0,1,1.292,1.313,3.038,3.038,0,0,1-.849.076c-.289.018-.579.034-.887.051-.295-.557-.813-.448-1.3-.426a.364.364,0,0,0-.092.029c-.147.049-.3.106-.3.29a.339.339,0,0,0,.259.332,3.713,3.713,0,0,0,.428.139c.574.138,1.15.269,1.725.4.021,0,.042.008.063.013a1.241,1.241,0,0,1,1.029.906,1.524,1.524,0,0,1-.4,1.487,1.826,1.826,0,0,1-.829.479,5.812,5.812,0,0,1-2.9.092,1.7,1.7,0,0,1-1.374-1.3A2.315,2.315,0,0,1-4193.6-2131.023Z" transform="translate(4202.967 2180.457)" fill="#1f2430"/>
      <path id="Path_4075" data-name="Path 4075" d="M-3903.739-2124.171l2.228-5.161c.5,0,.984,0,1.467,0,.2,0,.45-.048.595.048s.2.344.276.53q.909,2.1,1.813,4.2c.045.1.082.213.129.337a.686.686,0,0,1-.148.043c-.548,0-1.1,0-1.645.007a.232.232,0,0,1-.259-.186c-.062-.2-.138-.405-.213-.621h-1.933c-.067.2-.142.408-.208.62-.031.1-.073.181-.192.182C-3902.44-2124.17-3903.051-2124.171-3903.739-2124.171Zm2.745-2.055a2.505,2.505,0,0,0,1.079-.025l-.523-1.489-.061,0Z" transform="translate(3922.475 2175.155)" fill="#1f2430"/>
      <path id="Path_4076" data-name="Path 4076" d="M-2688.052-2131.476l1.7.173a2.12,2.12,0,0,1-1.239,1.522,4.2,4.2,0,0,1-2.271.313c-.267-.032-.531-.08-.8-.113a2.453,2.453,0,0,1-2.216-2.443,3.051,3.051,0,0,1,.122-1.019,2.416,2.416,0,0,1,1.423-1.571,4.974,4.974,0,0,1,2.279-.321,4.172,4.172,0,0,1,1.261.245,2.194,2.194,0,0,1,1.3,1.177,1.839,1.839,0,0,1,.056.189c-.555.149-1.114.215-1.68.325a1.306,1.306,0,0,0-.844-.706,1.635,1.635,0,0,0-1.014.035,1.465,1.465,0,0,0-.968,1.578,1.409,1.409,0,0,0,1.017,1.408A1.568,1.568,0,0,0-2688.052-2131.476Z" transform="translate(2750.748 2180.582)" fill="#1f2430"/>
      <path id="Path_4077" data-name="Path 4077" d="M-3310.042-2127.13v1.167c-.951.024-1.892,0-2.875.015-.03.6.006,1.2-.023,1.825-.608.04-1.193.019-1.77.015-.073-.256-.1-4.633-.036-5.106.224-.065,4.469-.087,4.946-.022v1.141c-.108.007-.221.02-.333.021-.807,0-1.613,0-2.42,0-.115,0-.231.01-.358.016v.927Z" transform="translate(3352.551 2175.089)" fill="#1f2430"/>
      <path id="Path_4078" data-name="Path 4078" d="M-3681.979-2128.513h1.776c.072.267.082,4.771.009,5.127-.587.043-1.181.016-1.765.018C-3682.03-2123.643-3682.043-2128.133-3681.979-2128.513Z" transform="translate(3707.922 2174.352)" fill="#1f2430"/>
      <path id="Path_4079" data-name="Path 4079" d="M-4287.229-2009.287c0-.344,0-.676,0-1.008,0-.084.011-.168.018-.275h1.652c.032.42.013.844.011,1.26A5.174,5.174,0,0,1-4287.229-2009.287Z" transform="translate(4293.573 2060.221)" fill="#1f2430"/>
      <path id="Path_4080" data-name="Path 4080" d="M-4009.742-2011.364v1.291c-.553.024-1.093.019-1.626,0a3.754,3.754,0,0,1-.025-1.311A6.726,6.726,0,0,1-4009.742-2011.364Z" transform="translate(4026.694 2061.047)" fill="#1f2430"/>
    </g>
  </g>
</svg>
