<svg xmlns="http://www.w3.org/2000/svg" width="150" height="60" viewBox="0 0 150 60">
  <g id="Group_3894" data-name="Group 3894" transform="translate(-520 -3284)">
    <rect id="Rectangle_2745" data-name="Rectangle 2745" width="150" height="60" transform="translate(520 3284)" fill="none"/>
    <g id="Group_3888" data-name="Group 3888" transform="translate(531 3298)">
      <path id="Path_4028" data-name="Path 4028" d="M-1520.755-598.31v-.189c0-2.317-.01-4.634,0-6.95.033-6.47.005-12.941.011-19.411,0-.16.028-.212.2-.212,3.2.008,6.408,0,9.611.016,1.526.009,3.053-.018,4.579.017a13.977,13.977,0,0,1,5.775,1.4,13.746,13.746,0,0,1,3.954,2.826,12.929,12.929,0,0,1,3.649,7.119,12.91,12.91,0,0,1-3.358,11.171,13.774,13.774,0,0,1-7.717,4.29,14.2,14.2,0,0,1-2.009.248c-.168.009-.2-.041-.2-.2q.006-6.326,0-12.653,0-6.933,0-13.866v-.2l-.034-.008-.465.878-8.049,15.244q-2.837,5.374-5.671,10.751a.276.276,0,0,1-.289.176c-.809-.009-1.619,0-2.429,0l-10.1.007c-.555,0-1.11,0-1.665.006-.11,0-.164-.025-.145-.142a.554.554,0,0,0,0-.087V-625.25l.032-.011,14.273,26.955Z" transform="translate(1535.097 625.554)" fill="#1f2430"/>
      <path id="Path_4029" data-name="Path 4029" d="M-251.344-615.854q-.022.591-.045,1.182c-.049,1.315-.06,2.631-.073,3.947-.008.779-.027,1.558-.013,2.338a2.369,2.369,0,0,0,.027.31.662.662,0,0,0,.688.582q.362.036.723.077c.092.01.194.019.209.139a.523.523,0,0,1-.071.43c-.036.043-.1.018-.15.016-.849-.036-1.7-.052-2.548-.027-.254.007-.508.014-.762.032-.172.012-.225-.088-.244-.226-.032-.222.025-.337.185-.364a4.321,4.321,0,0,0,.59-.13.567.567,0,0,0,.4-.434,6.289,6.289,0,0,0,.131-1.063c.111-1.577.209-3.154.275-4.734.029-.686.054-1.373.046-2.06a2.467,2.467,0,0,0-.051-.481c-.111-.53-.5-.705-.98-.779-.3-.046-.357-.12-.332-.4.017-.185.067-.235.251-.223.831.058,1.664.036,2.5.039a4.119,4.119,0,0,0,.726-.028c.116-.02.109.069.128.122q.295.83.58,1.663c.442,1.288,1.036,2.513,1.564,3.765.235.557.455,1.12.683,1.68.025.063.058.122.088.187.076-.035.089-.1.11-.157.915-2.338,1.872-4.659,2.745-7.014.1-.259.281-.348.6-.353.705-.012,1.411-.012,2.116-.021q.416-.005.831-.028a.186.186,0,0,1,.211.157c.08.267-.02.411-.294.442a4.288,4.288,0,0,0-.819.131.8.8,0,0,0-.593.731,12.383,12.383,0,0,0-.029,1.558c.006,1.218.017,2.437.042,3.655.018.882.06,1.764.1,2.646a1.951,1.951,0,0,0,.057.375.656.656,0,0,0,.68.568q.285.019.57.044c.192.017.24.1.225.361-.011.184-.059.231-.246.224-1.086-.039-2.173-.043-3.259-.036-.289,0-.577.025-.865.035-.171.006-.242-.067-.257-.249-.017-.221.046-.317.219-.341.154-.021.308-.043.461-.07.42-.075.563-.235.568-.668.007-.716,0-1.432,0-2.148q0-.858-.011-1.715c-.01-.987-.024-1.974-.034-2.962,0-.31,0-.62,0-.93l-.052-.008-.322.77c-1.093,2.6-2.087,5.242-3.04,7.9a.228.228,0,0,1-.273.181c-.3-.019-.362-.061-.462-.334-.48-1.316-1.056-2.592-1.6-3.88-.608-1.431-1.228-2.857-1.81-4.3-.018-.046-.044-.088-.066-.132Z" transform="translate(298.093 618.414)" fill="#1f2430"/>
      <path id="Path_4030" data-name="Path 4030" d="M492.279-535.487v1.82c0,.04,0,.081,0,.121.009.613.209.826.822.88.069.006.137.022.206.025.111.005.2.022.231.156a.448.448,0,0,1-.065.393c-.03.039-.075.039-.125.036-.843-.049-1.686-.068-2.53-.05-.462.01-.924.022-1.385.048a.182.182,0,0,1-.217-.141.309.309,0,0,1,.259-.459c.153-.026.309-.044.461-.076a.625.625,0,0,0,.571-.671c.013-.247.009-.495.01-.742q0-1.811,0-3.623c0-.562-.13-.683-.692-.655-.078,0-.185.056-.205-.081s-.047-.306.092-.355a5.618,5.618,0,0,0,1.629-1.094c.161-.131.333-.249.5-.377a.2.2,0,0,1,.24-.014.2.2,0,0,1,.1.2c-.017.305-.027.611-.036.917a1.083,1.083,0,0,0,.011.224.155.155,0,0,0,.092.137c.073.021.092-.052.127-.093.056-.066.11-.134.162-.2a2.2,2.2,0,0,1,1.688-.949,2.815,2.815,0,0,1,2.332.773,3.881,3.881,0,0,1,.254.307.182.182,0,0,0,.3.03c.17-.139.345-.272.521-.4a3.753,3.753,0,0,1,2.3-.776,1.907,1.907,0,0,1,2.018,1.565,4.114,4.114,0,0,1,.111.995c.007,1.236.007,2.473.008,3.709a2.853,2.853,0,0,0,.052.551.718.718,0,0,0,.752.691,2.212,2.212,0,0,0,.223.03c.11,0,.2.033.217.152a.511.511,0,0,1-.075.413c-.023.029-.061.02-.1.018-.715-.053-1.431-.066-2.148-.05-.589.013-1.178.024-1.767.048a.172.172,0,0,1-.2-.124c-.094-.239-.007-.439.222-.47.7-.093.946-.349,1-1.154.1-1.361.028-2.725.036-4.088a1.99,1.99,0,0,0-.036-.361.847.847,0,0,0-.895-.776,3.038,3.038,0,0,0-1.8.449.846.846,0,0,0-.374.778c-.008,1.34,0,2.681,0,4.021a1.794,1.794,0,0,0,.056.41.7.7,0,0,0,.719.6c.086.006.172.015.258.028.185.028.239.116.216.349-.019.191-.069.23-.264.227-1.249-.025-2.5-.005-3.742.076-.179.012-.208-.087-.232-.208-.038-.2.03-.341.158-.367.017,0,.034,0,.051-.006.6-.082.86-.207.924-1.051.095-1.245.034-2.494.033-3.741a2.664,2.664,0,0,0-.113-.75,1.21,1.21,0,0,0-1.288-.96,1.626,1.626,0,0,0-1.47.757,2,2,0,0,0-.2,1.041c-.009.63,0,1.26,0,1.889Z" transform="translate(-418.918 543.619)" fill="#1f2430"/>
      <path id="Path_4031" data-name="Path 4031" d="M221.478-136.506a12.5,12.5,0,0,1,2.745.327c.017,0,.033.009.05.013.144.035.343-.009.42.1s.037.29.058.438c.062.439.13.878.193,1.317.015.1.065.22-.06.3a.523.523,0,0,1-.464.049c-.051-.017-.064-.065-.079-.108a2.731,2.731,0,0,0-2.051-1.8,3.5,3.5,0,0,0-3.8,1.334,5.025,5.025,0,0,0-1.141,3.179,5.826,5.826,0,0,0,.817,3.326,4.156,4.156,0,0,0,2.379,1.927,2.889,2.889,0,0,0,3.376-1.284,6.237,6.237,0,0,0,.515-1.016c.073-.178.2-.231.407-.177s.268.13.241.342c-.064.509-.091,1.022-.2,1.526a.734.734,0,0,1-.439.568,6.747,6.747,0,0,1-2.521.613,8.3,8.3,0,0,1-3.08-.325,4.935,4.935,0,0,1-3.555-3.533,5.381,5.381,0,0,1,3.414-6.657A7.761,7.761,0,0,1,221.478-136.506Z" transform="translate(-154.339 153.767)" fill="#1f2430"/>
      <path id="Path_4032" data-name="Path 4032" d="M883.463-145.167c0-1.27,0-2.541,0-3.811a1,1,0,0,0-.628-1c-.09-.038-.171-.1-.26-.137-.124-.057-.135-.16-.126-.276s.1-.126.183-.148c.731-.191,1.438-.456,2.152-.7a.955.955,0,0,1,.2-.057.2.2,0,0,1,.239.218c-.02.519-.05,1.037-.051,1.556q-.008,4.019,0,8.039a4.707,4.707,0,0,0,.035.535c.046.4.229.556.673.6.155.015.31.03.466.037.192.008.182.144.176.272s-.064.215-.217.207a36.967,36.967,0,0,0-3.947,0,.181.181,0,0,1-.211-.194c-.007-.124-.023-.261.164-.285a4.78,4.78,0,0,0,.6-.092.642.642,0,0,0,.486-.488,2.612,2.612,0,0,0,.078-.7q0-1.785,0-3.569Z" transform="translate(-798.235 168.046)" fill="#1f2430"/>
      <path id="Path_4033" data-name="Path 4033" d="M753.4-151.062c-.094,2.979-.039,5.958-.053,8.938,0,.346,0,.692.029,1.038.035.494.211.68.7.722l.449.037c.142.012.193.088.178.271-.011.132-.062.214-.217.206a37.081,37.081,0,0,0-3.948,0c-.157.009-.206-.088-.214-.212s-.008-.252.167-.267c.1-.009.206-.025.31-.036a.789.789,0,0,0,.834-.848c.018-.2.027-.4.027-.6q0-3.448,0-6.9a3.329,3.329,0,0,0-.054-.567.858.858,0,0,0-.469-.646c-.127-.068-.251-.142-.38-.205a.237.237,0,0,1-.131-.273c.012-.111.094-.129.182-.151.738-.19,1.45-.459,2.17-.7.038-.013.076-.028.114-.039C753.29-151.355,753.41-151.261,753.4-151.062Z" transform="translate(-670.992 168.06)" fill="#1f2430"/>
      <path id="Path_4034" data-name="Path 4034" d="M141.7-523.913c0-.7,0-1.4,0-2.1,0-.334-.032-.41-.423-.56a2.258,2.258,0,0,0-.578-.1c-.089-.009-.111-.043-.113-.129-.009-.354-.012-.351.361-.409a2.936,2.936,0,0,0,1.8-.977.93.93,0,0,1,.586-.092c.045.026.03.071.031.108.021,1.068.054,2.136.024,3.2-.018.646-.015,1.293-.03,1.939-.011.485-.039.969-.017,1.454.016.354.016.355.36.436.208.048.416.094.626.133.112.021.155.073.142.187-.046.412.057.357-.36.343-.959-.032-1.918-.06-2.877-.036-.2,0-.392.023-.588.039-.09.008-.142-.009-.14-.116a3.58,3.58,0,0,0-.019-.362c-.006-.07.028-.087.089-.1.211-.029.421-.067.633-.1.32-.043.439-.149.463-.472.044-.6.042-1.2.026-1.8,0-.167,0-.335,0-.5Z" transform="translate(-82.321 531.954)" fill="#1f2430"/>
      <path id="Path_4035" data-name="Path 4035" d="M901.831-525.688q-.033,2.051-.065,4.1c0,.126.01.253.016.38.012.289.011.293.293.361.224.054.45.1.676.143a.152.152,0,0,1,.147.183c-.014.357-.008.366-.369.349-.9-.041-1.8-.06-2.7-.043-.254.005-.507.025-.761.043-.093.007-.131-.014-.135-.119-.015-.456-.019-.456.431-.514.086-.011.171-.026.257-.036.354-.042.477-.169.493-.521.036-.8.019-1.6.007-2.4-.008-.543.015-1.084.023-1.626,0-.18-.022-.356-.033-.535-.009-.141-.119-.2-.225-.264a1.8,1.8,0,0,0-.734-.178c-.121-.012-.15-.052-.148-.168,0-.333,0-.328.326-.372a2.768,2.768,0,0,0,1.788-.926c.188-.218.406-.137.619-.144.081,0,.053.088.055.14C901.826-527.12,901.818-526.4,901.831-525.688Z" transform="translate(-814.438 531.653)" fill="#1f2430"/>
      <path id="Path_4036" data-name="Path 4036" d="M931.26-614.489a1,1,0,0,1-1.011,1.009,1.009,1.009,0,0,1-1.013-1.028,1.017,1.017,0,0,1,1.023-1A1.007,1.007,0,0,1,931.26-614.489Z" transform="translate(-843.697 616.143)" fill="#1f2430"/>
      <path id="Path_4037" data-name="Path 4037" d="M173.2-614.5a1.01,1.01,0,0,1-1.005,1.018,1,1,0,0,1-1.02-1,1.012,1.012,0,0,1,1.012-1.031A1.016,1.016,0,0,1,173.2-614.5Z" transform="translate(-111.949 616.144)" fill="#1f2430"/>
      <path id="Path_4038" data-name="Path 4038" d="M1706.309-623.377c-.035-.1-.079-.16-.2-.1a1.142,1.142,0,0,1-.265.078c-.556.123-.652.057-.652-.509q-.006-3.89,0-7.78c0-.565.018-1.131.046-1.7a.337.337,0,0,0-.121-.312h-.173a17.693,17.693,0,0,1-2.122.825.23.23,0,0,0-.183.28.2.2,0,0,0,.231.217.522.522,0,0,1,.479.221.945.945,0,0,1,.139.4,13.324,13.324,0,0,1,.03,1.384.427.427,0,0,1-.019.119c-.022.082-.057.118-.161.1a6.157,6.157,0,0,0-1.775-.089,4.446,4.446,0,0,0-2.7,1.232,4.221,4.221,0,0,0-1.282,3.3,3.87,3.87,0,0,0,.609,2.01,3.233,3.233,0,0,0,3.95,1.3,4.792,4.792,0,0,0,.948-.568.26.26,0,0,1,.436.112,1.063,1.063,0,0,1,.009.564.255.255,0,0,0,.107.272.186.186,0,0,0,.224,0c.072-.037.146-.069.219-.1a6.564,6.564,0,0,1,2.074-.688.2.2,0,0,0,.17-.173A.676.676,0,0,0,1706.309-623.377Zm-3.225.034a2.371,2.371,0,0,1-2.923-.745,3.661,3.661,0,0,1-.713-1.722,4.4,4.4,0,0,1,.225-2.414,2.318,2.318,0,0,1,1.59-1.493,1.859,1.859,0,0,1,1.873.468,1.435,1.435,0,0,1,.427,1.078c0,.676,0,1.352,0,2.027s-.01,1.352,0,2.027A.756.756,0,0,1,1703.084-623.343Z" transform="translate(-1585.361 633.695)" fill="#1f2430"/>
      <path id="Path_4039" data-name="Path 4039" d="M1969.4-529c-.183-.235-.353-.238-.531-.01a1.975,1.975,0,0,1-1.046.7,3.219,3.219,0,0,1-1.339.069,2.785,2.785,0,0,1-1.913-1.068,3.982,3.982,0,0,1-.684-2.791c.018-.272.057-.3.334-.3l4.353.007c.173,0,.347,0,.52-.012a.33.33,0,0,0,.333-.37,2.1,2.1,0,0,0-.028-.327,2.5,2.5,0,0,0-1.539-1.87,3.942,3.942,0,0,0-2.254-.273,4.02,4.02,0,0,0-2.538,1.322,4.261,4.261,0,0,0-1.077,3.44,3.6,3.6,0,0,0,2.322,3.1,4.911,4.911,0,0,0,2.3.273,4.027,4.027,0,0,0,1.657-.449,2.9,2.9,0,0,0,1.181-1.274v-.1Zm-5.18-4.26a2.069,2.069,0,0,1,2.426-1.524,1.206,1.206,0,0,1,.95,1.259c0,.324-.2.49-.6.536-.473.055-.946.019-1.342.032-.447,0-.816,0-1.186,0C1964.223-532.955,1964.156-533.026,1964.221-533.256Z" transform="translate(-1840.571 538.704)" fill="#1f2430"/>
      <path id="Path_4040" data-name="Path 4040" d="M1140.057-609.571a4.977,4.977,0,0,0-1.5-2.841,5.755,5.755,0,0,0-2.694-1.381,11.88,11.88,0,0,0-3.043-.285c-.59-.007-1.145,0-1.7.046a8.015,8.015,0,0,0-2.127.443.212.212,0,0,0-.146.257c.012.122.088.161.2.165.213.009.427.024.64.039a.5.5,0,0,1,.531.445,2.837,2.837,0,0,1,.065.7q0,3.319,0,6.638a7.289,7.289,0,0,1-.041.812c-.058.513-.215.682-.729.759l-.394.061c-.154.023-.214.113-.195.3.015.138.066.211.233.2a17.267,17.267,0,0,1,2.062-.029,17.808,17.808,0,0,0,3.51-.01,7.157,7.157,0,0,0,2.886-.946,5.111,5.111,0,0,0,2.151-2.371A5.276,5.276,0,0,0,1140.057-609.571Zm-2.529,3.332a3.457,3.457,0,0,1-2.892,2.328,4.734,4.734,0,0,1-1.518.041.941.941,0,0,1-.924-1.064c-.006-.167,0-.335,0-.5h.024q0-3.43,0-6.859a4.39,4.39,0,0,1,.033-.656.351.351,0,0,1,.275-.315,4.431,4.431,0,0,1,1.493-.139,4.38,4.38,0,0,1,1.849.463,3.385,3.385,0,0,1,1.7,2.132A7.231,7.231,0,0,1,1137.528-606.239Z" transform="translate(-1036.378 614.762)" fill="#1f2430"/>
      <path id="Path_4041" data-name="Path 4041" d="M1232.9-46.88a1.79,1.79,0,0,0-1.424-1.083,11.479,11.479,0,0,0-2.71-.089,7.358,7.358,0,0,1-1.09-.023c-.239-.033-.345-.129-.379-.336a.821.821,0,0,1,.441-.849.265.265,0,0,1,.168-.017,5.226,5.226,0,0,0,2.163-.115A2.489,2.489,0,0,0,1232.11-52a2.3,2.3,0,0,0-.2-1.135c.271,0,.507,0,.744,0,.363-.007.347,0,.341-.4a.383.383,0,0,0-.019-.084.248.248,0,0,0-.279-.218c-.427.01-.856,0-1.283,0a.7.7,0,0,1-.365-.086,4.563,4.563,0,0,0-3.144-.521A3.174,3.174,0,0,0,1225.663-53a2.192,2.192,0,0,0,.31,2.884,3.11,3.11,0,0,0,.907.594.193.193,0,0,1,.131.183.173.173,0,0,1-.128.183,1.593,1.593,0,0,1-.247.076c-.254.05-.512.085-.764.144a.532.532,0,0,0-.42.542,1.407,1.407,0,0,0,.118.519,1.909,1.909,0,0,0,1.053.975c.045.019.116.02.12.076s-.06.079-.1.108a2.219,2.219,0,0,1-.392.217,3.565,3.565,0,0,0-.682.371,1.419,1.419,0,0,0-.122,2.3,2.642,2.642,0,0,0,1.105.469,10.855,10.855,0,0,0,2.776.149,4.406,4.406,0,0,0,3.075-1.425A2.027,2.027,0,0,0,1232.9-46.88Zm-5.474-6.227a1.4,1.4,0,0,1,.77-.887,1.25,1.25,0,0,1,1.513.513,2.864,2.864,0,0,1,.453,1.45c.008.109,0,.219,0,.328a2.8,2.8,0,0,1-.255,1.326,1.207,1.207,0,0,1-2.06.261,2.437,2.437,0,0,1-.542-1.269A3.464,3.464,0,0,1,1227.423-53.107Zm3.706,8.754a1.89,1.89,0,0,1-1.077.545,5.531,5.531,0,0,1-1.187.106,4.526,4.526,0,0,1-1.4-.176,1.3,1.3,0,0,1-.945-1.231,2.008,2.008,0,0,1,.011-.55,1.128,1.128,0,0,1,1.061-.847c.993.048,1.986.02,2.979.033a1.864,1.864,0,0,1,.36.043.641.641,0,0,1,.552.583A1.723,1.723,0,0,1,1231.128-44.353Z" transform="translate(-1129.111 74.624)" fill="#1f2430"/>
      <path id="Path_4042" data-name="Path 4042" d="M1489.061-527.3c-.125-.1-.226-.063-.332.045a.837.837,0,0,1-.658.211.424.424,0,0,1-.407-.321,1.44,1.44,0,0,1-.072-.425c-.019-1.34,0-2.679.028-4.007a3.7,3.7,0,0,0-.03-.737,1.4,1.4,0,0,0-1.005-1.314,3.957,3.957,0,0,0-1.544-.139,4.859,4.859,0,0,0-2.973,1.525,1.2,1.2,0,0,0-.331.616c-.106.522.172.775.677.614a3.359,3.359,0,0,0,.844-.432.8.8,0,0,0,.366-.583,1.431,1.431,0,0,1,.845-1.127.769.769,0,0,1,1.243.535,7.332,7.332,0,0,1,.131,2.048c0,.114-.089.171-.177.217-.184.1-.37.188-.556.28-.5.248-1.041.407-1.547.646a5.136,5.136,0,0,0-.866.5,2.015,2.015,0,0,0-.638,2.466,1.153,1.153,0,0,0,.851.745,2.254,2.254,0,0,0,1.71-.2,5.828,5.828,0,0,0,.915-.681c.216-.182.391-.139.525.115.049.092.093.186.147.274a1.089,1.089,0,0,0,1.168.565,2.616,2.616,0,0,0,1.4-.672,2.068,2.068,0,0,0,.337-.371A.3.3,0,0,0,1489.061-527.3Zm-3.372-1.569a7.924,7.924,0,0,1-.041,1,1.038,1.038,0,0,1-1.414.782,1.09,1.09,0,0,1-.617-1.242,1.615,1.615,0,0,1,.974-1.176,3.112,3.112,0,0,1,.891-.26c.152-.025.212.034.209.186C1485.685-529.33,1485.689-529.076,1485.689-528.873Z" transform="translate(-1376.997 537.474)" fill="#1f2430"/>
      <path id="Path_4043" data-name="Path 4043" d="M286.785-527.055c-.132-.109-.238-.055-.347.05a.844.844,0,0,1-.66.2.418.418,0,0,1-.393-.314,2.035,2.035,0,0,1-.082-.632c0-1.207,0-2.414.036-3.62-.008-.311.005-.622-.031-.934a1.425,1.425,0,0,0-1.149-1.346,4.265,4.265,0,0,0-.979-.109,4.7,4.7,0,0,0-3.436,1.587,1.048,1.048,0,0,0-.3.7c-.02.436.213.618.636.5a3.283,3.283,0,0,0,.9-.444.8.8,0,0,0,.37-.58,1.508,1.508,0,0,1,1.161-1.257.622.622,0,0,1,.734.25,1.61,1.61,0,0,1,.263.688,10.991,10.991,0,0,1,.069,1.659.316.316,0,0,1-.192.332c-.28.136-.554.286-.84.408a16.335,16.335,0,0,0-1.679.73,2.619,2.619,0,0,0-.96.831,2.09,2.09,0,0,0-.189,1.718,1.257,1.257,0,0,0,1.064.984,2.277,2.277,0,0,0,1.665-.293,6.918,6.918,0,0,0,.824-.632c.205-.17.387-.125.515.115a3.606,3.606,0,0,0,.214.375,1.029,1.029,0,0,0,.957.482,2.3,2.3,0,0,0,.576-.113,2.633,2.633,0,0,0,1.29-.923A.31.31,0,0,0,286.785-527.055Zm-3.37-2.244c-.017.213,0,.427-.016.639a6.647,6.647,0,0,1-.042,1.069,1.034,1.034,0,0,1-1,.821,1.07,1.07,0,0,1-.989-1.454,1.7,1.7,0,0,1,1.086-1.1,3.008,3.008,0,0,1,.716-.19C283.362-529.548,283.431-529.5,283.415-529.3Z" transform="translate(-216.454 537.228)" fill="#1f2430"/>
      <path id="Path_4044" data-name="Path 4044" d="M519.921-52.766a4.23,4.23,0,0,0-2.975-1.576,3.975,3.975,0,0,0-3.36,1.171,4.009,4.009,0,0,0-1.159,2.525,3.945,3.945,0,0,0,.418,2.329,3.777,3.777,0,0,0,3.262,2.1,5.031,5.031,0,0,0,2.542-.516,3.833,3.833,0,0,0,2.043-3.353A3.713,3.713,0,0,0,519.921-52.766ZM518.47-47.9a1.866,1.866,0,0,1-1.444,1.212,2.124,2.124,0,0,1-2.131-.86,3.979,3.979,0,0,1-.739-1.877,6.118,6.118,0,0,1,.154-2.721,2.6,2.6,0,0,1,.764-1.253,2,2,0,0,1,2.842.3,4.2,4.2,0,0,1,.83,1.967,7.812,7.812,0,0,1,.1,1.116A5.5,5.5,0,0,1,518.47-47.9Z" transform="translate(-441.328 74.477)" fill="#1f2430"/>
      <path id="Path_4045" data-name="Path 4045" d="M1477.271-48.087c-.114-.062-.225-.11-.329.041a1.9,1.9,0,0,1-.77.654,2.872,2.872,0,0,1-1.593.206,2.792,2.792,0,0,1-1.988-1.067,4.068,4.068,0,0,1-.688-2.894c.011-.156.107-.2.249-.2.81,0,1.619,0,2.429,0v0h2.29a.932.932,0,0,0,.343-.038.307.307,0,0,0,.228-.249,1.51,1.51,0,0,0-.02-.362,2.486,2.486,0,0,0-1.525-1.92,3.83,3.83,0,0,0-2.062-.313,4.105,4.105,0,0,0-2.543,1.132,4.251,4.251,0,0,0-1.281,3.719,3.537,3.537,0,0,0,2.181,2.98,5.086,5.086,0,0,0,3.295.187,2.748,2.748,0,0,0,1.942-1.532C1477.49-47.863,1477.431-48,1477.271-48.087Zm-5.036-4.132a2.056,2.056,0,0,1,2.56-1.478,1.22,1.22,0,0,1,.8,1.311.434.434,0,0,1-.323.385,2.791,2.791,0,0,1-.736.089c-.329.009-.659,0-.988,0-.358,0-.717,0-1.075,0C1472.223-51.916,1472.168-51.983,1472.235-52.219Z" transform="translate(-1365.662 74.362)" fill="#1f2430"/>
      <path id="Path_4046" data-name="Path 4046" d="M1010.709-45.99c-.165-.1-.243-.085-.362.071a2,2,0,0,1-1.011.723,3.11,3.11,0,0,1-1.353.1,2.789,2.789,0,0,1-2.126-1.3,4.073,4.073,0,0,1-.53-2.527c.024-.336.037-.336.376-.336h2.307v0h2.307a.811.811,0,0,0,.325-.036c.123-.053.241-.124.237-.278a2.577,2.577,0,0,0-.047-.429,2.484,2.484,0,0,0-1.5-1.821,3.932,3.932,0,0,0-2.3-.285,4.036,4.036,0,0,0-2.463,1.255,4.268,4.268,0,0,0-1.141,3.469,3.559,3.559,0,0,0,2.073,3.021,5.033,5.033,0,0,0,3.437.237,2.744,2.744,0,0,0,1.9-1.484A.269.269,0,0,0,1010.709-45.99Zm-5.019-4.242a2.146,2.146,0,0,1,1.962-1.472,1.275,1.275,0,0,1,1.377,1.172.515.515,0,0,1-.466.655,8.868,8.868,0,0,1-1.474.064c-.421,0-.762,0-1.1,0C1005.63-49.818,1005.58-49.89,1005.69-50.232Z" transform="translate(-915.285 72.342)" fill="#1f2430"/>
    </g>
  </g>
</svg>
