<svg xmlns="http://www.w3.org/2000/svg" width="150" height="60" viewBox="0 0 150 60">
  <g id="Group_3883" data-name="Group 3883" transform="translate(19 -3416)">
    <rect id="Rectangle_2745" data-name="Rectangle 2745" width="150" height="60" transform="translate(-19 3416)" fill="none"/>
    <g id="Group_3882" data-name="Group 3882" transform="translate(-278.578 -47.598)">
      <path id="Path_4917" data-name="Path 4917" d="M-2033.24,2686.806h-3.833v-1.472a.98.98,0,0,0-.173.125,4.364,4.364,0,0,1-3.074,1.647,5.217,5.217,0,0,1-3.62-.791,3.5,3.5,0,0,1-1.474-2.311,5.745,5.745,0,0,1-.177-.866,4.105,4.105,0,0,1,2.736-4.315,10.506,10.506,0,0,1,3.836-.613c.6,0,1.2,0,1.826,0a3.883,3.883,0,0,0-.24-2,1.592,1.592,0,0,0-.267-.388,2.217,2.217,0,0,0-3.576.8c-.044.14-.083.281-.126.426h-3.747c.02-.171.027-.325.056-.475a4.643,4.643,0,0,1,3.463-3.783,8.718,8.718,0,0,1,5.14,0,4.3,4.3,0,0,1,3.224,4.2c.045,1.313.023,2.628.025,3.942q0,2.742,0,5.485Zm-3.917-5.968c-.734,0-1.4-.013-2.073.005a4.77,4.77,0,0,0-1.083.121,1.652,1.652,0,0,0-1.32,2.194,1.27,1.27,0,0,0,.943,1.039,3.049,3.049,0,0,0,2.356-.184,1.8,1.8,0,0,0,1.077-1.362C-2037.174,2682.049-2037.186,2681.435-2037.158,2680.839Z" transform="translate(2319.176 819.944)" fill="#1f2430"/>
      <path id="Path_4925" data-name="Path 4925" d="M-1782.036,2680.742h-9.157a4.9,4.9,0,0,0,.627,2.373,2.6,2.6,0,0,0,2.72,1.1,2.269,2.269,0,0,0,2.065-1.613c.025-.075.126-.176.193-.177,1.143-.011,2.287-.008,3.474-.008a4.409,4.409,0,0,1-.055.439,5.077,5.077,0,0,1-3.02,3.646,7.855,7.855,0,0,1-6.036.135,5.452,5.452,0,0,1-3.382-3.359,9.4,9.4,0,0,1,.2-7.244,5.925,5.925,0,0,1,5.009-3.534,7.7,7.7,0,0,1,3.4.308,5.465,5.465,0,0,1,3.813,4.5A16.857,16.857,0,0,1-1782.036,2680.742Zm-9.034-2.615h5.257c-.143-.564-.245-1.1-.42-1.62a1.794,1.794,0,0,0-.945-1.018A2.717,2.717,0,0,0-1791.07,2678.127Z" transform="translate(2177.689 819.925)" fill="#1f2430"/>
      <path id="Path_4918" data-name="Path 4918" d="M-1940.983,2680.847a13.859,13.859,0,0,0,.5,1.885,2.782,2.782,0,0,0,4.358.912,5.545,5.545,0,0,0,.634-.948c.063-.091.173-.209.263-.211,1.1-.014,2.193-.009,3.29-.007a.751.751,0,0,1,.14.032,5.112,5.112,0,0,1-.885,2.236,5.594,5.594,0,0,1-3.386,2.183,8.171,8.171,0,0,1-4.894-.243,5.558,5.558,0,0,1-3.543-3.866,9.573,9.573,0,0,1,.229-6.308,6.022,6.022,0,0,1,5.45-3.966,7.6,7.6,0,0,1,3.24.383,5.354,5.354,0,0,1,3.671,4.443,29.1,29.1,0,0,1,.193,3.246c.013.242-.144.23-.312.229q-4.239,0-8.478,0Zm5.48-2.689c-.146-.587-.238-1.1-.4-1.589a1.872,1.872,0,0,0-1.005-1.113,2.747,2.747,0,0,0-3.866,2.7Z" transform="translate(2262.285 819.882)" fill="#1f2430"/>
      <path id="Path_4919" data-name="Path 4919" d="M-1896.6,2686.824h-3.915v-.392q0-4.046,0-8.092c0-.3-.01-.594-.04-.888a1.733,1.733,0,0,0-1.787-1.758,2.321,2.321,0,0,0-2.722,2.409c-.027,2.776-.012,5.553-.015,8.329v.421h-3.891v-14.011h3.886v1.849l.061.017c.045-.057.094-.111.135-.171a4.683,4.683,0,0,1,4.525-2.015,4.776,4.776,0,0,1,1.43.343,3.549,3.549,0,0,1,2.114,2.745,8.631,8.631,0,0,1,.21,1.788c.021,3.043.01,6.086.01,9.129Z" transform="translate(2241.963 819.885)" fill="#1f2430"/>
      <path id="Path_4920" data-name="Path 4920" d="M-1843.38,2687.188v-1.763l-.058-.011c-.038.053-.078.105-.114.161a4.191,4.191,0,0,1-3.269,1.928,5.1,5.1,0,0,1-2.47-.3,3.708,3.708,0,0,1-2.274-2.7,6.862,6.862,0,0,1-.234-1.664c-.022-3.141-.011-6.283-.01-9.425,0-.058,0-.117.009-.2h3.946v.338q0,4.239,0,8.477a4.748,4.748,0,0,0,.034.739,1.841,1.841,0,0,0,2.223,1.683,2.234,2.234,0,0,0,2.206-2.2c.022-.255.034-.512.035-.769,0-2.658.006-5.315,0-7.972,0-.272.077-.363.346-.361,1.175.009,2.35,0,3.559,0,.005.113.014.217.014.321q0,6.683.007,13.367c0,.288-.083.369-.364.366-1.077-.011-2.153,0-3.23,0C-1843.125,2687.206-1843.222,2687.2-1843.38,2687.188Z" transform="translate(2209.662 819.529)" fill="#1f2430"/>
      <path id="Path_4921" data-name="Path 4921" d="M-1965.626,2677.689c-.123.006-.21.015-.3.015-1.058,0-2.115-.007-3.172.007-.234,0-.34-.077-.387-.292a3.451,3.451,0,0,0-.125-.395,2.041,2.041,0,0,0-1.8-1.538,2.408,2.408,0,0,0-2.4,1.044,4.187,4.187,0,0,0-.688,2.086,9.233,9.233,0,0,0,.327,3.809,2.493,2.493,0,0,0,3.172,1.643,2.137,2.137,0,0,0,1.235-.867,4.725,4.725,0,0,0,.482-.944c.229-.606.212-.613.849-.613h2.9c-.056.358-.092.687-.16,1.009a5.58,5.58,0,0,1-5.1,4.439,8.164,8.164,0,0,1-3.392-.285,5.565,5.565,0,0,1-3.8-3.535,9.377,9.377,0,0,1,.135-7.108,6.021,6.021,0,0,1,5.062-3.652,7.394,7.394,0,0,1,3.732.4,5.2,5.2,0,0,1,3.354,4.215C-1965.661,2677.3-1965.65,2677.488-1965.626,2677.689Z" transform="translate(2281.318 819.929)" fill="#1f2430"/>
      <path id="Path_4922" data-name="Path 4922" d="M-1999.107,2681.788c-.061.347-.106.636-.164.924a5.469,5.469,0,0,1-4.988,4.46,9.051,9.051,0,0,1-3.543-.276,5.553,5.553,0,0,1-3.832-3.62,9.383,9.383,0,0,1,.146-6.889,5.959,5.959,0,0,1,4.771-3.686,7.267,7.267,0,0,1,4.562.6,5.13,5.13,0,0,1,2.822,3.965c.026.146.041.293.058.44a1.319,1.319,0,0,1-.006.167h-.281c-1.057,0-2.115,0-3.172,0-.207,0-.332-.04-.373-.266a3.074,3.074,0,0,0-.161-.507,2.029,2.029,0,0,0-1.652-1.439,2.36,2.36,0,0,0-2.361.843,3.729,3.729,0,0,0-.787,1.982,10.3,10.3,0,0,0,.144,3.594,2.652,2.652,0,0,0,1.752,2.107,2.5,2.5,0,0,0,3.221-1.546c.022-.055.042-.111.061-.167.074-.223.084-.548.237-.643.188-.116.5-.047.751-.048.8,0,1.6,0,2.4,0Z" transform="translate(2300.313 819.847)" fill="#1f2430"/>
      <path id="Path_4923" data-name="Path 4923" d="M-1874.747,2670.586h-1.6v-2.935h1.58v-2.016c0-.632,0-.632.586-.87l3.072-1.243c.088-.036.18-.065.308-.111v4.264h2.659v2.928h-2.647v.35q0,3.083,0,6.165a3.969,3.969,0,0,0,.047.648,1.137,1.137,0,0,0,1.2,1.069,4.45,4.45,0,0,0,.739-.026c.242-.028.481-.091.748-.144a1.651,1.651,0,0,1,.03.221c0,.859,0,1.719,0,2.579,0,.136,0,.243-.177.283a7.529,7.529,0,0,1-4.152-.074,3.267,3.267,0,0,1-2.282-2.832,9.673,9.673,0,0,1-.071-1.448c-.007-2.055,0-4.11-.005-6.165C-1874.7,2671.025-1874.73,2670.821-1874.747,2670.586Z" transform="translate(2223.527 824.994)" fill="#1f2430"/>
      <path id="Path_4924" data-name="Path 4924" d="M-1875.062,2638.565l-1.812-.709c-1.617-.63-3.232-1.264-4.852-1.886a.344.344,0,0,1-.267-.381c.01-1.1,0-2.21,0-3.357l.452.186q5.6,2.257,11.2,4.507a.477.477,0,0,1,.358.539c-.022.8-.011,1.6-.005,2.4a.3.3,0,0,1-.21.332q-5.778,2.324-11.551,4.659c-.062.025-.128.04-.219.068-.009-.106-.022-.19-.022-.274,0-1.047,0-2.094-.006-3.141a.339.339,0,0,1,.265-.381q3.193-1.171,6.379-2.362c.1-.037.2-.08.293-.119Z" transform="translate(2226.719 847.366)" fill="#1f2430"/>
      <path id="Path_4926" data-name="Path 4926" d="M-1812.692,2687.019h-3.9V2673h3.9v2.322a4.313,4.313,0,0,1,4.19-2.543v3.84a10.513,10.513,0,0,0-1.273.114,7.042,7.042,0,0,0-1.493.449,2.332,2.332,0,0,0-1.357,1.952,8.988,8.988,0,0,0-.063,1.093c-.006,2.144,0,4.289,0,6.433Z" transform="translate(2189.758 819.728)" fill="#1f2430"/>
    </g>
  </g>
</svg>
