<svg xmlns="http://www.w3.org/2000/svg" width="150" height="60" viewBox="0 0 150 60">
  <g id="Group_3894" data-name="Group 3894" transform="translate(-708 -3202)">
    <rect id="Rectangle_2745" data-name="Rectangle 2745" width="150" height="60" transform="translate(708 3202)" fill="none"/>
    <g id="Group_3890" data-name="Group 3890" transform="translate(724 3219)">
      <g id="Group_3753" data-name="Group 3753">
        <path id="Path_4107" data-name="Path 4107" d="M-3196.449-5763.265l-1.939-7.413-.068.009q.261,3.792.523,7.583l-.05.027-4.469-5.81-.058.036q1.686,3.209,3.372,6.42l-.029.044-6.472-3.531-.031.048,5.735,4.71-.02.046-7.319-.768-.013.062,7.194,2.106-7.141,2.1.014.065,7.241-.841.026.059-5.7,4.846.016.038a.986.986,0,0,0,.149-.049q2.206-1.151,4.408-2.309a.708.708,0,0,0,.248-.234c.305-.468.592-.949.9-1.413a.436.436,0,0,1,.3-.164,8.9,8.9,0,0,0,.98-.067l-.784-.568,2.763-4.431.046.021c-.542,1.742-1.083,3.482-1.637,5.261h.313c1.265,0,2.53,0,3.795.007a1.071,1.071,0,0,1,.5.15,6.007,6.007,0,0,1,.931.657H-3193c-1.726,0-3.452,0-5.178,0a.312.312,0,0,0-.361.257q-1.21,3.779-2.438,7.554c-.03.092-.067.182-.1.271a12,12,0,0,1-7.578-11.877,12.142,12.142,0,0,1,10.312-11.3,12.2,12.2,0,0,1,13.355,8.1,12.01,12.01,0,0,1-3.81,13.3l-3.146-5.237.031-.046,4.361,2.427.042-.057-5.757-4.97.018-.066,7.448,1.134.019-.065-7.059-2.477-.008-.054,7.289-1.763-.011-.054-7.44.485-.023-.06,5.74-4.347-.038-.063-6.489,3.286-.044-.042,3.586-6.327-.053-.04-4.682,5.486-.057-.021q.454-3.658.908-7.316l-.066-.013Z" transform="translate(3208.677 5771.797)"/>
        <path id="Path_4108" data-name="Path 4108" d="M-1494.893-5667.7h5.762l-.751,2.695h7.842v6.6c.1-.207.178-.371.255-.537q1.356-2.923,2.718-5.843a.379.379,0,0,1,.255-.207c1.9-.012,3.795-.009,5.716-.009a.832.832,0,0,1-.056.153q-4.419,6.929-8.845,13.855a12.735,12.735,0,0,1-1,1.309,4.4,4.4,0,0,1-3.552,1.656c-1.265-.01-2.53,0-3.8-.007a1.309,1.309,0,0,1-.175-.027c.248-.9.491-1.779.737-2.661.176-.631.178-.618.842-.634a10.188,10.188,0,0,0,1.155-.1,1.031,1.031,0,0,0,.807-.611,1.889,1.889,0,0,0,.226-1.059c-.15-1.47-.266-2.942-.4-4.414-.142-1.56-.292-3.118-.44-4.691h-3.073c-.157.558-.321,1.125-.477,1.695-.326,1.188-.673,2.374-.963,3.571-.207.855.013,1.111.882,1.146.414.017.829,0,1.285,0-.034.138-.057.246-.088.353-.228.806-.461,1.61-.681,2.417-.045.163-.1.233-.288.232-1.69-.008-3.38,0-5.069-.01a3.376,3.376,0,0,1-.672-.071,1.806,1.806,0,0,1-1.533-1.88,8.95,8.95,0,0,1,.491-2.7q1.413-5,2.821-10.008C-1494.944-5667.547-1494.919-5667.615-1494.893-5667.7Z" transform="translate(1591.062 5673.343)"/>
        <path id="Path_4109" data-name="Path 4109" d="M-2314.078-5694.952l.856-3.118c.233-.851.47-1.7.7-2.553.035-.13.074-.2.228-.2q2.752.009,5.5.007a.456.456,0,0,1,.075.02c-.021.092-.037.186-.063.278q-2.254,8.051-4.506,16.1a.312.312,0,0,1-.365.279c-1.7-.012-3.4-.006-5.1-.006h-.278l.377-1.327c-.278.208-.5.38-.723.541a5.511,5.511,0,0,1-4.5.948,2.386,2.386,0,0,1-1.979-2.462,14.6,14.6,0,0,1,.781-4.619,14.47,14.47,0,0,1,1.355-3.146,4.684,4.684,0,0,1,3.9-2.326,4.7,4.7,0,0,1,2.379.387A2.983,2.983,0,0,1-2314.078-5694.952Zm-3.759,6.035a.882.882,0,0,0,.544.933,1.571,1.571,0,0,0,1.309-.228.449.449,0,0,0,.071-.17c.356-1.216.707-2.434,1.069-3.647a.306.306,0,0,0-.1-.354,1.288,1.288,0,0,0-1.972.329,8.045,8.045,0,0,0-.411.967A7.039,7.039,0,0,0-2317.837-5688.917Z" transform="translate(2371.849 5704.671)"/>
        <path id="Path_4110" data-name="Path 4110" d="M-2709.778-5700.527c-.324,1.125-.638,2.223-.955,3.321-.179.62-.181.62-.831.62-1.717,0-3.434,0-5.151,0-.222,0-.333.048-.391.284-.189.76-.406,1.513-.612,2.269-.023.083-.041.168-.068.286h6.091c-.349,1.238-.687,2.437-1.03,3.65h-6.1c-.168.6-.335,1.181-.5,1.768q-.6,2.134-1.19,4.267c-.04.143-.086.208-.249.208-1.844-.006-3.687,0-5.531,0a1.014,1.014,0,0,1-.115-.016l4.665-16.646Z" transform="translate(2752.574 5704.393)"/>
        <path id="Path_4111" data-name="Path 4111" d="M-2032.259-5616.24h-.643c-2.331,0-4.663.005-6.995-.007-.271,0-.387.077-.426.339-.062.427-.182.848-.215,1.275a.7.7,0,0,0,.571.83,1.629,1.629,0,0,0,.721-.027,1.7,1.7,0,0,0,.606-.415,1.393,1.393,0,0,0,.257-.47c.222-.543.218-.544.794-.544h5.041a4.455,4.455,0,0,1-.969,2.043,7.027,7.027,0,0,1-3.544,2.178,10.864,10.864,0,0,1-3.722.416,10.845,10.845,0,0,1-2.831-.406,3.07,3.07,0,0,1-2.353-3.149,12.043,12.043,0,0,1,1.577-5.779,5.809,5.809,0,0,1,2.512-2.466,7.86,7.86,0,0,1,2.481-.817,13.1,13.1,0,0,1,5.135.192,4.573,4.573,0,0,1,.712.255,2.961,2.961,0,0,1,1.88,2.657A11.922,11.922,0,0,1-2032.259-5616.24Zm-4.914-2.38a7.357,7.357,0,0,0,.135-.87.723.723,0,0,0-.687-.814,1.612,1.612,0,0,0-1.78,1.685Z" transform="translate(2109.041 5631.455)"/>
        <path id="Path_4112" data-name="Path 4112" d="M-1787.14-5683.892h-5.774l4.668-16.656h5.774Z" transform="translate(1869.715 5704.413)"/>
        <path id="Path_4113" data-name="Path 4113" d="M-1652.419-5605.862c.24-.851.472-1.672.7-2.494q1.313-4.678,2.62-9.358c.068-.246.158-.339.429-.336,1.707.015,3.414.008,5.121.008h.321c-.2.714-.388,1.4-.58,2.082q-1.376,4.9-2.748,9.8c-.062.224-.146.31-.4.308-1.716-.015-3.432-.008-5.148-.008Z" transform="translate(1736.841 5626.391)"/>
        <path id="Path_4114" data-name="Path 4114" d="M-2476.165-5605.85c.2-.707.382-1.382.572-2.057q1.38-4.915,2.756-9.832a.341.341,0,0,1,.4-.3c1.708.013,3.417.007,5.124.007h.332c-.156.566-.3,1.109-.457,1.65q-1.434,5.111-2.865,10.223a.356.356,0,0,1-.421.314c-1.708-.013-3.416-.007-5.124-.007Z" transform="translate(2515.902 5626.378)"/>
        <path id="Path_4115" data-name="Path 4115" d="M-1576.446-5700.794q-.227.808-.452,1.608c-.142.5-.289,1-.424,1.507-.035.132-.081.2-.232.2q-2.734-.007-5.469,0a.689.689,0,0,1-.1-.021c.018-.086.031-.171.054-.254.268-.952.539-1.9.8-2.856.034-.122.06-.208.221-.207,1.832.006,3.664,0,5.5.006A.6.6,0,0,1-1576.446-5700.794Z" transform="translate(1671.307 5704.673)"/>
        <path id="Path_4116" data-name="Path 4116" d="M-2407.27-5697.543c.176-.624.343-1.22.511-1.815.125-.442.245-.885.381-1.324.022-.071.115-.123.184-.174.023-.017.07,0,.106,0h5.495a1.007,1.007,0,0,1-.016.163c-.279.988-.561,1.975-.835,2.964-.038.138-.082.214-.248.213-1.808-.006-3.615,0-5.422,0A1.5,1.5,0,0,1-2407.27-5697.543Z" transform="translate(2450.744 5704.712)"/>
        <path id="Path_4117" data-name="Path 4117" d="M-2010.182-5358.468l-.31.43c-.363.505-.72,1.015-1.093,1.513a.449.449,0,0,1-.3.16c-.387.019-.775.007-1.2.007-.065-.713-.128-1.416-.192-2.12l-.053-.008q-.168.541-.336,1.082c-.09.292-.17.588-.273.875a.279.279,0,0,1-.192.16c-.342.016-.685.007-1.063.007.052-.181.094-.342.143-.5q.343-1.137.689-2.273c.037-.122.068-.229.244-.226.614.008,1.228,0,1.842,0a.957.957,0,0,1,.163.029l.108,1.877.063.013a12.936,12.936,0,0,0,.823-1.29,1.041,1.041,0,0,1,1.2-.641,12.753,12.753,0,0,0,1.411.01c-.118.4-.227.762-.337,1.13-.169.56-.342,1.119-.506,1.68-.041.139-.1.207-.259.2-.368-.014-.738,0-1.137,0l.623-2.081Z" transform="translate(2079.938 5381.76)"/>
        <path id="Path_4118" data-name="Path 4118" d="M-1736.422-5357.134c.171-.556.35-1.11.509-1.671.051-.178.127-.248.316-.238.322.016.644,0,1,0-.073.251-.133.464-.2.676-.214.707-.432,1.411-.641,2.119-.043.146-.1.222-.274.216-.542-.013-1.084-.012-1.625,0-.17,0-.23-.056-.271-.217-.152-.611-.322-1.217-.5-1.878-.042.1-.072.154-.091.212-.174.559-.354,1.115-.514,1.678a.238.238,0,0,1-.283.2c-.333-.011-.667,0-1.03,0,.227-.747.445-1.467.665-2.189.06-.2.135-.392.182-.594a.239.239,0,0,1,.277-.219q.84.014,1.68,0a.24.24,0,0,1,.277.217c.145.564.3,1.125.454,1.688Z" transform="translate(1819.692 5381.435)"/>
        <path id="Path_4119" data-name="Path 4119" d="M-2648.269-5355.945c-.631,0-1.244.006-1.857-.008a.294.294,0,0,1-.2-.181c-.169-.569-.323-1.143-.481-1.715-.011-.04-.026-.079-.068-.2-.1.326-.181.575-.257.826-.112.37-.217.743-.338,1.11-.022.066-.105.159-.164.161-.367.015-.735.007-1.132.007.295-.978.578-1.924.871-2.868a.227.227,0,0,1,.169-.123c.6-.009,1.21-.013,1.814,0,.074,0,.184.124.209.211.166.569.313,1.144.487,1.795.169-.55.316-1.027.461-1.5.157-.519.156-.519.7-.519h.706Z" transform="translate(2682.921 5381.347)"/>
        <path id="Path_4120" data-name="Path 4120" d="M-1488.982-5358.868c-.383,0-.752,0-1.122,0a.181.181,0,0,1-.127-.06.859.859,0,0,0-1.053-.146.267.267,0,0,0-.1.2.249.249,0,0,0,.161.149c.33.09.666.158,1,.246a4.858,4.858,0,0,1,.668.214.517.517,0,0,1,.3.75.926.926,0,0,1-.593.594,6.5,6.5,0,0,1-1.417.3,7.893,7.893,0,0,1-1.614-.1.517.517,0,0,1-.509-.634c.018-.143.074-.2.224-.2.361.008.722,0,1.079,0a.843.843,0,0,0,1.237.226c.134-.141.1-.288-.095-.342-.434-.12-.874-.218-1.31-.331a2.376,2.376,0,0,1-.359-.12.5.5,0,0,1-.3-.743,1.072,1.072,0,0,1,.695-.639,5.04,5.04,0,0,1,2.776-.1C-1489.026-5359.516-1488.9-5359.283-1488.982-5358.868Z" transform="translate(1586.442 5382.108)"/>
        <path id="Path_4121" data-name="Path 4121" d="M-2257.926-5357.426c-.021.281.138.382.364.375a3.682,3.682,0,0,0,.714-.081.305.305,0,0,0,.178-.233c0-.063-.124-.165-.209-.189-.416-.117-.838-.213-1.257-.318-.061-.015-.122-.034-.181-.054-.62-.208-.735-.679-.264-1.14a1.318,1.318,0,0,1,.472-.3,5.042,5.042,0,0,1,2.775-.112.557.557,0,0,1,.507.55c0,.129-.038.2-.186.2-.316-.007-.632,0-.948,0a.223.223,0,0,1-.156-.062.872.872,0,0,0-1.057-.144.265.265,0,0,0-.1.2.251.251,0,0,0,.161.149c.321.087.649.153.971.238a5.171,5.171,0,0,1,.695.219.517.517,0,0,1,.3.75,1.2,1.2,0,0,1-.813.7,5.6,5.6,0,0,1-2.33.182,2.067,2.067,0,0,1-.7-.178.606.606,0,0,1-.282-.381c-.061-.3.018-.359.327-.359Z" transform="translate(2310.788 5381.984)"/>
        <path id="Path_4122" data-name="Path 4122" d="M-2502.6-5358.793c.511,0,.988-.005,1.464.008.051,0,.13.108.142.175.081.48.147.962.22,1.443.009.059.027.117.053.229.221-.285.413-.53.6-.776.237-.308.469-.619.712-.922.052-.064.135-.146.206-.148.439-.014.878-.007,1.374-.007-.341.425-.647.809-.956,1.192-.436.541-.868,1.086-1.316,1.618a.538.538,0,0,1-.352.176c-.5.02-1.01.009-1.547.009C-2502.2-5356.789-2502.4-5357.771-2502.6-5358.793Z" transform="translate(2540.907 5381.199)"/>
        <path id="Path_4123" data-name="Path 4123" d="M-2378.946-5356.286h1.869a5.268,5.268,0,0,1-.152.509.213.213,0,0,1-.165.093c-1.038,0-2.075,0-3.15,0l.469-1.542c.128-.422.251-.846.391-1.264.025-.074.119-.178.182-.178,1.028-.012,2.056-.008,3.136-.008a4.457,4.457,0,0,1-.163.525c-.021.047-.133.076-.2.077-.452.007-.9.02-1.354,0-.262-.014-.4.061-.432.329a2.075,2.075,0,0,1-.074.283h1.74a3.3,3.3,0,0,1-.144.482.271.271,0,0,1-.209.1c-.415.01-.833.025-1.246,0-.274-.019-.4.082-.433.337C-2378.9-5356.467-2378.921-5356.392-2378.946-5356.286Z" transform="translate(2425.468 5381.084)"/>
        <path id="Path_4124" data-name="Path 4124" d="M-1850.632-5358.675a3.56,3.56,0,0,0-.117.4c-.028.17-.118.21-.28.208-.55-.009-1.1,0-1.662,0-.059.2-.114.391-.175.6h1.743a4.015,4.015,0,0,1-.148.505c-.02.048-.131.078-.2.079-.416.007-.833.023-1.247,0-.272-.017-.4.077-.434.336-.01.078-.035.153-.061.26h1.87c-.056.193-.095.356-.153.511a.184.184,0,0,1-.139.09c-1.047.005-2.094,0-3.177,0l.526-1.723c.11-.361.213-.726.335-1.084.025-.074.12-.177.183-.178C-1852.742-5358.678-1851.714-5358.675-1850.632-5358.675Z" transform="translate(1928.257 5381.086)"/>
        <path id="Path_4125" data-name="Path 4125" d="M-2124.418-5355.7l.682-2.261h-1.07c-.011-.042-.023-.06-.02-.074.163-.648.163-.648.84-.649l2.682-.006h.349c-.073.239-.126.443-.2.639-.016.043-.109.076-.169.079a3.112,3.112,0,0,1-.568,0c-.3-.041-.442.07-.519.375-.145.575-.345,1.136-.509,1.707a.225.225,0,0,1-.264.194C-2123.581-5355.706-2123.978-5355.7-2124.418-5355.7Z" transform="translate(2183.622 5381.099)"/>
        <path id="Path_4126" data-name="Path 4126" d="M-1595.465-5358.088h-1.074c-.009-.031-.02-.049-.017-.064.154-.663.154-.663.83-.663h3.04a6.285,6.285,0,0,1-.187.613.268.268,0,0,1-.206.108c-.306.011-.612.005-.939.005-.207.676-.421,1.341-.609,2.014-.057.2-.141.271-.349.261-.377-.017-.756,0-1.17,0Z" transform="translate(1684.01 5381.219)"/>
        <path id="Path_4127" data-name="Path 4127" d="M-2742.918-5359.02l-.915,3h-1.425c.044-.156.083-.3.125-.44.237-.782.48-1.562.709-2.347.046-.157.108-.221.277-.216C-2743.754-5359.012-2743.361-5359.02-2742.918-5359.02Z" transform="translate(2770.397 5381.417)"/>
        <path id="Path_4128" data-name="Path 4128" d="M-1146.493-5438.875a1.259,1.259,0,0,1-1.269,1.271,1.281,1.281,0,0,1-1.272-1.278,1.285,1.285,0,0,1,1.264-1.26A1.263,1.263,0,0,1-1146.493-5438.875Zm-2.3,0a1.042,1.042,0,0,0,1.041,1.054,1.051,1.051,0,0,0,1.037-1.037,1.048,1.048,0,0,0-1.046-1.054A1.038,1.038,0,0,0-1148.794-5438.88Z" transform="translate(1260.764 5458.133)"/>
        <path id="Path_4129" data-name="Path 4129" d="M-1133.547-5428.228a2.933,2.933,0,0,1,0,.377c-.008.054-.067.1-.1.15-.042-.045-.118-.089-.12-.135-.01-.385-.005-.77-.005-1.186.193,0,.353-.009.512,0,.2.015.385.059.427.3a.362.362,0,0,1-.285.47l.319.539C-1133.255-5427.642-1133.155-5428.24-1133.547-5428.228Zm.015-.172a4.374,4.374,0,0,0,.433-.152.209.209,0,0,0,0-.162,4.39,4.39,0,0,0-.43-.137Z" transform="translate(1246.338 5447.619)"/>
      </g>
    </g>
  </g>
</svg>
