<?xml version="1.0" encoding="utf-8"?>
<!-- Generator: Adobe Illustrator 26.0.1, SVG Export Plug-In . SVG Version: 6.00 Build 0)  -->
<svg version="1.1" id="Layer_1" xmlns="http://www.w3.org/2000/svg" xmlns:xlink="http://www.w3.org/1999/xlink" x="0px" y="0px"
	 viewBox="0 0 220 55" style="enable-background:new 0 0 220 55;" xml:space="preserve">
<style type="text/css">
	.st0{fill:#005691;stroke:#005691;stroke-width:0.1378;stroke-miterlimit:10;}
	.st1{fill:#EA8723;stroke:#EA8723;stroke-width:0.5514;stroke-miterlimit:10;}
	.st2{fill:#005691;}
	.st3{fill:#005691;stroke:#005691;stroke-width:0.1654;stroke-miterlimit:10;}
	.st4{fill:#EA8723;}
</style>
<g>
	<g>
		<path class="st0" d="M31.6,33.8l-1.86-3.13h-5.88l1.03-1.76h3.81l-2.77-4.65l-5.64,9.54H17.8l7.15-11.9
			c0.26-0.43,0.58-0.7,1.06-0.7c0.48,0,0.79,0.27,1.04,0.7l7.17,11.9H31.6z"/>
		<path class="st0" d="M39.62,30.35v-2.1h4.99c1.52,0,2.43-0.96,2.43-2.36c0-1.44-0.91-2.34-2.43-2.34h-6.58V33.8h-2.15V21.37h8.74
			c2.87,0,4.55,1.73,4.55,4.45c0,2.69-1.68,4.53-4.55,4.53H39.62z"/>
		<path class="st0" d="M54.77,30.35v-2.1h4.99c1.52,0,2.43-0.96,2.43-2.36c0-1.44-0.91-2.34-2.43-2.34h-6.58V33.8h-2.15V21.37h8.74
			c2.87,0,4.55,1.73,4.55,4.45c0,2.69-1.68,4.53-4.55,4.53H54.77z"/>
		<path class="st0" d="M71.86,33.8c-3.47,0-6.04-2.74-6.04-6.34c0-3.66,2.57-6.09,6.04-6.09h3.03c3.59,0,6.09,2.48,6.09,6.09
			c0,3.61-2.55,6.34-6.09,6.34H71.86z M74.88,31.63c2.29,0,3.92-1.73,3.92-4.07s-1.62-4.02-3.92-4.02h-3.03
			c-2.22,0-3.86,1.66-3.86,4.02c0,2.34,1.62,4.07,3.86,4.07H74.88z"/>
		<path class="st0" d="M85.07,24.7v9.1H83V22.51c0-0.8,0.43-1.3,1.11-1.3c0.32,0,0.6,0.12,0.92,0.44l8.77,8.7v-9.1h2.07v11.39
			c0,0.82-0.44,1.3-1.08,1.3c-0.36,0-0.68-0.15-0.99-0.46L85.07,24.7z"/>
		<path class="st0" d="M98.43,33.8V21.37h2.17V33.8H98.43z"/>
		<path class="st0" d="M115.7,33.8l-5.22-5.08l-5.16,5.08h-2.82l6.67-6.46l-6.19-5.97h2.99l4.74,4.6l4.67-4.6h2.82l-6.19,5.97
			l6.74,6.46H115.7z"/>
	</g>
</g>
<g>
	<path class="st1" d="M131.88,33.8l-0.48-1.57h-0.08c-0.55,0.69-1.09,1.16-1.65,1.41c-0.55,0.25-1.26,0.37-2.13,0.37
		c-1.11,0-1.98-0.3-2.6-0.9c-0.62-0.6-0.94-1.45-0.94-2.55c0-1.17,0.43-2.04,1.3-2.64c0.87-0.59,2.18-0.92,3.96-0.97l1.95-0.06v-0.6
		c0-0.72-0.17-1.26-0.51-1.62c-0.34-0.36-0.86-0.54-1.57-0.54c-0.58,0-1.13,0.09-1.67,0.26c-0.53,0.17-1.04,0.37-1.53,0.6
		l-0.78-1.72c0.61-0.32,1.28-0.56,2.01-0.73c0.73-0.17,1.42-0.25,2.07-0.25c1.44,0,2.52,0.31,3.26,0.94c0.73,0.63,1.1,1.61,1.1,2.95
		v7.62H131.88z M128.3,32.17c0.87,0,1.57-0.24,2.1-0.73c0.53-0.49,0.79-1.17,0.79-2.05V28.4l-1.45,0.06
		c-1.13,0.04-1.95,0.23-2.47,0.57c-0.51,0.34-0.77,0.85-0.77,1.55c0,0.5,0.15,0.89,0.45,1.17C127.25,32.03,127.7,32.17,128.3,32.17z
		"/>
	<path class="st1" d="M142.33,34.01c-1.71,0-3.01-0.5-3.9-1.5c-0.89-1-1.33-2.43-1.33-4.3c0-1.9,0.47-3.36,1.4-4.39
		c0.93-1.02,2.27-1.53,4.03-1.53c1.19,0,2.27,0.22,3.22,0.66l-0.73,1.93c-1.02-0.39-1.85-0.59-2.52-0.59c-1.96,0-2.93,1.3-2.93,3.9
		c0,1.27,0.24,2.22,0.73,2.86c0.49,0.64,1.2,0.96,2.14,0.96c1.07,0,2.08-0.27,3.04-0.8v2.1c-0.43,0.25-0.89,0.43-1.38,0.54
		C143.62,33.95,143.02,34.01,142.33,34.01z"/>
	<path class="st1" d="M156.03,33.8l-0.48-1.57h-0.08c-0.55,0.69-1.09,1.16-1.65,1.41c-0.55,0.25-1.26,0.37-2.13,0.37
		c-1.11,0-1.98-0.3-2.6-0.9c-0.62-0.6-0.94-1.45-0.94-2.55c0-1.17,0.43-2.04,1.3-2.64c0.87-0.59,2.18-0.92,3.96-0.97l1.95-0.06v-0.6
		c0-0.72-0.17-1.26-0.51-1.62c-0.34-0.36-0.86-0.54-1.57-0.54c-0.58,0-1.13,0.09-1.67,0.26c-0.53,0.17-1.04,0.37-1.53,0.6
		l-0.78-1.72c0.61-0.32,1.28-0.56,2.01-0.73c0.73-0.17,1.42-0.25,2.07-0.25c1.44,0,2.52,0.31,3.26,0.94c0.73,0.63,1.1,1.61,1.1,2.95
		v7.62H156.03z M152.45,32.17c0.87,0,1.57-0.24,2.1-0.73c0.53-0.49,0.79-1.17,0.79-2.05V28.4l-1.45,0.06
		c-1.13,0.04-1.95,0.23-2.47,0.57c-0.51,0.34-0.77,0.85-0.77,1.55c0,0.5,0.15,0.89,0.45,1.17C151.4,32.03,151.85,32.17,152.45,32.17
		z"/>
	<path class="st1" d="M165.73,34.01c-1.41,0-2.51-0.51-3.3-1.53c-0.79-1.02-1.19-2.46-1.19-4.3c0-1.85,0.4-3.3,1.2-4.33
		c0.8-1.03,1.91-1.55,3.33-1.55c1.49,0,2.62,0.55,3.39,1.65h0.12c-0.12-0.81-0.17-1.45-0.17-1.92v-4.12h2.41V33.8h-1.88l-0.42-1.48
		h-0.11C168.34,33.44,167.21,34.01,165.73,34.01z M166.37,32.06c0.99,0,1.71-0.28,2.16-0.83c0.45-0.56,0.68-1.46,0.69-2.7v-0.34
		c0-1.42-0.23-2.44-0.69-3.04c-0.46-0.6-1.19-0.9-2.18-0.9c-0.85,0-1.5,0.34-1.95,1.03c-0.46,0.68-0.69,1.66-0.69,2.93
		c0,1.25,0.22,2.21,0.66,2.87C164.82,31.73,165.49,32.06,166.37,32.06z"/>
	<path class="st1" d="M180.71,34.01c-1.76,0-3.13-0.51-4.13-1.54c-0.99-1.03-1.49-2.44-1.49-4.24c0-1.85,0.46-3.3,1.38-4.36
		c0.92-1.06,2.18-1.58,3.79-1.58c1.49,0,2.67,0.45,3.54,1.36c0.87,0.91,1.3,2.15,1.3,3.74v1.3h-7.53c0.03,1.1,0.33,1.94,0.89,2.53
		c0.56,0.59,1.35,0.88,2.36,0.88c0.67,0,1.29-0.06,1.87-0.19c0.58-0.13,1.19-0.34,1.86-0.63v1.95c-0.59,0.28-1.18,0.48-1.78,0.59
		C182.17,33.95,181.48,34.01,180.71,34.01z M180.28,24.11c-0.76,0-1.37,0.24-1.84,0.73c-0.46,0.48-0.73,1.19-0.82,2.12h5.13
		c-0.01-0.93-0.24-1.64-0.67-2.12C181.64,24.35,181.04,24.11,180.28,24.11z"/>
	<path class="st1" d="M198.19,33.8h-2.41v-6.97c0-0.87-0.16-1.51-0.49-1.94c-0.33-0.43-0.84-0.64-1.53-0.64
		c-0.93,0-1.61,0.3-2.04,0.9c-0.43,0.6-0.65,1.61-0.65,3.01v5.63h-2.4V22.49h1.88l0.34,1.48H191c0.31-0.54,0.77-0.95,1.36-1.25
		c0.6-0.29,1.25-0.44,1.97-0.44c1.74,0,2.89,0.59,3.46,1.78h0.16c0.33-0.56,0.8-0.99,1.41-1.31c0.61-0.31,1.3-0.47,2.09-0.47
		c1.35,0,2.33,0.34,2.95,1.02c0.62,0.68,0.93,1.72,0.93,3.12v7.37h-2.4v-6.97c0-0.87-0.17-1.51-0.5-1.94
		c-0.33-0.43-0.84-0.64-1.54-0.64c-0.93,0-1.62,0.29-2.05,0.87c-0.43,0.58-0.65,1.48-0.65,2.68V33.8z"/>
	<path class="st1" d="M207.77,22.49h2.62l2.3,6.41c0.35,0.91,0.58,1.77,0.7,2.58h0.08c0.06-0.37,0.17-0.83,0.34-1.36
		c0.16-0.53,1.03-3.08,2.6-7.62h2.6l-4.84,12.81c-0.88,2.35-2.34,3.53-4.4,3.53c-0.53,0-1.05-0.06-1.55-0.17v-1.9
		c0.36,0.08,0.77,0.12,1.24,0.12c1.16,0,1.97-0.67,2.44-2.01l0.42-1.06L207.77,22.49z"/>
</g>
<g>
	<g>
		<path class="st2" d="M118.11,16.99h-0.81v-0.43h2.15v0.43h-0.82v2.41h-0.52V16.99z"/>
		<path class="st2" d="M122.16,18.24c-0.02-0.37-0.04-0.81-0.03-1.2h-0.01c-0.09,0.35-0.21,0.73-0.34,1.09l-0.41,1.23h-0.4
			l-0.38-1.21c-0.11-0.36-0.21-0.75-0.29-1.11h-0.01c-0.01,0.38-0.03,0.83-0.05,1.21l-0.06,1.14h-0.48l0.19-2.84h0.68l0.37,1.14
			c0.1,0.33,0.19,0.67,0.26,0.99h0.01c0.08-0.31,0.17-0.66,0.28-0.99l0.39-1.14h0.67l0.16,2.84h-0.51L122.16,18.24z"/>
	</g>
</g>
<g>
	<g>
		<path class="st3" d="M50.67,40.85c0.29,0.18,0.68,0.31,1.11,0.31c0.76,0,1.23-0.4,1.23-0.98c0-0.52-0.29-0.84-1.03-1.09
			c-0.81-0.27-1.3-0.66-1.3-1.3c0-0.69,0.61-1.19,1.47-1.19c0.47,0,0.84,0.11,1.01,0.22l-0.14,0.29c-0.14-0.09-0.46-0.22-0.9-0.22
			c-0.82,0-1.1,0.49-1.1,0.86c0,0.52,0.32,0.78,1.05,1.05c0.84,0.31,1.28,0.67,1.28,1.37c0,0.68-0.53,1.29-1.61,1.29
			c-0.44,0-0.95-0.13-1.21-0.31L50.67,40.85z"/>
		<path class="st3" d="M54.68,36.67v4.7h-0.36v-4.7H54.68z"/>
		<path class="st3" d="M55.92,41.37v-4.7h0.34l1.97,2.77c0.41,0.59,0.71,1.02,0.96,1.48l0.01-0.01c-0.05-0.63-0.06-1.17-0.06-1.9
			v-2.34h0.35v4.7h-0.33l-1.93-2.73c-0.38-0.54-0.72-1.03-0.99-1.52l-0.01,0.01c0.04,0.58,0.05,1.09,0.05,1.87v2.38H55.92z"/>
		<path class="st3" d="M64.15,41.2c-0.26,0.12-0.74,0.24-1.37,0.24c-1.23,0-2.4-0.73-2.4-2.39c0-1.39,0.97-2.45,2.57-2.45
			c0.65,0,1.02,0.13,1.17,0.2l-0.11,0.28c-0.26-0.12-0.62-0.2-1.05-0.2c-1.37,0-2.2,0.82-2.2,2.17c0,1.28,0.78,2.1,2.14,2.1
			c0.43,0,0.85-0.08,1.14-0.22L64.15,41.2z"/>
		<path class="st3" d="M67.38,39.03h-2.02v2.06h2.26v0.28H65v-4.7h2.51v0.28h-2.14v1.81h2.02V39.03z"/>
		<path class="st3" d="M69.89,41.37v-0.2l0.45-0.43c1.36-1.23,1.96-1.88,1.96-2.66c0-0.52-0.23-1.02-1.06-1.02
			c-0.47,0-0.83,0.22-1.04,0.39l-0.14-0.23c0.32-0.27,0.74-0.45,1.25-0.45c1.02,0,1.36,0.71,1.36,1.25c0,0.89-0.7,1.61-1.93,2.73
			l-0.35,0.33v0.01h2.41v0.28H69.89z"/>
		<path class="st3" d="M74.99,41.44c-0.77,0-1.47-0.7-1.5-2.32c0-1.65,0.78-2.36,1.6-2.36c0.86,0,1.5,0.72,1.5,2.28
			C76.6,40.66,75.96,41.44,74.99,41.44L74.99,41.44z M75.04,41.16c0.81,0,1.18-0.86,1.18-2.09c0-1.19-0.35-2.04-1.17-2.04
			c-0.71,0-1.17,0.84-1.17,2.04C73.85,40.33,74.32,41.16,75.04,41.16L75.04,41.16z"/>
		<path class="st3" d="M78.66,37.18h-0.01l-0.8,0.43l-0.09-0.27l0.93-0.51h0.33v4.53h-0.35V37.18z"/>
		<path class="st3" d="M81.03,40.87c0.17,0.12,0.59,0.29,1.05,0.29c1,0,1.24-0.64,1.23-1.05c-0.01-0.76-0.71-1.07-1.44-1.07h-0.31
			v-0.28h0.32c0.54,0,1.23-0.29,1.23-0.91c0-0.42-0.26-0.81-0.95-0.81c-0.38,0-0.73,0.16-0.95,0.31l-0.14-0.24
			c0.23-0.17,0.68-0.36,1.14-0.36c0.93,0,1.28,0.54,1.28,1.05c0,0.46-0.32,0.86-0.91,1.07v0.01c0.61,0.11,1.11,0.54,1.11,1.2
			c0,0.68-0.53,1.35-1.66,1.35c-0.5,0-0.94-0.16-1.15-0.31L81.03,40.87z"/>
	</g>
</g>
<g>
	<path class="st2" d="M2.65,31.25c0,0-1.86-1.72-1.7-5.2s-0.01-6.04-0.01-6.04h7.3c0,0,6.13,0.39,6.48,6.76v6.43L8.36,22.03
		L2.65,31.25z"/>
	<polygon class="st4" points="4.36,31.99 8.33,25.28 12.89,33.78 3.99,33.78 8.44,30.37 	"/>
</g>
</svg>
