<svg xmlns="http://www.w3.org/2000/svg" width="150" height="60" viewBox="0 0 150 60">
  <g id="Group_3894" data-name="Group 3894" transform="translate(-889 -3282)">
    <rect id="Rectangle_2745" data-name="Rectangle 2745" width="150" height="60" transform="translate(889 3282)" fill="none"/>
    <g id="Group_3893" data-name="Group 3893" transform="translate(907 3301)">
      <path id="Path_4052" data-name="Path 4052" d="M-1306.958-3225.006a1.6,1.6,0,0,1,.25-.038q2.607,0,5.213,0a38.267,38.267,0,0,0,4.411-.185,15.93,15.93,0,0,0,2-.375,2.347,2.347,0,0,0,1.708-1.761,6.364,6.364,0,0,0,.235-1.926,9.981,9.981,0,0,0-.292-2.585,2.3,2.3,0,0,0-.724-1.253,2.924,2.924,0,0,0-1.211-.509,12.445,12.445,0,0,0-2.741-.281c-2.861-.014-5.722-.012-8.583-.019a1.66,1.66,0,0,1-.267-.043v-1.987a2.249,2.249,0,0,1,.254-.028c3.31,0,6.621-.008,9.931,0a9.937,9.937,0,0,1,3.083.452,3.592,3.592,0,0,1,2.437,2.565,11.035,11.035,0,0,1,.412,2.663,17.136,17.136,0,0,1-.065,2.662,8.132,8.132,0,0,1-.478,2.052,3.528,3.528,0,0,1-2.445,2.154,9.73,9.73,0,0,1-2.722.407c-2.567.024-5.133.028-7.7.04-.248,0-.248,0-.248.25v7.964c0,.241,0,.241-.241.242-.657,0-1.314,0-1.971,0a1.3,1.3,0,0,1-.247-.049v-.147c.007-.085.02-.17.02-.254q0-4.859,0-9.719c0-.085-.013-.17-.02-.254Z" transform="translate(1306.958 3236.003)"/>
      <path id="Path_4053" data-name="Path 4053" d="M-294.491-3235.994h.247c3.433,0,6.867-.007,10.3,0a9.522,9.522,0,0,1,3.028.457,3.857,3.857,0,0,1,2.593,2.738,9.193,9.193,0,0,1,.353,2.449,13.658,13.658,0,0,1-.128,2.622,9.12,9.12,0,0,1-.372,1.474,2.763,2.763,0,0,1-1.772,1.651c-.384.142-.789.226-1.184.336a.423.423,0,0,0-.175.073c.2.034.409.059.61.1a3.129,3.129,0,0,1,2.608,2.734,8.454,8.454,0,0,1,.112,1.3c.012,1.766,0,3.532.009,5.3,0,.176-.046.228-.224.226q-.995-.016-1.99,0c-.181,0-.227-.059-.226-.232q.009-2.492,0-4.985a4.585,4.585,0,0,0-.346-1.793,2.6,2.6,0,0,0-2.066-1.61,4.71,4.71,0,0,0-.806-.068q-3.943-.007-7.886,0c-.252,0-.252,0-.252.251q0,4.084,0,8.167c0,.268,0,.268-.275.268-.657,0-1.314,0-1.972,0-.142,0-.189-.035-.189-.184q.006-5.2,0-10.393c0-.048.006-.1.011-.161.073,0,.138-.01.2-.01.553,0,1.106-.021,1.658,0,1.109.05,2.217-.029,3.326-.009s2.211.02,3.316,0a13.7,13.7,0,0,0,3.284-.38,2.822,2.822,0,0,0,2.109-1.739,4.842,4.842,0,0,0,.3-1.6,9.63,9.63,0,0,0-.269-2.771,2.193,2.193,0,0,0-1.341-1.662,6.09,6.09,0,0,0-1.349-.348,21.684,21.684,0,0,0-2.331-.138c-2.893-.015-5.786-.008-8.679,0-.18,0-.245-.036-.24-.23.015-.539.005-1.079.005-1.619Z" transform="translate(331.823 3235.998)"/>
      <path id="Path_4054" data-name="Path 4054" d="M1338.544-3224.227c.232.04.456.07.677.118a3.1,3.1,0,0,1,2.542,2.606,5.559,5.559,0,0,1,.11,1.112c.011,1.864.005,3.728.005,5.592v.2c-.068,0-.126.012-.185.012-.67,0-1.339,0-2.008,0-.163,0-.207-.045-.206-.207.006-1.582.009-3.164,0-4.745a5.106,5.106,0,0,0-.385-2.1,2.586,2.586,0,0,0-2.029-1.551,4.859,4.859,0,0,0-.842-.067q-3.879-.007-7.757,0c-.412,0-.355-.051-.356.346q0,4.037,0,8.075c0,.248,0,.248-.254.248-.657,0-1.314,0-1.971,0-.154,0-.2-.048-.2-.2q.005-5.169,0-10.337c0-.176.074-.2.221-.2q3.759,0,7.518,0a19.361,19.361,0,0,0,3.155-.222,5.724,5.724,0,0,0,1.788-.544,2.784,2.784,0,0,0,1.4-2.015,7,7,0,0,0,.07-2.269,11.73,11.73,0,0,0-.3-1.6,2.234,2.234,0,0,0-1.7-1.641,8.9,8.9,0,0,0-2.363-.337c-3.169-.021-6.338-.024-9.506-.034-.282,0-.282,0-.282-.279,0-.521,0-1.042,0-1.563,0-.147.037-.205.2-.205,3.5,0,7-.008,10.5.009a8.508,8.508,0,0,1,3.171.568,3.807,3.807,0,0,1,2.3,2.667,1.147,1.147,0,0,1,.022.31c0,1.76,0,3.519,0,5.279a2.516,2.516,0,0,1-.995,2.02,4.608,4.608,0,0,1-2.139.877c-.054.01-.109.021-.162.033C1338.573-3224.26,1338.566-3224.247,1338.544-3224.227Z" transform="translate(-1228.627 3236.028)"/>
      <path id="Path_4055" data-name="Path 4055" d="M742.934-3214.636c.126-.348.243-.675.362-1q1.656-4.511,3.312-9.021,2.05-5.589,4.1-11.18a.282.282,0,0,1,.314-.226c.989.01,1.977.008,2.966,0a.263.263,0,0,1,.3.2q1.6,4.305,3.216,8.606l3.709,9.914.965,2.581c.013.033.022.068.042.129-.077.005-.14.014-.2.014-.694,0-1.388-.008-2.082.006a.3.3,0,0,1-.344-.237c-.55-1.514-1.111-3.024-1.666-4.537q-2.383-6.494-4.764-12.99c-.2-.534-.39-1.068-.6-1.644a1.769,1.769,0,0,0-.085.168c-1.152,3.211-2.3,6.425-3.457,9.633-1.14,3.149-2.3,6.293-3.446,9.439-.036.1-.074.166-.2.165-.768-.006-1.535,0-2.3,0C743.031-3214.621,743-3214.628,742.934-3214.636Z" transform="translate(-667.36 3236.064)"/>
      <path id="Path_4056" data-name="Path 4056" d="M-877.185-3214.6c.143-.4.267-.746.4-1.1q1.422-3.873,2.846-7.745,1.684-4.589,3.366-9.178c.394-1.075.791-2.15,1.179-3.228a.271.271,0,0,1,.3-.215c.995.009,1.99.008,2.985,0a.25.25,0,0,1,.279.195q2.671,7.153,5.351,14.3,1.263,3.373,2.523,6.748c.021.056.035.115.059.2-.087.006-.157.015-.227.015-.688,0-1.376-.006-2.064.005a.293.293,0,0,1-.328-.233c-.568-1.56-1.145-3.116-1.719-4.674q-1.518-4.121-3.035-8.243c-.74-2.018-1.469-4.04-2.2-6.06-.019-.051-.043-.1-.084-.194-.042.086-.073.138-.094.194q-.882,2.436-1.762,4.873-1.413,3.905-2.827,7.81c-.757,2.09-1.52,4.178-2.271,6.27a.322.322,0,0,1-.367.256c-.681-.015-1.363-.006-2.045-.006Z" transform="translate(893.029 3236.059)"/>
      <path id="Path_4057" data-name="Path 4057" d="M385.182-3235.905l-9.8,10.315,11.007,11.1c-.125.007-.188.014-.252.014-.952,0-1.9,0-2.856,0a.47.47,0,0,1-.372-.152q-2.454-2.516-4.914-5.025l-3.526-3.6c-.382-.39-.765-.779-1.141-1.175a.36.36,0,0,1-.093-.222c-.007-.583-.009-1.165,0-1.747a.472.472,0,0,1,.115-.29q2.653-2.833,5.316-5.657,1.639-1.741,3.281-3.479a.32.32,0,0,1,.2-.1c.97-.006,1.94,0,2.911,0A.89.89,0,0,1,385.182-3235.905Z" transform="translate(-311.291 3235.935)"/>
      <path id="Path_4058" data-name="Path 4058" d="M249.956-3225.349q0-5.243,0-10.485c0-.185.043-.24.233-.237.651.012,1.3,0,1.953,0,.253,0,.254,0,.254.25q0,8.323,0,16.647c0,1.441,0,2.882,0,4.323,0,.185-.049.243-.238.24-.657-.01-1.314-.011-1.971,0-.192,0-.234-.06-.234-.241Q249.96-3220.1,249.956-3225.349Z" transform="translate(-192.553 3236.071)"/>
    </g>
  </g>
</svg>
