<svg xmlns="http://www.w3.org/2000/svg" width="150" height="60" viewBox="0 0 150 60">
  <g id="Group_3894" data-name="Group 3894" transform="translate(-526 -3198)">
    <rect id="Rectangle_2745" data-name="Rectangle 2745" width="150" height="60" transform="translate(526 3198)" fill="none"/>
    <g id="Group_3889" data-name="Group 3889" transform="translate(550 3219)">
      <path id="Path_3724" data-name="Path 3724" d="M-2185.626-67.968a17.457,17.457,0,0,1,2.489.333,10.417,10.417,0,0,1,3.671,1.507,7.75,7.75,0,0,1,2.772,3.293,9.7,9.7,0,0,1,.781,2.987,10.941,10.941,0,0,1-.007,2.651,8.3,8.3,0,0,1-3.634,5.979,10.227,10.227,0,0,1-3.527,1.486,16.17,16.17,0,0,1-3.663.376q-2.526,0-5.052,0c-.068,0-.135-.006-.2-.008V-67.756a.2.2,0,0,1,.134-.036c.679-.059,1.359-.11,2.041-.132l1.6-.051a2.608,2.608,0,0,0,.611-.025h1.624A.736.736,0,0,0-2185.626-67.968Zm-1.879,9.367h.009v5.437c0,.188,0,.191.184.191.48,0,.96-.008,1.44-.009a5.753,5.753,0,0,0,1.795-.281,4.727,4.727,0,0,0,3.265-3.3,7.234,7.234,0,0,0,.019-3.984,4.891,4.891,0,0,0-1.487-2.442,5.32,5.32,0,0,0-3.451-1.313c-.507-.018-1.014.009-1.521.039-.251.015-.253.014-.253.265Q-2187.506-61.3-2187.505-58.6Z" transform="translate(2192 68)" fill="#1f2430"/>
      <path id="Path_3725" data-name="Path 3725" d="M-265.45,184.545a8.413,8.413,0,0,1-1.649-.409,6.158,6.158,0,0,1-3.875-4.06,7.815,7.815,0,0,1,.477-6.03,6.033,6.033,0,0,1,3.771-3.144,8.724,8.724,0,0,1,3.128-.34,7.29,7.29,0,0,1,2.365.516,5.944,5.944,0,0,1,3.122,2.935,7.609,7.609,0,0,1,.8,3.567,8.14,8.14,0,0,1-.362,2.4,6.33,6.33,0,0,1-4.206,4.229,8.871,8.871,0,0,1-1.5.342,3.394,3.394,0,0,0-.606.071h-.812A3.663,3.663,0,0,0-265.45,184.545Zm-1.3-6.974a6.2,6.2,0,0,0,.162,1.467,3.362,3.362,0,0,0,.817,1.605,1.959,1.959,0,0,0,2.8.052,3.016,3.016,0,0,0,.768-1.362,6.508,6.508,0,0,0,.111-3.09,3.806,3.806,0,0,0-.673-1.591,2.014,2.014,0,0,0-2.99-.19,3.027,3.027,0,0,0-.621.965A5.764,5.764,0,0,0-266.752,177.571Z" transform="translate(310.353 -165.699)" fill="#1f2430"/>
      <path id="Path_3726" data-name="Path 3726" d="M-1320.917,183.681c-.287-.042-.576-.077-.861-.128a7.094,7.094,0,0,1-3.323-1.461,5.909,5.909,0,0,1-2.058-3.319,8.317,8.317,0,0,1,.545-5.545,6.011,6.011,0,0,1,3.255-3.13,6.433,6.433,0,0,1,2.029-.456,7.586,7.586,0,0,1,2.651.258,5.245,5.245,0,0,1,3.361,2.848,7.48,7.48,0,0,1,.7,2.549,10.086,10.086,0,0,1-.005,2.187c-.02.174-.057.347-.083.52-.012.081-.051.119-.135.112-.047,0-.094,0-.142,0h-7.795a.685.685,0,0,0-.25.017,2.041,2.041,0,0,0,.43,1.011,2.746,2.746,0,0,0,1.353.889,5.721,5.721,0,0,0,1.635.27,9.293,9.293,0,0,0,3.308-.513c.194-.065.2-.064.24.139q.3,1.367.59,2.735c.033.155.03.153-.117.212a10.838,10.838,0,0,1-2.273.659c-.341.055-.683.091-1.026.126-.04,0-.08.013-.119.02a.493.493,0,0,0-.284.034h-1.38C-1320.748,183.658-1320.834,183.682-1320.917,183.681Zm.016-8.58h1.846c.38,0,.386,0,.33-.375a2.429,2.429,0,0,0-.591-1.312,2.048,2.048,0,0,0-2.041-.592,2.228,2.228,0,0,0-1.769,2.144c-.006.131,0,.134.156.134Z" transform="translate(1344.95 -164.799)" fill="#1f2430"/>
      <path id="Path_3727" data-name="Path 3727" d="M1866.313,183.392a9.076,9.076,0,0,1-2.064-.494,6.12,6.12,0,0,1-3.562-3.325,7.133,7.133,0,0,1-.558-2.335,8.681,8.681,0,0,1,.293-3.052,6.7,6.7,0,0,1,1.934-3.227,5.948,5.948,0,0,1,3-1.465,7.6,7.6,0,0,1,3.1.06,5.289,5.289,0,0,1,3.857,3.251,7.856,7.856,0,0,1,.576,2.435,10.361,10.361,0,0,1,0,1.823c-.021.236-.062.469-.106.7-.014.072-.044.107-.121.1-.053-.005-.108,0-.162,0h-8.043a2.2,2.2,0,0,0,1.04,1.568,3.879,3.879,0,0,0,1.538.539,8.67,8.67,0,0,0,3.885-.345c.148-.046.3-.093.45-.142a2.118,2.118,0,0,1,.126.49c.179.8.351,1.611.525,2.416.037.174.037.173-.12.235a11.15,11.15,0,0,1-2.013.611c-.352.066-.708.107-1.063.156l-.2.01c-.272.015-.541.062-.813.061h-.69Zm.265-8.543v0h1.136c.318,0,.636,0,.954,0,.1,0,.132-.029.127-.128a2.547,2.547,0,0,0-.048-.382,2.367,2.367,0,0,0-.689-1.306,2.052,2.052,0,0,0-1.692-.5,2.234,2.234,0,0,0-2,2.15c-.012.164-.006.167.163.167Z" transform="translate(-1777.847 -164.545)" fill="#1f2430"/>
      <path id="Path_3728" data-name="Path 3728" d="M837.839-3.553c-.084-.08-.2-.063-.3-.079a4.2,4.2,0,0,1-2.022-.826,3.839,3.839,0,0,1-1.292-2.015,6.4,6.4,0,0,1-.248-1.782q0-2.75,0-5.5c0-.276.047-.255-.263-.255-.433,0-.866,0-1.3,0-.17,0-.173,0-.173-.163q0-1.512,0-3.024c0-.158,0-.16.173-.16l1.38,0c.186,0,.187,0,.187-.187q0-1.623,0-3.247c0-.047,0-.095,0-.142,0-.076.029-.106.105-.115.491-.053.981-.109,1.471-.164l2.377-.27c.121-.014.242-.025.362-.042.075-.011.118,0,.113.09,0,.047,0,.095,0,.142q0,1.857,0,3.713c0,.243-.02.22.216.22h2.618c.06,0,.083.033.082.089,0,.041,0,.081,0,.122q0,1.461,0,2.922c0,.014,0,.027,0,.041,0,.174,0,.176-.182.176h-2.557c-.175,0-.177,0-.177.18q0,2.354,0,4.708a2.259,2.259,0,0,0,.209,1,1.425,1.425,0,0,0,1.131.79,4.252,4.252,0,0,0,1.331-.06c.167-.025.331-.065.5-.1.14-.027.144-.025.15.125,0,.1,0,.2,0,.3q.008,1.431.015,2.861c0,.189,0,.19-.188.238a15.229,15.229,0,0,1-2.076.355c-.047.005-.111-.02-.138.049Z" transform="translate(-770.853 22.473)" fill="#1f2430"/>
      <path id="Path_3729" data-name="Path 3729" d="M1353.485-3.433a3.29,3.29,0,0,0-.63-.119,3.842,3.842,0,0,1-2.33-1.326,4.4,4.4,0,0,1-.858-1.926,7.894,7.894,0,0,1-.139-1.614v-5.115c0-.034,0-.068,0-.1,0-.279.03-.254-.245-.255h-1.258c-.047,0-.095,0-.142,0s-.086-.027-.085-.086c0-.041,0-.081,0-.122V-17.04c0-.041,0-.081,0-.122a.066.066,0,0,1,.074-.074h.142c.426,0,.852,0,1.279,0,.265,0,.243.032.242-.234q0-1.583-.007-3.166c0-.034,0-.068,0-.1,0-.175,0-.173.176-.193l2.72-.311c.463-.053.927-.1,1.391-.155.141-.016.144-.017.145.133,0,.514,0,1.028,0,1.543v2.253c0,.047,0,.095,0,.142s.022.09.084.088.095,0,.142,0h2.476c.211,0,.2-.024.2.191q0,1.482,0,2.963c0,.041,0,.081,0,.122a.068.068,0,0,1-.076.073l-.162,0h-2.415c-.047,0-.095,0-.142,0-.077,0-.114.028-.109.107,0,.034,0,.068,0,.1q0,2.283,0,4.567a2.708,2.708,0,0,0,.132.939,1.433,1.433,0,0,0,1.216.97,4.313,4.313,0,0,0,1.331-.064c.2-.03.407-.075.6-.112a.148.148,0,0,1,.026.11q.015,1.6.03,3.207c0,.18,0,.181-.177.226a16.779,16.779,0,0,1-1.854.336c-.231.006-.458.043-.687.071Z" transform="translate(-1275.944 22.352)" fill="#1f2430"/>
      <path id="Path_3730" data-name="Path 3730" d="M2566.229,622.706a.708.708,0,0,0-.246-.083,2.529,2.529,0,0,1-1.832-2.035,2.5,2.5,0,0,1,4.858-1.132c.022.068-.009.153.062.205v1.055c-.063.085-.045.193-.08.288a2.49,2.49,0,0,1-1.744,1.62.872.872,0,0,0-.247.081Z" transform="translate(-2467.577 -603.787)" fill="#1f2430"/>
      <path id="Path_3731" data-name="Path 3731" d="M-2007.961-67.975-2008-68h.649A2.606,2.606,0,0,1-2007.961-67.975Z" transform="translate(2011.734 68)" fill="#1f2430"/>
      <path id="Path_3732" data-name="Path 3732" d="M-594.062-43.575q0-4.454,0-8.908c0-.278-.04-.252.244-.252h4.038a.76.76,0,0,0,.1,0c.113-.015.142.043.132.142,0,.04,0,.081,0,.122q0,8.9,0,17.795c0,.3.034.261-.253.262q-2.019,0-4.038,0c-.251,0-.223.025-.223-.232Q-594.062-39.111-594.062-43.575Z" transform="translate(626.501 53.047)" fill="#1f2430"/>
      <path id="Path_3733" data-name="Path 3733" d="M523.918,190.714q0,3.237,0,6.474c0,.054,0,.108,0,.162,0,.075-.023.115-.1.11-.04,0-.081,0-.122,0h-4.059c-.041,0-.081,0-.122,0-.076.005-.115-.024-.111-.1,0-.047,0-.095,0-.142q0-6.514,0-13.029c0-.275-.026-.239.235-.239q2.009,0,4.018,0c.3,0,.262-.039.262.253Q523.919,187.457,523.918,190.714Z" transform="translate(-464.362 -178.832)" fill="#1f2430"/>
      <path id="Path_3734" data-name="Path 3734" d="M521.66-48.763h-2.069c-.172,0-.174,0-.174-.178q0-1.572,0-3.144c0-.179,0-.18.172-.181h4.179c.162,0,.165,0,.165.169q0,1.582,0,3.164c0,.168,0,.169-.183.17Z" transform="translate(-464.378 52.586)" fill="#1f2430"/>
    </g>
  </g>
</svg>
