<svg xmlns="http://www.w3.org/2000/svg" width="150" height="60" viewBox="0 0 150 60">
  <g id="Group_3894" data-name="Group 3894" transform="translate(-335 -3288)">
    <rect id="Rectangle_2745" data-name="Rectangle 2745" width="150" height="60" transform="translate(335 3288)" fill="none"/>
    <g id="Group_3887" data-name="Group 3887" transform="translate(336 3308)">
      <path id="Path_4018" data-name="Path 4018" d="M496.579,652.587a9.56,9.56,0,0,1-4.968-1.144,6.2,6.2,0,0,1-3.481-5.753,6.058,6.058,0,0,1,3.5-5.735,10.4,10.4,0,0,1,9.82-.007,6.085,6.085,0,0,1,3.522,5.9,6.235,6.235,0,0,1-3.679,5.7A9.477,9.477,0,0,1,496.579,652.587Zm-5.363-7.135c.134.938.184,1.644.34,2.327a5.092,5.092,0,0,0,9.866.406,8.4,8.4,0,0,0-.162-5.44,4.737,4.737,0,0,0-4.646-3.182,4.665,4.665,0,0,0-4.717,3.061A21.348,21.348,0,0,0,491.216,645.452Z" transform="translate(-390.345 -633.49)"/>
      <path id="Path_4019" data-name="Path 4019" d="M680.417,649.9c.02-.386.043-.626.043-.867q0-3.718,0-7.435c0-.9,0-.9.993-.779v13.25l-12.693-9.309V653.8c-1.016.213-1.056.183-1.056-.713q0-5.862,0-11.725v-.782Z" transform="translate(-549.254 -635.133)"/>
      <path id="Path_4020" data-name="Path 4020" d="M842.048,648.307c.213.89.17.947-.664.947h-6.669c-.013.242-.034.443-.034.644,0,1.353.026,2.707-.015,4.059-.018.571.132.755.728.747,2.394-.033,4.788-.014,7.182-.014h.711v.864H831.6V642.5h11.565v.9h-8.451c-.014.26-.033.461-.034.662,0,1.182.036,2.365-.017,3.545-.028.61.191.724.748.716,2.011-.031,4.022-.012,6.033-.012Z" transform="translate(-694.288 -636.832)"/>
      <path id="Path_4021" data-name="Path 4021" d="M134.438,642.631c.012.164.029.294.029.424s-.019.262-.035.467H125.95v4.9h.728c2.05,0,4.1,0,6.151,0,.33,0,.54.031.544.448s-.179.511-.555.509c-2.05-.011-4.1-.005-6.151-.005H125.9c0,.593,0,1.122,0,1.651,0,1.068.016,2.136-.006,3.2-.009.446.149.594.6.591,2.453-.017,4.905-.009,7.358-.006.225,0,.449.019.7.03v.82H122.837v-13.03Z" transform="translate(-67.091 -636.951)"/>
      <path id="Path_4022" data-name="Path 4022" d="M255.708,641.385a10.916,10.916,0,0,0-5.463-1.256,9.617,9.617,0,0,0-2.452.506,1.689,1.689,0,0,0-1.265,1.606,1.608,1.608,0,0,0,1.151,1.562c1.176.443,2.4.768,3.593,1.158a36.334,36.334,0,0,1,3.463,1.187,3.2,3.2,0,0,1,2.131,3.163,3.135,3.135,0,0,1-1.5,2.618,6.689,6.689,0,0,1-3.236,1.07,13.45,13.45,0,0,1-8.216-1.795,1.859,1.859,0,0,1-.177-.146l.475-.675c.9.4,1.744.834,2.634,1.154a9.442,9.442,0,0,0,5.694.392,4.092,4.092,0,0,0,1.336-.629,1.508,1.508,0,0,0,.066-2.53,5.753,5.753,0,0,0-1.722-.873c-1.217-.394-2.478-.652-3.694-1.047a12.03,12.03,0,0,1-2.576-1.086,3.134,3.134,0,0,1,.045-5.474,7.821,7.821,0,0,1,3.725-1.027,12.868,12.868,0,0,1,5.408.821C255.9,640.375,255.935,640.454,255.708,641.385Z" transform="translate(-174.076 -633.946)"/>
      <path id="Path_4023" data-name="Path 4023" d="M-260.057,593.343c-6.411,4.9-10.427,11.509-13.646,18.859l-7.663-13.289c1.2,0,2.28-.021,3.361.022.174.007.384.272.5.465q2.23,3.831,4.435,7.676c.1.178.217.349.382.614.17-.3.3-.513.424-.739a45.022,45.022,0,0,1,9.062-12.218,9.7,9.7,0,0,0,.807-.73A2.268,2.268,0,0,1-260.057,593.343Z" transform="translate(290.595 -593.272)"/>
      <path id="Path_4024" data-name="Path 4024" d="M-154.734,653.775l7.637-13.249,7.677,13.316c-1.167,0-2.212.013-3.256-.015-.14,0-.317-.188-.4-.332-.4-.67-.755-1.371-1.182-2.024a.943.943,0,0,0-.662-.383c-2.221-.028-4.443-.009-6.665-.025a.712.712,0,0,0-.719.431c-.294.556-.615,1.1-.926,1.645C-153.695,653.952-153.7,653.951-154.734,653.775Zm9.7-3.688-3.235-5.692-3.228,5.692Z" transform="translate(178.536 -635.088)"/>
      <path id="Path_4025" data-name="Path 4025" d="M378.372,642.569v.892h-5.055v12.15h-3.105V643.523c-.268-.016-.469-.038-.67-.039-1.226,0-2.451,0-3.677,0-.851,0-.868-.021-.7-.913Z" transform="translate(-281.458 -636.896)"/>
      <path id="Path_4026" data-name="Path 4026" d="M-15.694,642.03l-7.642,13.258-7.689-13.339c.56,0,1.021-.008,1.482,0,.665.014,1.45-.167,1.959.124.489.28.7,1.051,1.019,1.613q1.981,3.478,3.956,6.961c.121.213.252.42.431.717.149-.233.262-.4.36-.567,1.536-2.7,3.093-5.39,4.589-8.113A1.124,1.124,0,0,1-15.694,642.03Z" transform="translate(69.065 -636.311)"/>
      <path id="Path_4027" data-name="Path 4027" d="M-353.878,655.649l-7.684-13.329c1.206,0,2.323-.01,3.439.015.118,0,.263.2.342.336q2.749,4.75,5.476,9.513a.7.7,0,0,1,.074.565C-352.742,653.7-353.293,654.631-353.878,655.649Z" transform="translate(361.562 -636.673)"/>
    </g>
  </g>
</svg>
