<svg xmlns="http://www.w3.org/2000/svg" width="150" height="60" viewBox="0 0 150 60">
  <g id="Group_3894" data-name="Group 3894" transform="translate(44 -3285)">
    <rect id="Rectangle_2745" data-name="Rectangle 2745" width="150" height="60" transform="translate(-44 3285)" fill="none"/>
    <g id="Group_3885" data-name="Group 3885" transform="translate(-36 3286)">
      <path id="Path_4081" data-name="Path 4081" d="M-67.632-4476.47c.1-.073.191-.152.294-.215.04-.025.1-.011.152-.02.737-.126.875-.459.419-1.048q-1.93-2.492-3.871-4.976c-.055-.07-.122-.13-.228-.241-.409.363-.817.709-1.2,1.082-.072.07-.062.242-.063.367,0,1.008,0,2.017,0,3.025,0,1.292.421,1.74,1.75,1.825l.031.321h-4.878l-.015-.293c.316-.048.6-.069.873-.138a.989.989,0,0,0,.805-.966c.02-.244.021-.491.021-.736q0-4.091,0-8.182c0-.143,0-.285-.008-.427a1.126,1.126,0,0,0-1.2-1.187,1.505,1.505,0,0,1-.547-.092c.087-.083.173-.239.26-.24,1.524-.014,3.049-.01,4.591-.01v.341c-.12,0-.235,0-.351,0a1.139,1.139,0,0,0-1.322,1.145,2.662,2.662,0,0,0-.015.387c0,1.29,0,2.579,0,3.917a.944.944,0,0,0,.2-.095q2.139-1.937,4.273-3.879a6.285,6.285,0,0,0,.568-.582c.35-.415.233-.757-.3-.866a4.4,4.4,0,0,1-.7-.122c.084-.078.167-.223.251-.223,1.473-.014,2.945-.01,4.442-.01l.016.307-.906.053a3.612,3.612,0,0,0-2.153,1.26q-1.611,1.452-3.22,2.9a.66.66,0,0,0-.077.122l1.8,2.306c.918,1.18,1.832,2.363,2.758,3.536a8.2,8.2,0,0,0,.854.949,1.026,1.026,0,0,0,1.22.32,1.2,1.2,0,0,0,.623-1.162c.01-.814,0-1.629,0-2.443,0-.66,0-1.318,0-1.978,0-.837-.151-.962-1.079-.838.091-.139.128-.269.207-.3q.866-.388,1.748-.738a1.257,1.257,0,0,1,.4-.006v1.5c.312-.185.553-.339.8-.474a15.884,15.884,0,0,1,1.718-.884,2.007,2.007,0,0,1,2.907,1.772c.055.447.063.9.076,1.35.033,1.162.052,2.323.084,3.485.018.646.206.8,1.056.912v.3h-3.509c.095-.147.142-.31.22-.327a1.038,1.038,0,0,0,.9-1.164c-.03-1.482,0-2.969-.124-4.442a1.428,1.428,0,0,0-2.1-1.215,14.5,14.5,0,0,0-1.853,1.028.471.471,0,0,0-.167.352q-.014,2.327,0,4.653c0,.527.209.711.8.78.075.008.152.009.248.015v.321h-7.4Z" transform="translate(124.301 4530.443)"/>
      <path id="Path_4082" data-name="Path 4082" d="M-548.167-4687.624c1.017-.075,2.038-.112,3.049-.235,1.252-.151,2.5-.341,3.739-.578a12.248,12.248,0,0,0,2-.6c.643-.242,1.256-.562,1.849-.833a6.712,6.712,0,0,1-3.916,3.65,29.835,29.835,0,0,1-5.955,1.327,43.918,43.918,0,0,1-6.849.268,32.682,32.682,0,0,1-9.215-1.512c-1.281-.432-1.279-.44-1.735-1.724-.1-.287-.2-.577-.319-.929.618.144,1.167.309,1.728.394,1.653.248,3.306.523,4.969.675,1.838.167,3.686.259,5.531.291,1.6.028,3.2-.072,4.8-.121a1.63,1.63,0,0,0,.334-.08Z" transform="translate(576.465 4716.063)"/>
      <path id="Path_4083" data-name="Path 4083" d="M-393.071-4858.725v-3.827c.14,0,.276,0,.411,0,2.2.05,4.393.06,6.586.165,1.944.093,3.889.237,5.821.466,1.18.141,2.336.488,3.5.742a.53.53,0,0,1,.471.512c.069.728.152,1.455.224,2.13Z" transform="translate(417.405 4875.338)"/>
      <path id="Path_4084" data-name="Path 4084" d="M-493.869-5024.743a10.677,10.677,0,0,0-.8,4.214c-.328,4.278-.481,8.563-.488,12.853,0,.126-.011.253-.019.417h-3.634c0-.958-.028-1.9.006-2.837.066-1.818.115-3.641.27-5.453.126-1.474.37-2.94.611-4.4.135-.821.347-1.632.561-2.438a2.643,2.643,0,0,1,2.438-2.167C-494.591-5024.59-494.26-5024.672-493.869-5024.743Z" transform="translate(514.944 5024.934)"/>
      <path id="Path_4085" data-name="Path 4085" d="M-698.777-4484.8c.078-.071.155-.2.234-.205,1.225-.014,2.451-.009,3.7-.009,0,1.4.006,2.77-.011,4.137a.477.477,0,0,1-.255.315,11.906,11.906,0,0,1-3.545,1,7.841,7.841,0,0,1-3.409-.135,5.747,5.747,0,0,1-4.246-4.661,6.545,6.545,0,0,1,6.531-7.939,13.022,13.022,0,0,1,3.479.494,8.646,8.646,0,0,0,1.385.144c0,.88.007,1.857-.012,2.834,0,.082-.174.159-.243.218a15.8,15.8,0,0,0-.8-1.687,3.315,3.315,0,0,0-2.394-1.483,4.922,4.922,0,0,0-4.667,1.456,6.183,6.183,0,0,0-1.548,3.6,6.859,6.859,0,0,0,.638,4.026,5.062,5.062,0,0,0,5.723,2.668,12.176,12.176,0,0,0,1.537-.513.447.447,0,0,0,.248-.318c.011-.853.025-1.707-.027-2.557-.055-.9-.455-1.244-1.368-1.271-.284-.008-.568,0-.852,0Z" transform="translate(706.447 4533.836)"/>
      <path id="Path_4086" data-name="Path 4086" d="M742.61-4425.406a8.842,8.842,0,0,1-1.125-.547.912.912,0,0,1,.14-1.709c.279-.132.576-.228.858-.354a4.577,4.577,0,0,0,.439-.257,9.809,9.809,0,0,1-.915-.57,2.618,2.618,0,0,1,.18-4.152,3.818,3.818,0,0,1,4.419-.081.593.593,0,0,0,.391.086c.513-.04,1.025-.1,1.57-.161-.115.687-.665.794-1.18.958a7.259,7.259,0,0,1,.241.994,2.783,2.783,0,0,1-2.211,2.983,3.351,3.351,0,0,1-1.944.062.346.346,0,0,0-.249.015,6.525,6.525,0,0,0-.851.528c-.137.108-.3.327-.273.461a.621.621,0,0,0,.391.412,20.983,20.983,0,0,0,2.1.282c.938.078,1.885.061,2.817.175a1.855,1.855,0,0,1,1.664,1.6,2.061,2.061,0,0,1-.6,1.767,4.834,4.834,0,0,1-2.523,1.5,7.334,7.334,0,0,1-3.595.121,2.76,2.76,0,0,1-.473-.165,1.7,1.7,0,0,1-.573-2.922A11.967,11.967,0,0,1,742.61-4425.406Zm1.132.058c-.673-.177-1.183.307-1.6.915a1.275,1.275,0,0,0,.13,1.7,3.713,3.713,0,0,0,5.431-.185c.865-1.07.458-2.085-.9-2.253C745.844-4425.29,744.873-4425.288,743.742-4425.348Zm-1.452-5.789a11.987,11.987,0,0,0,.308,1.34,1.966,1.966,0,0,0,2.033,1.407,1.918,1.918,0,0,0,1.669-1.594,3.424,3.424,0,0,0-.2-2.233,1.965,1.965,0,0,0-2.854-.913A2.228,2.228,0,0,0,742.29-4431.137Z" transform="translate(-628.329 4479.825)"/>
      <path id="Path_4087" data-name="Path 4087" d="M-392.037-5017.561h-3.615c-.045-3.2-.089-6.4-.134-9.632.381,0,.776-.017,1.168.006.333.02.665.128.994.118.366-.01.488.2.607.472a8.8,8.8,0,0,1,.6,2.825c.145,1.748.256,3.5.373,5.25C-392.019-5018.215-392.037-5017.906-392.037-5017.561Z" transform="translate(419.909 5027.198)"/>
      <path id="Path_4088" data-name="Path 4088" d="M-379.81-4479.292c0-1.2,0-2.308,0-3.419q0-3.526,0-7.052c0-.977-.117-1.068-1.139-.862.056-.133.072-.282.136-.308.66-.261,1.326-.5,1.994-.746a.91.91,0,0,1,.26,0v5.871c.183-.115.29-.192.406-.254a11.7,11.7,0,0,1,1.985-1.022,2.976,2.976,0,0,1,3.478,1.909,4.4,4.4,0,0,1-3.652,6.174,4.314,4.314,0,0,1-.808.053C-378.032-4479.046-378.907-4479.173-379.81-4479.292Zm1.256-4.038h-.009a12.294,12.294,0,0,0,.017,1.663,3.18,3.18,0,0,0,.447,1.363,2.417,2.417,0,0,0,3.74-.126,4.248,4.248,0,0,0,.034-4.857,2.263,2.263,0,0,0-2.463-.982,6.809,6.809,0,0,0-1.519.733.587.587,0,0,0-.236.426C-378.57-4484.518-378.555-4483.924-378.555-4483.33Z" transform="translate(406.227 4533.272)"/>
      <path id="Path_4089" data-name="Path 4089" d="M634.545-4486.909c0-1.12.016-2.177-.007-3.233-.01-.493-.241-.637-.714-.531-.111.025-.223.046-.418.085.055-.143.068-.289.128-.311.7-.267,1.4-.516,2.107-.766a.531.531,0,0,1,.173.008v12.346c-.538.093-1.1.206-1.661.283a6.649,6.649,0,0,1-3.712-.407,3.575,3.575,0,0,1-2.1-3.824c.306-3.194,3.337-4.3,5.661-3.779C634.167-4487,634.328-4486.96,634.545-4486.909Zm.013,3.088c0-.762-.018-1.524.008-2.286.011-.329-.132-.449-.417-.523a3.584,3.584,0,0,0-2.823.428,3.639,3.639,0,0,0-1.737,3.376,3.294,3.294,0,0,0,1.291,2.885,2.412,2.412,0,0,0,2.567.224,2.01,2.01,0,0,0,1.111-2.012C634.554-4482.427,634.558-4483.124,634.558-4483.821Z" transform="translate(-524.676 4533.253)"/>
      <path id="Path_4090" data-name="Path 4090" d="M311.892-4430.81c-.067.082-.123.219-.2.236-.607.13-.84.614-1.043,1.1-.883,2.121-1.749,4.249-2.622,6.375-.02.047-.043.093-.061.133-.357.087-.542-.021-.689-.385-.668-1.658-1.378-3.3-2.074-4.944-.018-.043-.046-.083-.118-.212-.23.533-.433,1-.631,1.461-.547,1.28-1.1,2.559-1.632,3.843-.074.176-.141.268-.353.266a.374.374,0,0,1-.407-.251c-.735-1.684-1.482-3.363-2.227-5.043-.25-.564-.512-1.124-.753-1.692a1.008,1.008,0,0,0-.762-.635c-.114-.025-.2-.158-.306-.241l.066-.093H301.4a1.5,1.5,0,0,1-.219.276.6.6,0,0,1-.223.051c-.555.118-.656.3-.417.849.434.991.882,1.978,1.324,2.966l1.017,2.277c.145-.312.262-.542.362-.779.448-1.067.854-2.154,1.353-3.2a1.212,1.212,0,0,0-.079-1.324,1.605,1.605,0,0,0-1.094-.783c-.109-.02-.2-.157-.293-.241l.07-.108c1.1,0,2.2,0,3.293.007.072,0,.143.093.215.143a.891.891,0,0,1-.226.143c-.632.166-.752.358-.507.967.665,1.652,1.35,3.3,2.028,4.943.008.02.037.032.105.088.192-.455.381-.893.563-1.333q.691-1.677,1.377-3.356c.039-.1.075-.192.106-.291.2-.638.058-.878-.6-1a1.283,1.283,0,0,1-.229-.027,1.2,1.2,0,0,1-.218-.142c.075-.047.149-.133.224-.135.646-.011,1.293-.007,1.939-.007h.54Z" transform="translate(-220.014 4477.204)"/>
      <path id="Path_4091" data-name="Path 4091" d="M200.392-4429.5a4.036,4.036,0,0,1-4.13,4.119,4.066,4.066,0,0,1-4.349-4.111,4.033,4.033,0,0,1,4.11-4.114A4.04,4.04,0,0,1,200.392-4429.5Zm-1.421.78a5.368,5.368,0,0,0-1.021-3.367,2.409,2.409,0,0,0-2.9-.926,2.753,2.753,0,0,0-1.552,1.922,4.778,4.778,0,0,0,.974,4.283,2.321,2.321,0,0,0,3.958-.234A3.274,3.274,0,0,0,198.971-4428.722Z" transform="translate(-122.155 4479.702)"/>
      <path id="Path_4092" data-name="Path 4092" d="M-482.4-4429.561a4.032,4.032,0,0,1-4.176,4.146,4.06,4.06,0,0,1-4.293-4.049,4.025,4.025,0,0,1,4.038-4.174A4.043,4.043,0,0,1-482.4-4429.561Zm-1.418.456a4.954,4.954,0,0,0-.7-2.542,2.833,2.833,0,0,0-2.17-1.567,2.525,2.525,0,0,0-2.479,1.687,4.935,4.935,0,0,0,1.028,4.9,2.3,2.3,0,0,0,3.714-.357A3.547,3.547,0,0,0-483.817-4429.1Z" transform="translate(507.608 4479.729)"/>
      <path id="Path_4093" data-name="Path 4093" d="M-255.115-4426.542c-.011.4-.787.96-1.329,1-.592.041-.912-.3-1.1-1.214l-.869.643a2.265,2.265,0,0,1-3.042-.06,2.352,2.352,0,0,1-.006-3.112,4.269,4.269,0,0,1,2.487-1.316c.388-.1.784-.159,1.174-.252a.33.33,0,0,0,.218-.163,1.765,1.765,0,0,0-.919-2.132,1.294,1.294,0,0,0-1.869.927,1.24,1.24,0,0,1-.82.942c-.4.061-.608-.166-.4-.513a4.759,4.759,0,0,1,.924-1.125,2.753,2.753,0,0,1,3.179-.609,1.917,1.917,0,0,1,1.242,1.911c-.036,1.175-.019,2.353,0,3.529a7.192,7.192,0,0,0,.144,1.225c.115.6.31.672.837.359A.665.665,0,0,1-255.115-4426.542Zm-2.452-4.044c-.7.257-1.3.46-1.892.7a2.177,2.177,0,0,0-1.362,2.323,1.465,1.465,0,0,0,1.2,1.286,2.779,2.779,0,0,0,1.937-.746.333.333,0,0,0,.107-.233C-257.565-4428.323-257.567-4429.393-257.567-4430.586Z" transform="translate(296.549 4479.883)"/>
      <path id="Path_4094" data-name="Path 4094" d="M-291.212-4944.137a12.086,12.086,0,0,0-4.7-1.563c-1.17-.187-2.346-.329-3.534-.493l-.365-2.966c.66.128,1.272.237,1.88.367a17.185,17.185,0,0,1,4.282,1.389,3.471,3.471,0,0,1,1.724,1.705C-291.695-4945.174-291.45-4944.657-291.212-4944.137Z" transform="translate(331.384 4955.219)"/>
      <path id="Path_4095" data-name="Path 4095" d="M855.84-4430.94h-5.747a3.541,3.541,0,0,0,1.495,3.894,3.008,3.008,0,0,0,3.955-.891l.14.262a4.894,4.894,0,0,1-3.069,1.933,3,3,0,0,1-2.937-1.261,4.617,4.617,0,0,1,.294-5.828,3.3,3.3,0,0,1,5.649,1.214C855.7-4431.414,855.755-4431.2,855.84-4430.94Zm-1.675-.515a2.243,2.243,0,0,0-1.725-2.138,2.17,2.17,0,0,0-2.283,2.138Z" transform="translate(-728.017 4480.02)"/>
      <path id="Path_4096" data-name="Path 4096" d="M534.829-4430.938h-4.105c-.478,0-.957-.008-1.434.011a.343.343,0,0,0-.261.187,3.4,3.4,0,0,0,2.474,4.061,2.96,2.96,0,0,0,2.77-.952.868.868,0,0,1,.337-.242c-.009.1.023.244-.032.31a4.483,4.483,0,0,1-3.29,1.88,3.049,3.049,0,0,1-2.651-1.345,4.676,4.676,0,0,1,.29-5.734,3.3,3.3,0,0,1,5.651,1.064C534.669-4431.46,534.739-4431.214,534.829-4430.938Zm-5.662-.511h3.993a2.152,2.152,0,0,0-1.836-2.125A2.168,2.168,0,0,0,529.168-4431.449Z" transform="translate(-431.954 4480.004)"/>
      <path id="Path_4097" data-name="Path 4097" d="M-544.464-4490.6c.089-.155.118-.288.187-.313.7-.263,1.407-.511,2.114-.755a1.2,1.2,0,0,1,.324,0v.5q0,5.251,0,10.5a1.027,1.027,0,0,0,.979,1.168c.1.021.186.147.278.226l-.075.1h-3.865l-.079-.085a1.611,1.611,0,0,1,.265-.253.934.934,0,0,1,.3-.07,1,1,0,0,0,.879-1.053q0-4.767,0-9.534c0-.477-.144-.6-.612-.545C-543.971-4490.7-544.169-4490.655-544.464-4490.6Z" transform="translate(557.167 4533.269)"/>
      <path id="Path_4098" data-name="Path 4098" d="M-166.764-4491.5v1.453q0,4.611,0,9.222c0,.988.113,1.148,1.052,1.461.087.029.135.172.249.329H-169.4c-.12-.267.009-.382.239-.388.783-.024,1.124-.566,1.118-1.366-.023-3.009-.008-6.018-.009-9.027,0-.761-.154-.88-.913-.713-.087.02-.177.029-.346.056.048-.131.06-.277.116-.3.753-.264,1.513-.511,2.271-.759C-166.894-4491.541-166.852-4491.518-166.764-4491.5Z" transform="translate(211.146 4533.127)"/>
      <path id="Path_4099" data-name="Path 4099" d="M480.246-4479.2h-3.934c-.105-.246.015-.33.223-.382.921-.231,1.133-.493,1.135-1.447q.009-4.417,0-8.835c0-.039,0-.078,0-.116-.03-.749-.218-.889-.94-.713a3.769,3.769,0,0,1-.388.047c.087-.151.117-.288.188-.312.729-.259,1.464-.5,2.2-.745a.629.629,0,0,1,.191.01v.424c0,3.436.009,6.872,0,10.307,0,.806.233,1.375,1.091,1.441C480.079-4479.514,480.138-4479.349,480.246-4479.2Z" transform="translate(-384.435 4533.288)"/>
      <path id="Path_4100" data-name="Path 4100" d="M-621.441-4918.141a28.388,28.388,0,0,0,.088,17.93c-1.208-1.2-2.59-5.984-2.573-8.944A17.233,17.233,0,0,1-621.441-4918.141Z" transform="translate(630.334 4926.609)"/>
      <path id="Path_4101" data-name="Path 4101" d="M-495.264-4611.7a17.267,17.267,0,0,1-17.968.1,26.947,26.947,0,0,0,9.013,1.423A26.718,26.718,0,0,0-495.264-4611.7Z" transform="translate(528.235 4643.966)"/>
      <path id="Path_4102" data-name="Path 4102" d="M-319.134-5010.713c-.839-.2-1.637-.385-2.429-.592-.087-.022-.173-.17-.2-.275a6.207,6.207,0,0,0-1.3-2.65A5.23,5.23,0,0,1-319.134-5010.713Z" transform="translate(352.832 5015.237)"/>
      <path id="Path_4103" data-name="Path 4103" d="M981.314-4370.773a1.716,1.716,0,0,1-1.723,1.709,1.73,1.73,0,0,1-1.686-1.715,1.675,1.675,0,0,1,1.674-1.707A1.649,1.649,0,0,1,981.314-4370.773ZM979.6-4369.4a1.321,1.321,0,0,0,1.353-1.372,1.4,1.4,0,0,0-1.351-1.448,1.379,1.379,0,0,0-1.319,1.428A1.291,1.291,0,0,0,979.6-4369.4Z" transform="translate(-847.115 4423.324)"/>
      <path id="Path_4104" data-name="Path 4104" d="M991.706-4362.873c.292,0,.548,0,.8,0,.279,0,.521.085.586.39a.494.494,0,0,1-.344.638.607.607,0,0,0-.121.086l.462.771c-.659.1-.472-.821-1.055-.83v.819l-.333.024Zm.277.743.117.135a4.523,4.523,0,0,0,.632-.223c.036-.019.014-.3-.044-.329-.164-.076-.409-.164-.529-.092S992.038-4362.308,991.983-4362.13Z" transform="translate(-859.845 4414.458)"/>
      <path id="Path_4105" data-name="Path 4105" d="M-581.06-4977.736l-2.718-.564s-2-10.951,1.359-18.772c1.064-2.437,4.078-3.8,4.078-3.8a8.78,8.78,0,0,0-2.282,4.745A61.747,61.747,0,0,0-581.06-4977.736Z" transform="translate(593.848 5002.913)"/>
      <path id="Path_4106" data-name="Path 4106" d="M-499.143-4767.608l.18,3.642a98.224,98.224,0,0,0,13.746,0c9-.487,10.412-1.949,10.412-1.949a10.107,10.107,0,0,0,.641-2.77s-.154.846-8.181,1S-499.143-4767.608-499.143-4767.608Z" transform="translate(515.24 4788.759)"/>
    </g>
  </g>
</svg>
