<svg xmlns="http://www.w3.org/2000/svg" width="150" height="60" viewBox="0 0 150 60">
  <g id="Group_3894" data-name="Group 3894" transform="translate(-334 -3198)">
    <rect id="Rectangle_2745" data-name="Rectangle 2745" width="150" height="60" transform="translate(334 3198)" fill="none"/>
    <g id="Group_3886" data-name="Group 3886" transform="translate(342 3213)">
      <path id="Path_3744" data-name="Path 3744" d="M-935,1176.964a12.431,12.431,0,0,0,.267-1.432,10.68,10.68,0,0,1,4.39-6.878,7.16,7.16,0,0,1,6.343-1.031,3.838,3.838,0,0,1,2.825,3,2.692,2.692,0,0,1-.5,2.354,1.589,1.589,0,0,1-1.933.478.394.394,0,0,1-.269-.467,4.62,4.62,0,0,0-.085-1.538,2.283,2.283,0,0,0-3.164-1.907,5.215,5.215,0,0,0-2.668,2,10.166,10.166,0,0,0-2.028,5.709,11.145,11.145,0,0,0,.737,4.98,4.352,4.352,0,0,0,3.306,2.906,5.3,5.3,0,0,0,3.713-.733,8.845,8.845,0,0,0,3.015-3.327c.5-.853.842-1.782,1.315-2.645a7.4,7.4,0,0,1,4.684-3.861,4.413,4.413,0,0,1,2.49-.022,1.38,1.38,0,0,1,1.022,1.793c-.05.161-.107.247-.3.2a4.89,4.89,0,0,0-5.846,3.155,5.558,5.558,0,0,0-.269,3.782,1.4,1.4,0,0,0,2.474.689,2.877,2.877,0,0,0,.346-.365,6.928,6.928,0,0,0,1.266-2.862c.146-.632.263-1.272.4-1.905a2.825,2.825,0,0,1,.394-.958,1.266,1.266,0,0,1,1.511-.483c.193.072.165.217.171.355.053,1.176.141,2.35.284,3.519a13.47,13.47,0,0,0,.417,2.141,3.611,3.611,0,0,0,.317.776.846.846,0,0,0,1.347.345,2.951,2.951,0,0,0,1.088-1.458,10.928,10.928,0,0,0,.723-3.911,18.648,18.648,0,0,0-.284-4.454c-.032-.153.02-.2.138-.246a3.208,3.208,0,0,1,1.171-.274.981.981,0,0,1,1.061.7,3.959,3.959,0,0,1,.215.913.538.538,0,0,0,.091.332c.094-.183.182-.36.277-.535a3.249,3.249,0,0,1,5.2-.774,5.134,5.134,0,0,1,1.431,3.009,10.307,10.307,0,0,1,.06,2.137c.132.043.178-.056.242-.106a16.473,16.473,0,0,0,3.255-3.332,6.924,6.924,0,0,1,4.005-2.885,5.219,5.219,0,0,1,2.433-.037,1.183,1.183,0,0,1,1.01,1.61c-.051.169-.111.23-.3.191a4.877,4.877,0,0,0-5.858,4.263,7.266,7.266,0,0,0,0,2.243,2.4,2.4,0,0,0,.319.843,1.052,1.052,0,0,0,1.751.261,3.641,3.641,0,0,0,.83-1.172,11.062,11.062,0,0,0,.936-3.8,3.268,3.268,0,0,1,.271-1.137,1.431,1.431,0,0,1,1.835-.572c.118.067.1.165.108.259.206,2.48.489,4.954.569,7.444.016.489.026.489.485.28.733-.334,1.463-.677,2.2-1,.211-.092.231-.172.152-.391a7.833,7.833,0,0,1,.186-6.485,4.327,4.327,0,0,1,3.371-2.549c1.672-.213,3.521.373,3.924,2.662a4.975,4.975,0,0,1-.577,3.313,9.666,9.666,0,0,1-3.3,3.342,1.535,1.535,0,0,0-.4.291,2.818,2.818,0,0,0,3.3.754,5.125,5.125,0,0,0,2.212-1.8,10.053,10.053,0,0,0,1.75-4.529,15.38,15.38,0,0,0,.133-3.789.416.416,0,0,1,.314-.5,1.273,1.273,0,0,1,1.911.927,6.488,6.488,0,0,1-.1,3.028,13,13,0,0,0-.061,3.047,1.327,1.327,0,0,0,.062.248.664.664,0,0,0,.23-.488,39.545,39.545,0,0,1,1.146-4.556,7.116,7.116,0,0,1,.9-1.87,1.912,1.912,0,0,1,3.39.113,7.932,7.932,0,0,1,.961,3.02c.238,1.475.295,2.966.4,4.453a7.119,7.119,0,0,0,.206,1.5c.036.123.065.3.233.287.144-.007.165-.172.2-.283.328-1.049.513-2.133.777-3.2a21.6,21.6,0,0,1,1.2-3.8,4.648,4.648,0,0,1,.881-1.381,1.354,1.354,0,0,1,2.182.083,5.559,5.559,0,0,1,.981,2.045c.472,1.558.694,3.17,1.01,4.762a10.06,10.06,0,0,0,.391,1.562,2.754,2.754,0,0,0,.208.457c.218.364.449.387.754.085a2.465,2.465,0,0,0,.455-.662,15.689,15.689,0,0,0,1.22-3.793,32.714,32.714,0,0,0,.672-4.958.3.3,0,0,1,.263-.318,1.33,1.33,0,0,1,1.9,1.221,32.608,32.608,0,0,1,.124,3.46,18.21,18.21,0,0,0,.477,3.727,4.639,4.639,0,0,0,.508,1.274,1.172,1.172,0,0,0,2.166.079,6.916,6.916,0,0,0,.955-2.352,26.972,26.972,0,0,0,.678-6.873c-.005-.391.149-.495.473-.561a1.318,1.318,0,0,1,1.756,1.233,6.388,6.388,0,0,1-.1,2.041,14.566,14.566,0,0,0-.077,2.851,8.756,8.756,0,0,0,.143,1.672c.022.1.011.269.143.267s.126-.165.151-.269c.291-1.208.483-2.438.807-3.639a12.366,12.366,0,0,1,1.414-3.54,3.93,3.93,0,0,1,.939-1.045,2.089,2.089,0,0,1,3.038.387,7.227,7.227,0,0,1,1.2,2.75c.433,1.65.635,3.343.94,5.017a8.647,8.647,0,0,0,.539,2.04c.336.744.851.823,1.386.206a4.8,4.8,0,0,0,.907-1.894,21.6,21.6,0,0,0,.686-6.694c0-.123-.011-.247-.014-.37-.018-.593-.018-.593.555-.715.929-.2,1.381.1,1.543,1.044a10.673,10.673,0,0,1,.094,1.845,31.533,31.533,0,0,0,.158,4.233,8.247,8.247,0,0,0,.682,2.517,3.672,3.672,0,0,0,1.661,1.789c.208.1.16.176.041.31a1.882,1.882,0,0,1-2.873.1,5.578,5.578,0,0,1-1.256-2.456c-.032-.107-.059-.216-.091-.334-.134.115-.128.282-.173.421a6.1,6.1,0,0,1-.956,1.95,2.578,2.578,0,0,1-1.724,1.01,2.155,2.155,0,0,1-2.167-1,9.225,9.225,0,0,1-1.344-3.415c-.338-1.5-.632-3-.954-4.5a3.554,3.554,0,0,0-.406-1.1.548.548,0,0,0-.963-.115,2.479,2.479,0,0,0-.518.857,24.637,24.637,0,0,0-1,3.793,27.527,27.527,0,0,1-1.008,3.793,4.243,4.243,0,0,1-.674,1.232,1.084,1.084,0,0,1-1.825-.043,4.681,4.681,0,0,1-.731-2c-.032-.164-.055-.329-.085-.514-.152.1-.183.264-.256.393a6.955,6.955,0,0,1-1.527,1.99,2.443,2.443,0,0,1-3.407-.1,6.049,6.049,0,0,1-1.531-2.609,14.673,14.673,0,0,1-.422-1.7,11.285,11.285,0,0,1-1.251,3.334,4.221,4.221,0,0,1-1.207,1.338,1.594,1.594,0,0,1-2.479-.487,8.576,8.576,0,0,1-1.093-2.943c-.311-1.445-.583-2.9-.88-4.345a3.176,3.176,0,0,0-.219-.668c-.13-.286-.306-.3-.506-.048a2.361,2.361,0,0,0-.363.752c-.4,1.2-.632,2.448-.93,3.677a22.846,22.846,0,0,1-1.079,3.6,4.474,4.474,0,0,1-.694,1.184,1.162,1.162,0,0,1-1.981-.068,5.408,5.408,0,0,1-.821-2.078,35.427,35.427,0,0,1-.606-4.764,29.469,29.469,0,0,0-.335-3.04,2.655,2.655,0,0,0-.175-.576c-.113-.254-.3-.283-.5-.088a2.053,2.053,0,0,0-.468.845,28.88,28.88,0,0,0-.875,3.586,37.933,37.933,0,0,1-1,4.143,4.552,4.552,0,0,1-.6,1.271.813.813,0,0,1-1.385.086,3.8,3.8,0,0,1-.777-1.62,16.563,16.563,0,0,1-.39-1.97.669.669,0,0,0-.231.294,7.575,7.575,0,0,1-3,3.013,5.056,5.056,0,0,1-6.375-1.176.27.27,0,0,0-.391-.09c-1.091.548-2.206,1.043-3.328,1.523a.345.345,0,0,0-.234.377,22.736,22.736,0,0,1-.6,5.4,6.891,6.891,0,0,1-1.658,3.218,4.3,4.3,0,0,1-5.138.719,3.546,3.546,0,0,1-1.678-2.914,5.8,5.8,0,0,1,2.742-5.359,21.463,21.463,0,0,1,3.639-1.944.472.472,0,0,0,.339-.547c-.052-.712-.066-1.427-.1-2.223-.252.393-.44.723-.663,1.026a3.64,3.64,0,0,1-2.567,1.67,2.858,2.858,0,0,1-3.014-1.624,6.639,6.639,0,0,1-.613-3.432c0-.09.017-.178.024-.268a.382.382,0,0,0-.006-.067c-.068-.035-.1.022-.135.056a12.788,12.788,0,0,1-2.246,1.7.994.994,0,0,0-.436.522,7.4,7.4,0,0,1-2.433,3.4,3.087,3.087,0,0,1-2.489.66.949.949,0,0,1-.852-1.064,2.123,2.123,0,0,1,.679-1.421,9.359,9.359,0,0,1,1.659-1.311c.382-.255.772-.5,1.158-.747a.366.366,0,0,0,.2-.245,10.339,10.339,0,0,0,.059-4.467,2.452,2.452,0,0,0-.249-.622,1.3,1.3,0,0,0-1.978-.46,2.711,2.711,0,0,0-.872,1.091,11.016,11.016,0,0,0-.933,3.523,51.11,51.11,0,0,0-.194,9.773,17.521,17.521,0,0,0,.569,3.781c.054.186-.009.22-.174.257a2.093,2.093,0,0,1-2.634-1.438,7.746,7.746,0,0,1-.388-2.379c-.063-1.716.01-3.431.1-5.146.008-.167,0-.336,0-.522-.122.032-.169.154-.244.238a3.027,3.027,0,0,1-3.069,1.078,2.608,2.608,0,0,1-1.569-1.138,6.252,6.252,0,0,1-.835-1.9,10.423,10.423,0,0,1-.623,1.148,4.2,4.2,0,0,1-2.482,1.834,3.3,3.3,0,0,1-3.8-1.575,4.1,4.1,0,0,1-.418-.877c-.1-.3-.183-.6-.282-.925a15.524,15.524,0,0,1-.985,1.333,8.121,8.121,0,0,1-4.818,2.91,6.686,6.686,0,0,1-7.236-3.483,11.351,11.351,0,0,1-1.272-4.389c-.01-.094.038-.206-.068-.278Zm46.235,10.7a9.978,9.978,0,0,0-3.4,2.449,4.059,4.059,0,0,0-.8,1.537,3.488,3.488,0,0,0,.019,2.307,1.269,1.269,0,0,0,1.342.851,1.862,1.862,0,0,0,1.266-.544,3.687,3.687,0,0,0,.9-1.555A18.358,18.358,0,0,0-888.766,1187.662Zm7.062-7.9a7.355,7.355,0,0,0,.327,2.18c.037.124.05.256.23.119a6.8,6.8,0,0,0,2.572-3.351,2.947,2.947,0,0,0,.033-1.849,1.261,1.261,0,0,0-2.149-.522,2.584,2.584,0,0,0-.6.924A6.423,6.423,0,0,0-881.7,1179.765Z" transform="translate(935 -1166.973)" fill="#1f2430"/>
      <path id="Path_3745" data-name="Path 3745" d="M717.2,1179.779a10.221,10.221,0,0,1-1.96,1.572,6.625,6.625,0,0,1-9.806-4.067,7.023,7.023,0,0,1,1.384-6.448,16.319,16.319,0,0,1,4.223-3.661c1.381-.9,2.791-1.747,4.183-2.626a11.4,11.4,0,0,0,2.388-1.9.22.22,0,0,1,.287-.074,19.829,19.829,0,0,1,8.351,5.859,10.6,10.6,0,0,1,2.367,6c-.1-.017-.1-.094-.123-.173a4.122,4.122,0,0,0-.521-1.194,3.865,3.865,0,0,0-5.015-.939,8.3,8.3,0,0,0-2.422,2.689c-.785,1.208-1.474,2.478-2.328,3.641C717.879,1178.9,717.536,1179.338,717.2,1179.779Z" transform="translate(-594.768 -1162.551)" fill="#1f2430"/>
      <path id="Path_3746" data-name="Path 3746" d="M829.179,1305.031c.336-.441.679-.876,1.007-1.323.854-1.164,1.543-2.433,2.328-3.641a8.3,8.3,0,0,1,2.422-2.69,3.865,3.865,0,0,1,5.015.94,4.118,4.118,0,0,1,.521,1.194c.021.079.024.156.123.174a5.283,5.283,0,0,1-2.981,5.437,4.7,4.7,0,0,1-5.625-1.036l-.145-.168a3.186,3.186,0,0,0,1.082,2.343c.573.487.915.611,2.438.877a2.216,2.216,0,0,1-.675.584,10.514,10.514,0,0,1-4.421,1.578,10.34,10.34,0,0,1-3.645,0,2.858,2.858,0,0,1-1.409-.639,1.733,1.733,0,0,1,.581-.16,4.593,4.593,0,0,0,3.332-3.071A.791.791,0,0,0,829.179,1305.031Z" transform="translate(-706.746 -1287.805)" fill="#1f2430"/>
      <path id="Path_3747" data-name="Path 3747" d="M288.571,1191.711a1.538,1.538,0,0,1-1.521,1.621,1.48,1.48,0,0,1-1.472-1.513,1.643,1.643,0,0,1,1.607-1.647A1.422,1.422,0,0,1,288.571,1191.711Z" transform="translate(-203.43 -1188.313)" fill="#1f2430"/>
      <path id="Path_3748" data-name="Path 3748" d="M605.188,1199.029a1.4,1.4,0,0,1,1.371,1.446,1.551,1.551,0,0,1-1.473,1.572,1.392,1.392,0,0,1-1.344-1.434A1.52,1.52,0,0,1,605.188,1199.029Z" transform="translate(-500.178 -1196.575)" fill="#1f2430"/>
    </g>
  </g>
</svg>
