<svg xmlns="http://www.w3.org/2000/svg" width="150" height="60" viewBox="0 0 150 60">
  <g id="Group_3894" data-name="Group 3894" transform="translate(-158 -3198)">
    <rect id="Rectangle_2745" data-name="Rectangle 2745" width="150" height="60" transform="translate(158 3198)" fill="none"/>
    <g id="Group_3883" data-name="Group 3883" transform="translate(197 3214)">
      <path id="Path_3773" data-name="Path 3773" d="M-2801.744,1510.75c-.052-.046-.116-.023-.174-.023q-2.592,0-5.183,0c-.234,0-.234,0-.234.245q0,7.894,0,15.788c0,.281.03.239-.248.239-.686,0-1.372,0-2.058,0-.16,0-.217-.03-.215-.206.01-1.072.006-2.144.006-3.216q0-6.313,0-12.626c0-.185-.042-.236-.23-.232-.606.013-1.213,0-1.82.007-.124,0-.17-.029-.167-.161.008-.459.008-.919,0-1.378,0-.136.048-.16.17-.159.613.005,1.226-.008,1.838.008.2.005.256-.06.274-.248a6.43,6.43,0,0,1,.7-2.418,4.717,4.717,0,0,1,3.936-2.64,10.869,10.869,0,0,1,3.666.255c.5.125.5.135.5.638,0,.594,0,1.188,0,1.783,0,.111.057.276-.04.323s-.189-.1-.271-.177a4.518,4.518,0,0,0-2.3-1.153,5.586,5.586,0,0,0-1.827-.076,2.292,2.292,0,0,0-1.928,1.933,5.181,5.181,0,0,0-.034,1.645c.012.1.057.132.156.13.318,0,.637,0,.956,0,2.622,0,5.244,0,7.866,0,.492,0,.975-.086,1.465-.093a7.649,7.649,0,0,1,5.066,1.791,9.127,9.127,0,0,1,2.567,3.4.279.279,0,0,0,.078.112c0-.141,0-.281,0-.422a4.023,4.023,0,0,1,1.34-3.141,5.68,5.68,0,0,1,2.013-1.144,10.482,10.482,0,0,1,3.693-.485,17.87,17.87,0,0,1,3.188.486.926.926,0,0,1,.757.652c1.5,3.74,3.026,7.47,4.537,11.207.153.378.25.778.377,1.182a2.334,2.334,0,0,0,.174-.469c.441-1.311,1-2.575,1.511-3.86.732-1.848,1.488-3.686,2.215-5.536a6.039,6.039,0,0,1,.67-1.421,4.99,4.99,0,0,1,2.563-1.755,10.1,10.1,0,0,1,3.663-.424,10.538,10.538,0,0,1,2.894.54.224.224,0,0,1,.181.26c-.008.766,0,1.531,0,2.3v.2c-.105-.073-.184-.127-.261-.183a8.911,8.911,0,0,0-2.324-1.316,5.194,5.194,0,0,0-3.406-.056,2.676,2.676,0,0,0-1.9,2.6,2.263,2.263,0,0,0,.416,1.578,3.526,3.526,0,0,0,1.066.83c1.06.588,2.151,1.113,3.252,1.618a10.826,10.826,0,0,1,2.578,1.537,4.159,4.159,0,0,1,1.519,3.7,4.852,4.852,0,0,1-1.042,2.772,5.4,5.4,0,0,1-2.347,1.617,9.8,9.8,0,0,1-4.261.558,8.662,8.662,0,0,1-2.878-.678,4.4,4.4,0,0,1-.915-.54.21.21,0,0,1-.1-.179c0-.973,0-1.946,0-2.94a.727.727,0,0,1,.24.18,10.654,10.654,0,0,0,2.487,1.809,6.037,6.037,0,0,0,4.7.387,2.954,2.954,0,0,0,1.561-1.137,2.5,2.5,0,0,0-.25-3.145,6.9,6.9,0,0,0-2.029-1.369c-1.037-.512-2.123-.917-3.154-1.441a7.237,7.237,0,0,1-1.724-1.142,3.787,3.787,0,0,1-.944-1.4c-.083.05-.091.133-.118.2-1.745,4.268-3.488,8.537-5.266,12.792-.389.931-.791,1.857-1.182,2.787a.211.211,0,0,1-.231.152q-1.057-.01-2.114,0c-.165,0-.172-.04-.1-.171,1.207-2.167,2.244-4.417,3.248-6.682a.5.5,0,0,0,0-.43q-2.324-5.63-4.642-11.263c-.166-.4-.353-.794-.532-1.189a2.62,2.62,0,0,0-1.964-1.578,5.257,5.257,0,0,0-3.139.208,2.758,2.758,0,0,0-1.717,3,2.028,2.028,0,0,0,.978,1.558,20.66,20.66,0,0,0,2.328,1.247c.969.5,1.99.886,2.932,1.438a7.259,7.259,0,0,1,1.51,1.13,3.982,3.982,0,0,1,1.2,2.868,4.864,4.864,0,0,1-1.292,3.563,5.74,5.74,0,0,1-2.445,1.471,10,10,0,0,1-4.152.419,8.6,8.6,0,0,1-2.641-.655c-.656-.291-.655-.292-.655-1v-2.33a.592.592,0,0,1,.228.167,8.712,8.712,0,0,0,2.857,1.8,5.882,5.882,0,0,0,4.115.017,2.868,2.868,0,0,0,1.482-1.181,2.5,2.5,0,0,0-.36-3.092,6.623,6.623,0,0,0-1.978-1.315c-1.046-.491-2.11-.945-3.157-1.435a6.641,6.641,0,0,1-2.2-1.5c-.13-.145-.247-.3-.392-.482.028.247.053.464.076.682a10.146,10.146,0,0,1-.556,4.589,9.067,9.067,0,0,1-3.691,4.687,7.588,7.588,0,0,1-8.441-.232,9.23,9.23,0,0,1-3.729-5.848,10.1,10.1,0,0,1,1.316-7.567,8.715,8.715,0,0,1,1.767-2.053C-2801.8,1510.818-2801.753,1510.8-2801.744,1510.75Zm-.842,7.609a9.584,9.584,0,0,0,.457,3.019,7.128,7.128,0,0,0,2.6,3.794,4.334,4.334,0,0,0,4.874.322,5.9,5.9,0,0,0,2.441-2.624,9.606,9.606,0,0,0,.564-7.383,6.989,6.989,0,0,0-2.572-3.771,4.347,4.347,0,0,0-4.463-.555,5.608,5.608,0,0,0-2.561,2.292A9.081,9.081,0,0,0-2802.585,1518.359Z" transform="translate(2830.839 -1503.68)" fill="#1f2430"/>
      <path id="Path_3774" data-name="Path 3774" d="M-3170,1650.148a7.6,7.6,0,0,1,1.292-1.2,5.99,5.99,0,0,1,2.887-1.087,8.811,8.811,0,0,1,2.052-.035,5.074,5.074,0,0,1,4.151,3.674,2.264,2.264,0,0,1,.052.474q0,6.818.006,13.635c0,.169-.051.2-.206.2-.692-.008-1.385-.01-2.076,0-.182,0-.232-.039-.232-.228q.009-6.138.006-12.275a3.559,3.559,0,0,0-.4-1.841,3.674,3.674,0,0,0-2.531-1.754,4.582,4.582,0,0,0-4.652,2.155,2.257,2.257,0,0,0-.276,1.071q0,6.322.007,12.643c0,.184-.041.235-.229.231-.7-.012-1.409-.009-2.113,0-.139,0-.173-.038-.173-.175q.006-8.729,0-17.458c0-.125.029-.168.161-.167.7.006,1.409.008,2.113,0,.146,0,.169.048.168.178C-3170,1648.842-3170,1649.5-3170,1650.148Z" transform="translate(3177.968 -1642.489)" fill="#1f2430"/>
      <path id="Path_3775" data-name="Path 3775" d="M-3322.842,1517.5q0-5.688,0-11.376c0-.172.033-.228.217-.225.79.011,1.581.01,2.371,0,.16,0,.2.036.2.2q-.008,4.843,0,9.685,0,6.57,0,13.141c0,.159-.029.217-.205.214q-1.176-.016-2.353,0c-.179,0-.234-.034-.234-.227Q-3322.837,1523.2-3322.842,1517.5Z" transform="translate(3322.846 -1505.813)" fill="#1f2430"/>
    </g>
  </g>
</svg>
