<svg xmlns="http://www.w3.org/2000/svg" width="150" height="60" viewBox="0 0 150 60">
  <g id="Group_3894" data-name="Group 3894" transform="translate(-708 -3282)">
    <rect id="Rectangle_2745" data-name="Rectangle 2745" width="150" height="60" transform="translate(708 3282)" fill="none"/>
    <g id="Group_3891" data-name="Group 3891" transform="translate(752 3291)">
      <path id="Path_4047" data-name="Path 4047" d="M-1059.517-1719.771c1.881-.57,3.763-1.137,5.641-1.715a2.673,2.673,0,0,1,.865-.129c.381.01.763,0,1.187,0v2.048c.164-.095.268-.153.371-.214a18.9,18.9,0,0,1,2.485-1.315,5.721,5.721,0,0,1,4.045-.2,5.574,5.574,0,0,1,3.127,2.669,8.265,8.265,0,0,1,1.04,3.307,9.475,9.475,0,0,1-.389,4.121,7.534,7.534,0,0,1-5.559,5.071,9.383,9.383,0,0,1-2.655.292c-.667-.018-1.333-.054-2-.079-.135-.005-.27,0-.4,0-.082.258-.114,3.944-.042,4.892l2.505.58a8.124,8.124,0,0,1-.034,1.455h-9.914v-1.45l2.285-.581v-17.326h-2.557Zm7.717,1.672v10.273a1.066,1.066,0,0,0,.154.025c.407,0,.816.013,1.221-.016a4.1,4.1,0,0,0,3.885-2.96,8.725,8.725,0,0,0,.367-3.283,6.122,6.122,0,0,0-.495-2.2,3.319,3.319,0,0,0-2.429-1.969A6.293,6.293,0,0,0-1051.8-1718.1Z" transform="translate(1059.517 1741.841)"/>
      <path id="Path_4048" data-name="Path 4048" d="M-476.048-1724.663h3.691c.007.432,0,.857,0,1.283s0,.86,0,1.29v8.979l.06.014c.062-.075.127-.147.184-.224q1.7-2.286,3.409-4.572a.823.823,0,0,0,.171-.53c-.006-1.8,0-3.6-.01-5.4a.678.678,0,0,1,.288-.6,2.961,2.961,0,0,1,2.64-.623,2.723,2.723,0,0,1,1.993,3.153,4.632,4.632,0,0,1-.55,1.452,20.4,20.4,0,0,1-1.717,2.44q-3.27,4.209-6.534,8.421a.8.8,0,0,1-.733.353c-1.154-.019-2.308-.008-3.462-.008h-.4v-9.456l-.07-.027c-.069.107-.14.212-.206.32q-2.686,4.423-5.366,8.85a.56.56,0,0,1-.559.319c-1.029-.017-2.059-.007-3.089-.007h-.407v-12.44l-3.012-.294v-1.448c.606-.14,1.208-.282,1.811-.419q1.736-.393,3.473-.78a2.119,2.119,0,0,1,.435-.056c.61-.006,1.22,0,1.879,0,.023.417.009.819.011,1.221,0,.419,0,.838,0,1.256v7.385l.082.025Z" transform="translate(509.084 1745.246)"/>
      <path id="Path_4049" data-name="Path 4049" d="M290.668-1719.6v-4.153c-.189.042-.342.069-.492.11a4.115,4.115,0,0,0-2.945,2.67,8.345,8.345,0,0,0,.011,5.845,4.782,4.782,0,0,0,.612,1.129,4.093,4.093,0,0,0,4.094,1.712,8.2,8.2,0,0,0,2.351-.745c.495-.222.981-.464,1.471-.7.1-.048.2-.092.361-.164,0,.961,0,1.879,0,2.809a21.939,21.939,0,0,1-2.58,1.061,13.612,13.612,0,0,1-5.692.6,6.743,6.743,0,0,1-3.594-1.286,7.85,7.85,0,0,1-3.159-5.416,8.653,8.653,0,0,1,.379-3.917,7.318,7.318,0,0,1,3.274-4.062,10.052,10.052,0,0,1,8.049-.988,4.964,4.964,0,0,1,2.089,1.157,3.214,3.214,0,0,1,1.108,2.694,2.493,2.493,0,0,1-2,2.319,3.441,3.441,0,0,1-1.972-.1C291.582-1719.181,291.144-1719.394,290.668-1719.6Z" transform="translate(-235.486 1745.599)"/>
      <path id="Path_4050" data-name="Path 4050" d="M466.279-2309.361a3.575,3.575,0,0,0,.037-.365q0-3.378,0-6.757v-.385h9.473v7.524a2.461,2.461,0,0,1-.261.028q-4.481,0-8.962,0a1.855,1.855,0,0,1-.293-.047Z" transform="translate(-414.432 2316.869)"/>
      <path id="Path_4051" data-name="Path 4051" d="M37.013-2096.021a1.021,1.021,0,0,1,.051.223q0,1.714,0,3.428a1.267,1.267,0,0,1-.013.133c-.237.072-14.611.1-15.137.025v-3.772h.418q7.143,0,14.286,0c.133,0,.267-.02.4-.031Z" transform="translate(14.829 2103.525)"/>
    </g>
  </g>
</svg>
