<svg width="317" height="30" viewBox="0 0 317 30" fill="none" xmlns="http://www.w3.org/2000/svg">
<path d="M239.198 21.956C239.836 22.044 240.848 22.132 242.168 22.132C244.588 22.132 246.26 21.692 247.272 20.746C248.042 20.042 248.548 19.052 248.548 17.776C248.548 15.576 246.898 14.41 245.49 14.08V14.014C247.03 13.464 247.998 12.21 247.998 10.758C247.998 9.592 247.514 8.712 246.744 8.14C245.842 7.392 244.61 7.062 242.696 7.062C241.376 7.062 240.034 7.194 239.198 7.392V21.956ZM241.112 8.668C241.42 8.602 241.926 8.536 242.806 8.536C244.742 8.536 246.04 9.24 246.04 10.956C246.04 12.386 244.852 13.464 242.85 13.464H241.112V8.668ZM241.112 14.894H242.696C244.786 14.894 246.524 15.752 246.524 17.754C246.524 19.91 244.698 20.636 242.718 20.636C242.036 20.636 241.508 20.614 241.112 20.548V14.894ZM259.966 11.352H258.03V17.864C258.03 18.238 257.964 18.59 257.854 18.854C257.502 19.734 256.6 20.636 255.302 20.636C253.564 20.636 252.926 19.25 252.926 17.226V11.352H250.99V17.578C250.99 21.296 252.992 22.242 254.664 22.242C256.556 22.242 257.7 21.12 258.184 20.262H258.228L258.338 22H260.054C259.988 21.164 259.966 20.196 259.966 19.074V11.352ZM262.447 21.494C263.195 21.934 264.273 22.242 265.439 22.242C267.925 22.242 269.399 20.922 269.399 19.03C269.399 17.446 268.431 16.522 266.605 15.84C265.219 15.29 264.603 14.894 264.603 14.014C264.603 13.222 265.219 12.562 266.363 12.562C267.353 12.562 268.123 12.936 268.541 13.2L269.003 11.792C268.431 11.418 267.485 11.132 266.407 11.132C264.141 11.132 262.733 12.54 262.733 14.256C262.733 15.532 263.635 16.566 265.571 17.27C266.979 17.798 267.529 18.282 267.529 19.206C267.529 20.108 266.869 20.79 265.483 20.79C264.515 20.79 263.503 20.394 262.909 20.042L262.447 21.494ZM273.832 22V11.352H271.896V22H273.832ZM272.864 7.15C272.138 7.15 271.654 7.7 271.654 8.36C271.654 9.02 272.116 9.548 272.82 9.548C273.59 9.548 274.052 9.02 274.052 8.36C274.052 7.678 273.568 7.15 272.864 7.15ZM277.052 22H278.988V15.598C278.988 15.268 279.032 14.938 279.12 14.696C279.472 13.618 280.462 12.716 281.716 12.716C283.542 12.716 284.18 14.146 284.18 15.862V22H286.116V15.664C286.116 12.012 283.828 11.132 282.354 11.132C280.594 11.132 279.362 12.122 278.834 13.112H278.79L278.68 11.352H276.964C277.03 12.232 277.052 13.112 277.052 14.234V22ZM297.813 17.028C297.857 16.808 297.879 16.522 297.879 16.126C297.879 14.168 296.977 11.132 293.479 11.132C290.377 11.132 288.485 13.64 288.485 16.852C288.485 20.064 290.443 22.242 293.721 22.242C295.415 22.242 296.603 21.868 297.285 21.56L296.933 20.174C296.229 20.482 295.371 20.724 293.985 20.724C292.027 20.724 290.377 19.646 290.333 17.028H297.813ZM290.355 15.642C290.509 14.3 291.345 12.518 293.325 12.518C295.503 12.518 296.031 14.432 296.009 15.642H290.355ZM299.55 21.494C300.298 21.934 301.376 22.242 302.542 22.242C305.028 22.242 306.502 20.922 306.502 19.03C306.502 17.446 305.534 16.522 303.708 15.84C302.322 15.29 301.706 14.894 301.706 14.014C301.706 13.222 302.322 12.562 303.466 12.562C304.456 12.562 305.226 12.936 305.644 13.2L306.106 11.792C305.534 11.418 304.588 11.132 303.51 11.132C301.244 11.132 299.836 12.54 299.836 14.256C299.836 15.532 300.738 16.566 302.674 17.27C304.082 17.798 304.632 18.282 304.632 19.206C304.632 20.108 303.972 20.79 302.586 20.79C301.618 20.79 300.606 20.394 300.012 20.042L299.55 21.494ZM308.273 21.494C309.021 21.934 310.099 22.242 311.265 22.242C313.751 22.242 315.225 20.922 315.225 19.03C315.225 17.446 314.257 16.522 312.431 15.84C311.045 15.29 310.429 14.894 310.429 14.014C310.429 13.222 311.045 12.562 312.189 12.562C313.179 12.562 313.949 12.936 314.367 13.2L314.829 11.792C314.257 11.418 313.311 11.132 312.233 11.132C309.967 11.132 308.559 12.54 308.559 14.256C308.559 15.532 309.461 16.566 311.397 17.27C312.805 17.798 313.355 18.282 313.355 19.206C313.355 20.108 312.695 20.79 311.309 20.79C310.341 20.79 309.329 20.394 308.735 20.042L308.273 21.494Z" fill="#1F2430"/>
<path d="M21.2 22.211L11.9 5.41099C10.7 3.31099 8.5 2.01099 6.1 2.01099H0.5C0.2 2.01099 0 2.21099 0 2.41099C0 2.51099 0 2.61099 0.1 2.71099L12.7 25.511C13.8 27.611 16 28.911 18.5 28.911H25L24 27.311L24.9 28.911H29.5C30.1 28.911 30.5 28.511 30.5 28.011C30.5 27.811 30.5 27.611 30.4 27.411C26.7 27.511 23.1 25.511 21.2 22.211Z" fill="url(#paint0_linear_401_459)"/>
<path d="M40.6008 22.211L31.3008 5.41099C30.1008 3.31099 27.9008 2.01099 25.5008 2.01099H19.8008C19.6008 2.01099 19.3008 2.21099 19.3008 2.41099C19.3008 2.51099 19.3008 2.61099 19.4008 2.71099L32.0008 25.511C33.1008 27.611 35.3008 28.911 37.8008 28.911H44.3008L43.5008 27.311L44.4008 28.911H49.0008C49.6008 28.911 50.0008 28.511 50.0008 28.011C50.0008 27.811 50.0008 27.611 49.9008 27.411C46.1008 27.411 42.6008 25.411 40.6008 22.211Z" fill="url(#paint1_linear_401_459)"/>
<path d="M41.5008 7.91099C42.3008 10.211 44.7008 11.511 47.1008 10.711C48.9008 10.111 50.1008 8.41099 50.1008 6.51099C50.0008 4.01099 48.0008 2.01099 45.6008 2.01099H37.2008C36.7008 2.01099 36.3008 2.51099 36.3008 3.01099C36.3008 3.11099 36.3008 3.21099 36.3008 3.21099C39.8008 3.31099 41.5008 7.91099 41.5008 7.91099Z" fill="url(#paint2_linear_401_459)"/>
<path d="M81.1461 8.06772H80.6461C80.4461 8.06772 80.2461 8.26772 80.1461 8.46772L77.1461 22.1677L72.1461 8.56772C71.9461 8.16772 71.4461 7.96772 71.1461 8.06772C70.8461 8.16772 70.7461 8.36772 70.6461 8.56772L65.6461 22.1677L62.7461 8.66772V8.46772C62.6461 8.26772 62.5461 8.06772 62.2461 8.06772H61.7461C61.6461 8.06772 61.4461 8.16772 61.3461 8.26772C61.2461 8.36772 61.2461 8.46772 61.2461 8.66772V8.96772L64.6461 24.8677C64.7461 25.1677 65.0461 25.3677 65.3461 25.3677C65.6461 25.3677 65.9461 25.1677 66.0461 24.8677L71.2461 10.7677L76.4461 24.8677C76.5461 25.1677 76.8461 25.3677 77.1461 25.3677H77.2461C77.5461 25.3677 77.8461 25.1677 77.9461 24.8677L81.3461 8.96772V8.66772C81.3461 8.56772 81.3461 8.36772 81.2461 8.26772C81.4461 8.16772 81.3461 8.06772 81.1461 8.06772Z" fill="black"/>
<path d="M100.147 8.06763H99.6469C99.3469 8.06763 99.1469 8.26763 99.1469 8.56763V16.0676H89.0469V8.56763C89.0469 8.26763 88.8469 8.06763 88.5469 8.06763H88.0469C87.7469 8.06763 87.5469 8.26763 87.5469 8.56763V25.0676C87.5469 25.3676 87.7469 25.5676 88.0469 25.5676H88.5469C88.8469 25.5676 89.0469 25.3676 89.0469 25.0676V17.5676H99.1469V25.0676C99.1469 25.3676 99.3469 25.5676 99.6469 25.5676H100.147C100.447 25.5676 100.647 25.3676 100.647 25.0676V8.56763C100.647 8.26763 100.447 8.06763 100.147 8.06763Z" fill="black"/>
<path d="M109.844 8.06763H109.344C109.044 8.06763 108.844 8.26763 108.844 8.56763V25.0676C108.844 25.3676 109.044 25.5676 109.344 25.5676H109.844C110.144 25.5676 110.344 25.3676 110.344 25.0676V8.56763C110.244 8.26763 110.044 8.06763 109.844 8.06763Z" fill="black"/>
<path d="M128.446 23.9676H118.446L128.346 9.16763C128.546 8.96763 128.546 8.66763 128.446 8.46763C128.346 8.26763 128.146 8.06763 127.846 8.06763H117.446C117.146 8.06763 116.946 8.26763 116.946 8.56763V9.06763C116.946 9.36763 117.146 9.56763 117.446 9.56763H126.546L116.646 24.3676C116.446 24.5676 116.446 24.8676 116.546 25.0676C116.646 25.2676 116.946 25.4676 117.146 25.4676H128.446C128.746 25.4676 128.946 25.2676 128.946 24.9676V24.4676C128.946 24.2676 128.746 24.0676 128.446 23.9676C128.446 23.9676 128.546 23.9676 128.446 23.9676Z" fill="black"/>
<path d="M145.145 23.9676H136.445V8.56763C136.445 8.26763 136.245 8.06763 135.945 8.06763H135.445C135.145 8.06763 134.945 8.26763 134.945 8.56763V24.7676C134.945 25.1676 135.245 25.4676 135.645 25.4676H145.045C145.345 25.4676 145.545 25.2676 145.545 24.9676V24.4676C145.645 24.1676 145.445 23.9676 145.145 23.9676Z" fill="black"/>
<path d="M158.044 8.56724C157.844 8.16724 157.344 8.06724 156.944 8.26724C156.844 8.36724 156.744 8.46724 156.644 8.56724L149.644 24.4672L149.544 24.7672C149.444 24.8672 149.544 25.0672 149.544 25.2672C149.644 25.3672 149.744 25.4672 149.944 25.4672H150.444C150.644 25.4672 150.844 25.3672 150.944 25.1672L157.344 10.6672L163.744 25.0672V25.1672C163.844 25.3672 164.044 25.4672 164.244 25.4672H164.744C164.944 25.4672 165.044 25.3672 165.144 25.2672C165.244 25.0672 165.244 24.9672 165.144 24.7672L158.044 8.56724Z" fill="black"/>
<path d="M180.944 16.5675C182.144 15.7675 182.844 14.3675 182.844 12.9675C182.644 10.3675 180.444 8.26754 177.844 8.46754H172.044C171.644 8.46754 171.344 8.76754 171.344 9.16754V24.4675C171.344 24.8675 171.644 25.1675 172.044 25.1675H178.844C181.444 25.3675 183.744 23.2675 183.844 20.6675C183.844 18.7675 182.644 17.1675 180.944 16.5675ZM181.444 12.8675C181.344 14.7675 179.644 16.1675 177.844 15.9675H172.844V9.76754H177.844C179.644 9.66754 181.344 11.0675 181.444 12.8675ZM178.844 17.5675C180.744 17.4675 182.344 18.8675 182.444 20.6675C182.244 22.5675 180.644 23.9675 178.844 23.7675H172.744V17.5675H178.844Z" fill="black"/>
<path d="M195.747 16.0676C193.347 15.1676 191.047 14.2676 191.047 12.8676C191.047 11.0676 192.947 9.66763 195.347 9.66763C197.747 9.66763 199.647 11.0676 199.647 12.8676V13.0676C199.647 13.3676 199.847 13.5676 200.147 13.5676H200.647C200.947 13.5676 201.147 13.3676 201.147 13.0676V12.7676C201.147 10.1676 198.547 8.06763 195.347 8.06763C192.147 8.06763 189.547 10.1676 189.547 12.7676C189.547 15.2676 192.447 16.3676 195.447 17.3676C197.847 18.2676 200.147 19.1676 200.147 20.6676C200.147 22.3676 197.947 23.8676 195.347 23.8676C192.747 23.8676 190.547 22.4676 190.547 20.6676V20.4676C190.547 20.1676 190.347 19.9676 190.047 19.9676H189.547C189.247 19.9676 189.047 20.1676 189.047 20.4676V20.6676C189.047 23.2676 191.847 25.3676 195.347 25.3676C198.847 25.3676 201.647 23.2676 201.647 20.6676C201.747 18.2676 198.747 17.1676 195.747 16.0676Z" fill="black"/>
<rect x="222.346" width="1" height="30" fill="#DDDDDD"/>
<defs>
<linearGradient id="paint0_linear_401_459" x1="54.7025" y1="-7.3639" x2="-14.9968" y2="44.7463" gradientUnits="userSpaceOnUse">
<stop stop-color="#F7931E"/>
<stop offset="0.999" stop-color="#E3083B"/>
</linearGradient>
<linearGradient id="paint1_linear_401_459" x1="59.6088" y1="1.0586" x2="-9.90145" y2="53.3962" gradientUnits="userSpaceOnUse">
<stop stop-color="#F7931E"/>
<stop offset="0.999" stop-color="#E3083B"/>
</linearGradient>
<linearGradient id="paint2_linear_401_459" x1="50.5268" y1="1.56112" x2="3.3872" y2="66.3523" gradientUnits="userSpaceOnUse">
<stop stop-color="#F7931E"/>
<stop offset="0.999" stop-color="#E3083B"/>
</linearGradient>
</defs>
</svg>
