<svg xmlns="http://www.w3.org/2000/svg" width="152" height="60" viewBox="0 0 152 60">
  <g id="Group_3894" data-name="Group 3894" transform="translate(-889 -3195)">
    <rect id="Rectangle_2745" data-name="Rectangle 2745" width="152" height="60" transform="translate(889 3195)" fill="none"/>
    <g id="Group_3892" data-name="Group 3892" transform="translate(889 3215)">
      <g id="Group_3752" data-name="Group 3752">
        <path id="Path_4147" data-name="Path 4147" d="M-2557.545-6771.679v4.8h-2.139V-6781.8h1.979l.176,1.348a6.461,6.461,0,0,1,5.871-1.354,5.39,5.39,0,0,1,3.338,2.057,6.861,6.861,0,0,1-.434,8.042C-2550.84-6769.531-2554.312-6769.5-2557.545-6771.679Zm8-4.3a3.623,3.623,0,0,0-3.836-4.048,3.763,3.763,0,0,0-4.164,3.779c-.043,2.609,1.389,4.162,3.883,4.21C-2551.054-6771.988-2549.59-6773.389-2549.544-6775.979Z" transform="translate(2586.816 6786.025)"/>
        <path id="Path_4148" data-name="Path 4148" d="M-1839.315-6775.844h-10.071a2.8,2.8,0,0,0,1.175,2.131,5.419,5.419,0,0,0,6.521-.021c.126-.094.25-.19.425-.325l1.586,1.4a6.734,6.734,0,0,1-3.873,1.938,8.109,8.109,0,0,1-5.5-.908c-2.31-1.415-2.969-3.575-2.616-6.123a5.711,5.711,0,0,1,4.383-4.689,6.355,6.355,0,0,1,7.289,2.732A5.951,5.951,0,0,1-1839.315-6775.844Zm-2.447-1.835c-.055-1.762-1.773-2.987-3.961-2.883-1.891.089-3.644,1.5-3.546,2.883Z" transform="translate(1963.914 6786.633)"/>
        <path id="Path_4149" data-name="Path 4149" d="M-2374.828-6780.256c.042-.469.078-.882.118-1.323h2.024v11.73h-2.008l-.146-1.423a6.762,6.762,0,0,1-6.616,1.062,5.231,5.231,0,0,1-2.876-2.311,6.55,6.55,0,0,1,.787-7.492C-2381.314-6782.208-2378.106-6782.311-2374.828-6780.256Zm-4.023,8.453a3.74,3.74,0,0,0,4.028-4.083,3.8,3.8,0,0,0-4.169-3.909,3.76,3.76,0,0,0-3.858,4.032A3.8,3.8,0,0,0-2378.851-6771.8Z" transform="translate(2433.249 6785.792)"/>
        <path id="Path_4150" data-name="Path 4150" d="M-1617.3-6780.367c.053-.478.1-.89.15-1.342h2v11.714h-1.986l-.175-1.429a6.611,6.611,0,0,1-5.785,1.313,5.478,5.478,0,0,1-3.346-2.049,6.5,6.5,0,0,1,.392-7.945A6.631,6.631,0,0,1-1617.3-6780.367Zm-4,8.423a3.74,3.74,0,0,0,4.028-4.083,3.786,3.786,0,0,0-4.11-3.91,3.8,3.8,0,0,0-3.926,4.031A3.813,3.813,0,0,0-1621.3-6771.943Z" transform="translate(1766.687 6785.933)"/>
        <path id="Path_4151" data-name="Path 4151" d="M-2667.17-6775.975a5.754,5.754,0,0,1-5.387,6.273,8.86,8.86,0,0,1-4.188-.44c-2.86-1.088-3.885-3.533-3.6-6.255a5.593,5.593,0,0,1,5.646-5.2,11.075,11.075,0,0,1,3.261.269A5.345,5.345,0,0,1-2667.17-6775.975Zm-6.665,4.38.026-.125c.219,0,.44.013.658,0a3.647,3.647,0,0,0,3.474-2.545c.608-2.228.05-4.844-3.265-5.3-3.063-.418-5.906,1.192-4.955,5.238a3.039,3.039,0,0,0,1.993,2.22A18.2,18.2,0,0,0-2673.835-6771.6Z" transform="translate(2693.029 6785.693)"/>
        <path id="Path_4152" data-name="Path 4152" d="M-2785.6-6772.663l1.99-.831a3.5,3.5,0,0,0,3.075,1.476,16.6,16.6,0,0,0,2.385-.108,2.409,2.409,0,0,0,.848-.273c.508-.257,1-.571.964-1.237s-.564-.9-1.087-1.028c-1.433-.344-2.889-.6-4.319-.955a10.218,10.218,0,0,1-2.3-.815,2.588,2.588,0,0,1-.531-4.192,4.635,4.635,0,0,1,2.807-1.209,9.362,9.362,0,0,1,5.765.864,12.341,12.341,0,0,1,1.636,1.33l-2.184.925a5.724,5.724,0,0,0-5.639-1.054,1.07,1.07,0,0,0-.775.962.916.916,0,0,0,.75.9c1.031.3,2.084.518,3.128.772s2.11.446,3.125.786a2.728,2.728,0,0,1,2.082,2.5,3.2,3.2,0,0,1-1.594,2.95,6.5,6.5,0,0,1-2.992.957,9.486,9.486,0,0,1-4.49-.414A4.567,4.567,0,0,1-2785.6-6772.663Z" transform="translate(2785.597 6785.975)"/>
        <path id="Path_4153" data-name="Path 4153" d="M-2012.845-6779.6l-2,.846a2.762,2.762,0,0,0-2.236-1.222,27.786,27.786,0,0,0-2.915.021,1.522,1.522,0,0,0-.665.247c-.751.444-.782,1.289.011,1.627a16.392,16.392,0,0,0,2.629.758c.969.231,1.956.387,2.928.607a6,6,0,0,1,1.125.4,2.9,2.9,0,0,1,.666,5.052,6,6,0,0,1-3.252,1.241,9.547,9.547,0,0,1-4.667-.4,4.5,4.5,0,0,1-2.62-2.292c.632-.269,1.211-.522,1.8-.753a.328.328,0,0,1,.3.077,3.015,3.015,0,0,0,2.471,1.26,26.669,26.669,0,0,0,2.98-.062,1.416,1.416,0,0,0,.4-.119c.847-.3,1.367-.824,1.309-1.372-.085-.8-.758-.985-1.37-1.13-1.493-.354-3.005-.63-4.5-.975a7.807,7.807,0,0,1-1.577-.547,2.618,2.618,0,0,1-.32-4.7,6.175,6.175,0,0,1,2.333-.837,8.98,8.98,0,0,1,5.763.842,10.606,10.606,0,0,1,1.5,1.215Z" transform="translate(2115.327 6786.036)"/>
        <path id="Path_4154" data-name="Path 4154" d="M-2219.386-6717.542a16.593,16.593,0,0,1-4.737,1.59,20.784,20.784,0,0,1-7.264.193,3.927,3.927,0,0,1-3.582-3.954c-.159-2.344.656-3.07,2.888-2.349,2.519.813,4.981,1.8,7.474,2.693C-2222.884-6718.75-2221.152-6718.159-2219.386-6717.542Z" transform="translate(2301.116 6733.524)"/>
        <path id="Path_4155" data-name="Path 4155" d="M-2191.224-6804.1c.327-.151.7-.354,1.1-.507a20.516,20.516,0,0,1,11.169-1.149,4.251,4.251,0,0,1,3.127,5.4c-.29.9-.859,1.313-1.775,1.043-1.889-.556-3.76-1.177-5.615-1.837C-2185.894-6802.1-2188.549-6803.107-2191.224-6804.1Z" transform="translate(2262.608 6807.209)"/>
        <path id="Path_4156" data-name="Path 4156" d="M-1921.5-6799.133h-2.24v-1.887h2.224v-2.791h2.235v2.759h3.582v1.895h-3.507a4.237,4.237,0,0,0-.061.489c0,1.809-.012,3.618.007,5.428.015,1.461.581,2.006,2.061,2,.533,0,1.066-.067,1.631-.105v1.889a7.323,7.323,0,0,1-4.066-.17,3.189,3.189,0,0,1-1.849-3.212c-.039-1.867-.014-3.737-.016-5.606C-1921.5-6798.654-1921.5-6798.867-1921.5-6799.133Z" transform="translate(2027.248 6805.22)"/>
        <path id="Path_4157" data-name="Path 4157" d="M-2437.031-6780.72v1.9c-.535.056-1.086.09-1.63.173a3.726,3.726,0,0,0-3.365,3.9q0,2.536,0,5.073v.67h-2.229v-11.727h2.111l.14,1.539A5.841,5.841,0,0,1-2437.031-6780.72Z" transform="translate(2485.251 6784.953)"/>
        <path id="Path_4158" data-name="Path 4158" d="M-1732.683-6781.378c.041.481.082.95.117,1.361a14.948,14.948,0,0,1,2.315-1.14,16.193,16.193,0,0,1,2.653-.359v2.021a21.247,21.247,0,0,0-2.128.327,3.587,3.587,0,0,0-2.842,3.653c-.009,1.73,0,3.46,0,5.191v.671h-2.229v-11.724Z" transform="translate(1860.999 6785.603)"/>
        <path id="Path_4159" data-name="Path 4159" d="M-1657.925-6768.609h-2.169v-11.725h2.169Z" transform="translate(1795.267 6784.563)"/>
        <path id="Path_4160" data-name="Path 4160" d="M-2102.92-6731.151a11.367,11.367,0,0,0,1.125-1.289,2.809,2.809,0,0,0-.065-2.9c-.4-.809-.933-1.554-1.435-2.373a1.307,1.307,0,0,1,.369.093c1.313.827,2.649,1.623,3.917,2.515a5.394,5.394,0,0,1,1.322,1.439,1.668,1.668,0,0,1-.977,2.681,6.462,6.462,0,0,1-3.194.063C-2102.208-6730.978-2102.551-6731.069-2102.92-6731.151Z" transform="translate(2185.24 6747.058)"/>
        <path id="Path_4161" data-name="Path 4161" d="M-2237.406-6784.866a20.987,20.987,0,0,1-4.922-3.321,4.591,4.591,0,0,1-.353-.4c-1.136-1.451-.673-2.833,1.131-3.178a8.066,8.066,0,0,1,3.812.273,11.293,11.293,0,0,0-1.207,1.5,2.516,2.516,0,0,0,.046,2.355,23.774,23.774,0,0,0,1.255,2.152c.107.178.245.338.369.506Z" transform="translate(2308.429 6794.73)"/>
        <path id="Path_4162" data-name="Path 4162" d="M-1663.332-6814.1a1.449,1.449,0,0,1,1.5-1.441,1.473,1.473,0,0,1,1.454,1.439,1.51,1.51,0,0,1-1.482,1.489A1.482,1.482,0,0,1-1663.332-6814.1Z" transform="translate(1798.117 6815.546)"/>
      </g>
    </g>
  </g>
</svg>
