<svg xmlns="http://www.w3.org/2000/svg" width="80" height="80" viewBox="0 0 80 80">
  <g id="Group_3882" data-name="Group 3882" transform="translate(-347 -2820)">
    <circle id="Ellipse_1916" data-name="Ellipse 1916" cx="40" cy="40" r="40" transform="translate(347 2820)" fill="#fff"/>
    <path id="Path_4914" data-name="Path 4914" d="M-1325.579,2781.086h14.1s1.234,4.99,0,5.7-6.835,1.287-6.835,1.287h-7.26v-6.99Z" transform="translate(1706 62)" fill="#0155fb"/>
    <g id="note" transform="translate(374.251 2842.372)">
      <path id="Path_3124" data-name="Path 3124" d="M23.979,0H2.2A4.463,4.463,0,0,0-2.251,4.473V31.4a4.464,4.464,0,0,0,4.441,4.486H24.284a4.157,4.157,0,0,0,4.148-4.167V4.486A4.464,4.464,0,0,0,23.991,0ZM6.99,1.794h12.2V5.777a.87.87,0,0,1-.878.862H7.889a.87.87,0,0,1-.9-.841v-4ZM26.638,31.706A2.361,2.361,0,0,1,24.3,34.092H2.2a2.667,2.667,0,0,1-2.66-2.675V4.486A2.668,2.668,0,0,1,2.187,1.794H5.2V5.777A2.666,2.666,0,0,0,7.872,8.433H18.293a2.666,2.666,0,0,0,2.693-2.64v-4h2.993a2.667,2.667,0,0,1,2.659,2.675Zm0,0" transform="translate(0)" fill="#1f2430" stroke="#1f2430" stroke-width="0.6"/>
      <path id="Path_3125" data-name="Path 3125" d="M89.682,208.044h6.793a.9.9,0,1,0,0-1.794H89.682a.9.9,0,0,0,0,1.794Zm0,0" transform="translate(-84.502 -191.447)" fill="#1f2430" stroke="#1f2430" stroke-width="0.6"/>
      <path id="Path_3126" data-name="Path 3126" d="M105.5,286.25H89.682a.9.9,0,1,0,0,1.794H105.5a.9.9,0,0,0,0-1.794Zm0,0" transform="translate(-84.502 -265.705)" fill="#1f2430" stroke="#1f2430" stroke-width="0.6"/>
      <path id="Path_3127" data-name="Path 3127" d="M105.5,366.25H89.682a.9.9,0,0,0,0,1.794H105.5a.9.9,0,0,0,0-1.794Zm0,0" transform="translate(-84.502 -339.963)" fill="#1f2430" stroke="#1f2430" stroke-width="0.6"/>
    </g>
  </g>
</svg>
