<svg id="Group_5975" data-name="Group 5975" xmlns="http://www.w3.org/2000/svg" width="26" height="26" viewBox="0 0 26 26">
  <circle id="Ellipse_1317" data-name="Ellipse 1317" cx="13" cy="13" r="13" fill="#00be7e"/>
  <g id="Group_1788" data-name="Group 1788" transform="translate(7.123 8.311)">
    <path id="Path_3149" data-name="Path 3149" d="M913.132,345.942a.9.9,0,0,0-1.3,0l-6.821,7.033-2.979-3.072a.9.9,0,0,0-1.3,0h0a.97.97,0,0,0,0,1.343l3.509,3.618a.935.935,0,0,0,.109.137.93.93,0,0,0,1.325,0h0a.944.944,0,0,0,.109-.137l7.35-7.579A.97.97,0,0,0,913.132,345.942Z" transform="translate(-900.459 -345.664)" fill="#fff"/>
  </g>
</svg>
