<?xml version="1.0" encoding="utf-8"?>
<!-- Generator: Adobe Illustrator 26.3.1, SVG Export Plug-In . SVG Version: 6.00 Build 0)  -->
<svg version="1.1" id="Layer_1" xmlns="http://www.w3.org/2000/svg" xmlns:xlink="http://www.w3.org/1999/xlink" x="0px" y="0px"
	 viewBox="0 0 45 45" style="enable-background:new 0 0 45 45;" xml:space="preserve">
<style type="text/css">
	.st0{fill:#DFE4FF;}
	.st1{display:none;}
	.st2{display:inline;}
	.st3{fill:#1AC48B;}
	.st4{fill:#3F5AFF;}
</style>
<g id="Group_6544" transform="translate(-590 -165)">
	<g id="Group_3131" transform="translate(590 165)">
		<circle id="Ellipse_1406" class="st0" cx="22.5" cy="22.5" r="22.5"/>
	</g>
	<g id="graduation" transform="translate(598.774 126.334)" class="st1">
		<g id="Group_6552" transform="translate(0 52.89)" class="st2">
			<path id="Path_6184" class="st3" d="M13.1,11.2c-0.6,0-1.1-0.1-1.6-0.3L6.8,9.2H4.6v2.8c0,0.9,0.6,1.8,1.4,2.2l5.6,2.4
				c0.9,0.3,1.9,0.3,2.8,0l5.7-2.4c0.8-0.4,1.4-1.2,1.4-2.2V9.2H19l-4.1,1.7C14.3,11.1,13.7,11.2,13.1,11.2z"/>
			<path id="Path_6185" class="st3" d="M0.6,5.5l11.2,4.3c0.9,0.3,1.9,0.3,2.9,0l10.7-4.5v6.6l-0.7,2.2h1.9l-0.7-2.2V5h0
				c0.5-0.3,0.4-0.7-0.3-1L14.7,0.2c-0.9-0.3-2-0.3-2.9,0L0.6,4.4C-0.2,4.7-0.2,5.2,0.6,5.5z"/>
		</g>
	</g>
</g>
<path class="st4" d="M22.4,34.2c-2.3,0-4.7,0-7,0c-2.5,0-3.6-1.4-3.8-4.1c-0.4-5.6,0.8-11,1.9-16.5c0.4-1.8,1.5-2.8,3.3-2.8
	c3.8-0.1,7.6-0.1,11.5,0c1.8,0,3,1.1,3.3,3c1,5.3,2.2,10.5,1.9,16c-0.2,3-1.2,4.3-4.1,4.4C27,34.2,24.7,34.2,22.4,34.2z M31.2,23.7
	l-1.7-9.2c-0.2-0.8-0.6-1.3-1.5-1.3c-3.7,0-7.4,0-11,0.1c-0.5,0-1.2,0.6-1.3,1.1c-0.7,3-1.2,6.1-1.7,9.1c0.2,0.1,0.2,0.2,0.3,0.2
	c0.9,0,1.8-0.1,2.7,0.1c0.6,0.1,1.3,0.6,1.6,1.1c1,2.2,1.2,2.4,3.4,2.4c0.6,0,1.1,0,1.7,0c1.7,0,2.3-0.4,2.9-2.2
	c0.3-1,0.9-1.4,1.8-1.3C29.2,23.7,30.1,23.7,31.2,23.7z"/>
</svg>
