<svg xmlns="http://www.w3.org/2000/svg" width="45" height="45" viewBox="0 0 45 45">
  <g id="Group_6843" data-name="Group 6843" transform="translate(-590 -165)">
    <g id="Group_3131" data-name="Group 3131" transform="translate(590 165)">
      <circle id="Ellipse_1406" data-name="Ellipse 1406" cx="22.5" cy="22.5" r="22.5" fill="#fff0e2"/>
    </g>
    <g id="Group_6555" data-name="Group 6555" transform="translate(-122.516 455.646)">
      <path id="Path_6190" data-name="Path 6190" d="M728.529-271.525c.513.265,1.023.535,1.534.8.944.484,1.9.953,2.833,1.455a3.855,3.855,0,0,0,1.893.517c.127,0,.252-.015.379-.026a3.007,3.007,0,0,0,1.142-.3l2.607-1.341,2.038-1.041q1.588-.815,3.168-1.635c.234-.123.46-.263.686-.4.105-.064.086-.143,0-.206a2.97,2.97,0,0,0-.3-.193l-2.54-1.315-2.629-1.352c-.914-.471-1.832-.933-2.741-1.415a3.564,3.564,0,0,0-1.411-.438,3.49,3.49,0,0,0-1.608.186c-.392.162-.769.364-1.148.559-1.164.6-2.323,1.2-3.486,1.795q-1.85.953-3.7,1.9a5.456,5.456,0,0,0-.471.294c-.081.055-.081.123,0,.184a1.872,1.872,0,0,0,.257.182c.471.245.944.486,1.415.727Z" transform="translate(0.004)" fill="#f16521"/>
      <path id="Path_6191" data-name="Path 6191" d="M730.358-269.845c.839.438,1.685.85,2.515,1.3a3.828,3.828,0,0,0,1.924.513l0,.015a3.489,3.489,0,0,0,1.586-.359c.727-.383,1.462-.754,2.191-1.131L741.485-271c.907-.467,1.816-.931,2.721-1.4a6.578,6.578,0,0,0,.614-.37c.083-.053.085-.127,0-.18-.2-.125-.4-.254-.6-.361-.835-.438-1.672-.859-2.507-1.293a.269.269,0,0,0-.281,0c-.438.219-.876.454-1.315.679-.9.462-1.8.931-2.7,1.387a8.192,8.192,0,0,1-1.01.458,5.027,5.027,0,0,1-2.222.219,4.5,4.5,0,0,1-1.582-.454c-.379-.193-.756-.392-1.135-.585q-1.663-.855-3.326-1.713a.228.228,0,0,0-.219,0l-2.553,1.315c-.208.107-.4.243-.6.368-.066.042-.075.1,0,.153a2,2,0,0,0,.287.2c.732.381,1.468.756,2.2,1.135Z" transform="translate(0 4.523)" fill="#f16521"/>
      <path id="Path_6192" data-name="Path 6192" d="M744.535-270.746c-.958-.5-1.919-.988-2.877-1.483a.178.178,0,0,0-.186,0c-.278.149-.561.291-.841.438-1.1.567-2.211,1.142-3.322,1.7a7.039,7.039,0,0,1-1.065.458,4.822,4.822,0,0,1-1.992.177,4.089,4.089,0,0,1-1.4-.353c-.484-.237-.964-.486-1.444-.732q-1.65-.845-3.287-1.694a.178.178,0,0,0-.186,0c-.9.462-1.792.92-2.688,1.383-.156.085-.3.18-.449.278-.1.064-.105.136,0,.208a2.441,2.441,0,0,0,.283.191c.719.372,1.44.741,2.158,1.111l3.026,1.556c.922.473,1.851.936,2.765,1.426a3.565,3.565,0,0,0,1.762.458l0,.015a3.172,3.172,0,0,0,1.461-.294q1.88-.96,3.758-1.928l2.215-1.142c.774-.4,1.547-.791,2.318-1.19a1.92,1.92,0,0,0,.3-.219.082.082,0,0,0,.033-.112.085.085,0,0,0-.033-.035A2.461,2.461,0,0,0,744.535-270.746Z" transform="translate(0.006 7.37)" fill="#f16521"/>
    </g>
  </g>
</svg>
