<svg width="39" height="38" viewBox="0 0 39 38" fill="none" xmlns="http://www.w3.org/2000/svg">
<g clip-path="url(#clip0_204_1308)">
<path d="M38.9253 20.3808C38.9051 18.8324 38.2093 17.6661 36.8478 16.902C36.6562 16.7914 36.6058 16.6707 36.5755 16.4696C36.4646 15.5346 36.394 14.5895 36.1822 13.6745C34.0139 3.9922 23.6567 -1.72872 14.3584 1.75008C7.62168 4.27372 3.97094 9.3009 3.31542 16.4495C3.29525 16.6808 3.22465 16.8014 3.02296 16.912C1.88336 17.5455 1.10682 18.5006 1.02614 19.7976C0.925292 21.5773 0.884952 23.3669 1.01606 25.1465C1.14716 26.9463 2.48846 28.2533 4.23315 28.565C5.89716 28.8667 7.35947 27.8109 7.38973 26.2123C7.43007 23.749 7.41998 21.2857 7.38973 18.8224C7.37964 17.7164 6.57285 16.7914 5.49376 16.5199C5.37274 16.4898 5.26181 16.4596 5.15088 16.4194C5.55427 9.00932 11.8069 2.6047 19.895 2.55443C27.9025 2.51421 34.3266 8.80824 34.7501 16.4194C34.6493 16.4495 34.5585 16.4797 34.4778 16.4998C33.2777 16.7914 32.5113 17.7063 32.5012 18.933C32.481 21.3259 32.481 23.7088 32.5012 26.1017C32.5113 27.3283 33.2777 28.2533 34.4778 28.5349C34.5787 28.565 34.6896 28.5952 34.7905 28.6254C34.7905 29.2889 34.8106 29.9324 34.7905 30.5658C34.74 32.2952 33.3988 33.8234 31.6641 34.0044C30.6254 34.115 29.5766 34.0648 28.5277 34.0648C28.4471 34.0648 28.3361 33.9642 28.2958 33.8838C27.7613 32.7476 26.8335 32.2349 25.6031 32.2349C24.7862 32.2349 23.9593 32.2248 23.1424 32.2349C22.8701 32.2349 22.5877 32.255 22.3154 32.3253C20.9237 32.6672 20.0867 33.9139 20.248 35.3618C20.3993 36.6588 21.559 37.6843 22.9306 37.7044C23.8685 37.7145 24.7963 37.7145 25.7342 37.7044C26.8839 37.6944 27.731 37.1615 28.2554 36.1359C28.3563 35.9349 28.4672 35.8745 28.679 35.8745C29.5161 35.8846 30.343 35.8946 31.1801 35.8745C33.8828 35.8243 36.1318 33.9139 36.5352 31.2495C36.6663 30.3748 36.6058 29.4699 36.6158 28.5751C36.6158 28.3438 36.6965 28.2232 36.8982 28.1126C38.2395 27.3484 38.9253 26.1922 38.9455 24.6539C38.9455 23.2463 38.9455 21.8085 38.9253 20.3808ZM5.58453 19.0436C5.58453 19.0637 5.58453 19.0938 5.58453 19.1139C5.58453 20.2601 5.58453 21.3963 5.58453 22.5425C5.58453 23.6686 5.58453 24.8047 5.58453 25.9308C5.58453 26.5843 5.29206 26.8357 4.63654 26.7754C3.63814 26.6949 2.80109 25.8202 2.78092 24.7745C2.75066 23.2664 2.75066 21.7582 2.78092 20.2501C2.80109 19.1642 3.70873 18.2694 4.75756 18.2392C5.29206 18.2392 5.56436 18.5006 5.58453 19.0436ZM25.7443 35.9148C25.7241 35.9148 25.6939 35.9148 25.6636 35.9148C25.2199 35.9148 24.7761 35.9148 24.3425 35.9148C23.8887 35.9148 23.4348 35.9248 22.981 35.9148C22.4163 35.9047 22.033 35.5226 22.033 34.9998C22.023 34.477 22.4062 34.0849 22.9609 34.0748C23.8988 34.0547 24.8266 34.0547 25.7645 34.0748C26.3292 34.0849 26.7024 34.477 26.6923 34.9998C26.6923 35.5226 26.309 35.8946 25.7443 35.9148ZM37.0999 24.7846C37.0798 25.8805 36.1822 26.7552 35.1334 26.7955C34.5888 26.8156 34.3064 26.5642 34.2963 26.0112C34.2862 24.8449 34.2963 23.6786 34.2963 22.5023C34.2963 21.3762 34.2963 20.24 34.2963 19.1139C34.2963 18.4604 34.5888 18.199 35.2443 18.2593C36.2427 18.3398 37.0798 19.2145 37.0999 20.2601C37.1302 21.7683 37.1302 23.2764 37.0999 24.7846ZM21.0951 25.0259C22.6079 25.0359 24.1206 25.0359 25.6334 25.0259C27.9731 25.0158 29.6371 23.4273 29.6673 21.0946C29.6976 18.5408 29.6976 15.987 29.6673 13.4433C29.6371 11.1408 28.0033 9.5422 25.704 9.53215C21.8717 9.52209 18.0394 9.52209 14.2071 9.53215C11.8876 9.5422 10.2438 11.1509 10.2236 13.4634C10.2034 15.9971 10.2135 18.5408 10.2236 21.0846C10.2236 22.4922 10.8085 23.6082 11.9885 24.4025C12.6238 24.8248 13.3398 25.0058 14.1365 25.0359C14.1365 25.6392 14.1466 26.1922 14.1365 26.7351C14.1063 27.6601 14.4189 28.4042 15.3165 28.7762C16.214 29.1482 16.9402 28.8164 17.5856 28.1528C18.5336 27.1775 19.5219 26.2425 20.4699 25.2773C20.6514 25.0963 20.8329 25.0259 21.0951 25.0259ZM16.325 26.8357C16.2342 26.9262 16.1334 27.0167 16.0325 27.1071C16.0023 27.087 15.972 27.077 15.9417 27.0569C15.9417 26.1721 15.9417 25.2773 15.9417 24.3925C15.9417 23.5077 15.6594 23.2362 14.7618 23.2262C14.4088 23.2262 14.0559 23.2262 13.7029 23.1759C12.8053 23.0351 12.1498 22.3213 12.049 21.4164C12.0288 21.2555 12.0288 21.0946 12.0288 20.9237C12.0288 18.5006 12.0288 16.0775 12.0288 13.6444C12.0288 12.1463 12.8356 11.352 14.3483 11.352C18.0798 11.352 21.8112 11.352 25.5426 11.352C27.0553 11.352 27.8621 12.1463 27.8621 13.6444C27.8621 16.0675 27.8621 18.4906 27.8621 20.9237C27.8621 22.4118 27.0452 23.2262 25.5426 23.2262C23.8786 23.2262 22.2146 23.2362 20.5506 23.2262C20.1572 23.2262 19.8547 23.3468 19.5723 23.6283C18.4932 24.6941 17.4141 25.7699 16.325 26.8357ZM21.2868 17.465C21.317 16.7411 20.7119 16.1077 19.9757 16.0876C19.2496 16.0675 18.6143 16.6707 18.6042 17.4047C18.5941 18.1085 19.179 18.7319 19.895 18.762C20.6111 18.8023 21.2565 18.209 21.2868 17.465ZM15.5283 16.0876C14.8122 16.0876 14.2071 16.6808 14.1971 17.4047C14.187 18.1387 14.782 18.752 15.5182 18.762C16.2544 18.7721 16.8595 18.1688 16.8595 17.4248C16.8595 16.6908 16.2544 16.0876 15.5283 16.0876ZM24.3526 18.7721C25.0888 18.7721 25.6939 18.1588 25.6939 17.4248C25.6939 16.711 25.0989 16.1077 24.3828 16.0876C23.6466 16.0675 23.0315 16.6707 23.0315 17.4148C23.0113 18.1588 23.6164 18.762 24.3526 18.7721Z" fill="#121212"/>
</g>
<defs>
<clipPath id="clip0_204_1308">
<rect width="38" height="37" fill="white" transform="translate(0.935547 0.724609)"/>
</clipPath>
</defs>
</svg>
