<svg xmlns="http://www.w3.org/2000/svg" width="20.052" height="22.284" viewBox="0 0 20.052 22.284"><defs><style>.a{fill:#1f2430;}</style></defs><g transform="translate(-646.117 545.167)"><path class="a" d="M655.6-522.883c-.438-.062-.878-.108-1.312-.189a9.829,9.829,0,0,1-5.627-3.168,9.456,9.456,0,0,1-2.432-5.125,9.792,9.792,0,0,1,3.681-9.405,9.533,9.533,0,0,1,5.21-2.121c.04,0,.08-.01.12-.017s.062-.015.107-.026v-.662c-.577,0-1.14,0-1.7,0a1.478,1.478,0,0,1-.383-.034.772.772,0,0,1-.546-.816.756.756,0,0,1,.728-.71c.524-.013,1.049-.005,1.574-.005,1.227,0,2.453,0,3.68,0a.748.748,0,0,1,.743.546.746.746,0,0,1-.3.872,1.09,1.09,0,0,1-.5.141c-.475.018-.952.007-1.428.007h-.254v.675a9.97,9.97,0,0,1,5.067,1.873l.9-.9a3.734,3.734,0,0,1-.354-.3.774.774,0,0,1,.007-1.108.775.775,0,0,1,1.109.006q.916.9,1.815,1.814a.784.784,0,0,1,0,1.128.782.782,0,0,1-1.11-.014,4.474,4.474,0,0,1-.307-.354l-.767.782c.42.559.9,1.118,1.292,1.735a9.671,9.671,0,0,1,1.457,6.661,10.014,10.014,0,0,1-8.208,8.563c-.4.07-.8.107-1.195.159Zm.535-1.549a8.489,8.489,0,0,0,8.472-8.466,8.49,8.49,0,0,0-8.479-8.484,8.478,8.478,0,0,0-8.47,8.464A8.49,8.49,0,0,0,656.138-524.432Z"/><path class="a" d="M838.355-406.507c.11,0,.2.012.282.012.766,0,1.532-.008,2.3,0a.777.777,0,0,1,.685,1.169.725.725,0,0,1-.652.393c-1.145,0-2.29.008-3.435,0a.742.742,0,0,1-.743-.764q-.008-2.431,0-4.863a.753.753,0,0,1,.778-.78.758.758,0,0,1,.785.8c.005,1.242,0,2.484,0,3.726Z" transform="translate(-181.435 -127.349)"/></g></svg>