<svg xmlns="http://www.w3.org/2000/svg" width="45" height="45" viewBox="0 0 45 45">
  <g id="Group_6842" data-name="Group 6842" transform="translate(-590 -165)">
    <g id="Group_3131" data-name="Group 3131" transform="translate(590 165)">
      <circle id="Ellipse_1406" data-name="Ellipse 1406" cx="22.5" cy="22.5" r="22.5" fill="#faeff1"/>
    </g>
    <g id="Group_6554" data-name="Group 6554" transform="translate(-101.271 437.271)">
      <path id="Path_6187" data-name="Path 6187" d="M707.868-257.654v-.889a.876.876,0,0,0-.863-.888.875.875,0,0,0-.858.888V-239a.875.875,0,0,0,.862.888.876.876,0,0,0,.859-.888v-18.655Z" transform="translate(0 0)" fill="#ff668e"/>
      <path id="Path_6188" data-name="Path 6188" d="M721.694-247.135l-3.121-4.678,3.119-4.682a.861.861,0,0,0-.242-1.193.854.854,0,0,0-.471-.143l-12.386-.092v12.032l12.386.092a.862.862,0,0,0,.859-.862A.866.866,0,0,0,721.694-247.135Z" transform="translate(0.696 0.119)" fill="#ff668e"/>
    </g>
  </g>
</svg>
