<svg xmlns="http://www.w3.org/2000/svg" width="85" height="85" viewBox="0 0 85 85">
  <g id="Group_6843" data-name="Group 6843" transform="translate(-305 -205)">
    <path id="Path_6120" data-name="Path 6120" d="M42.5,0A42.5,42.5,0,1,1,0,42.5,42.5,42.5,0,0,1,42.5,0Z" transform="translate(305 205)" fill="#f5f7fa"/>
    <g id="Group_3749" data-name="Group 3749" transform="translate(-2128.189 -1082.813)">
      <path id="Path_1405" data-name="Path 1405" d="M2475.663,1546.341c-3.581,0-7.161.009-10.741-.009a8.019,8.019,0,0,1-1.84-.2,3.712,3.712,0,0,1-2.88-3.7,15.523,15.523,0,0,1,13.124-15.247,14.745,14.745,0,0,1,7.767.788,15.336,15.336,0,0,1,9.087,9.036,13.9,13.9,0,0,1,1.006,5.487,3.74,3.74,0,0,1-3.6,3.773,13.791,13.791,0,0,1-1.476.071Q2480.885,1546.347,2475.663,1546.341Z" transform="translate(0 -198.073)" fill="#dfe6ef"/>
      <path id="Path_1406" data-name="Path 1406" d="M2551.945,1319.659a7.741,7.741,0,1,1,7.818,7.809A7.724,7.724,0,0,1,2551.945,1319.659Z" transform="translate(-83.983 0)" fill="#dfe6ef"/>
    </g>
  </g>
</svg>
