<svg width="1136" height="432" viewBox="0 0 1136 432" fill="none" xmlns="http://www.w3.org/2000/svg">
<rect width="1136" height="432" fill="white"/>
<rect width="1136" height="432" rx="20" fill="white"/>
<path d="M719.685 54C648.752 54 585.363 90.7659 585.363 158.694C585.363 236.594 697.786 241.974 697.786 281.109C697.786 297.587 678.902 312.338 646.649 312.338C600.876 312.338 566.665 291.727 566.665 291.727L552.027 360.274C552.027 360.274 591.437 377.684 643.761 377.684C721.313 377.684 782.337 339.112 782.337 270.023C782.337 187.708 669.446 182.487 669.446 146.163C669.446 133.255 684.948 119.111 717.109 119.111C753.396 119.111 783.001 134.101 783.001 134.101L797.327 67.8967C797.327 67.8967 765.114 54 719.685 54ZM70.7176 58.9966L69 68.9897C69 68.9897 98.8416 74.4512 125.719 85.3456C160.325 97.8383 162.791 105.111 168.619 127.699L232.13 372.531H317.267L448.426 58.9966H363.485L279.207 272.17L244.816 91.4742C241.663 70.7937 225.687 58.9966 206.132 58.9966H70.7176ZM482.583 58.9966L415.949 372.531H496.948L563.347 58.9966H482.583ZM934.342 58.9966C914.81 58.9966 904.462 69.4535 896.868 87.7268L778.199 372.531H863.141L879.575 325.063H983.058L993.052 372.531H1068L1002.62 58.9966H934.342ZM945.389 143.704L970.567 261.357H903.113L945.389 143.704Z" fill="#1434CB"/>
</svg>
